<?xml version="1.0" encoding="utf-8"?>
<!-- Generator: Adobe Illustrator 24.1.0, SVG Export Plug-In . SVG Version: 6.00 Build 0)  -->
<svg version="1.1" xmlns="http://www.w3.org/2000/svg" xmlns:xlink="http://www.w3.org/1999/xlink" x="0px" y="0px"
	 viewBox="0 0 1373.79 886.98" style="enable-background:new 0 0 1373.79 886.98;" xml:space="preserve">
<style type="text/css">
	.st0{fill:#BF6969;stroke:#FFFFFF;}
	.st1{fill:#BF9C69;stroke:#FFFFFF;}
	.st2{fill:#AEBF69;stroke:#FFFFFF;}
	.st3{fill:#7ABF69;stroke:#FFFFFF;}
	.st4{fill:#69BF8B;stroke:#FFFFFF;}
	.st5{fill:#69BFBF;stroke:#FFFFFF;}
	.st6{fill:#698BBF;stroke:#FFFFFF;}
	.st7{fill:#7A69BF;stroke:#FFFFFF;}
	.st8{fill:#AE69BF;stroke:#FFFFFF;}
	.st9{fill:#BF699C;stroke:#FFFFFF;}
	.st10{fill:#F8F0DE;}
	.st11{clip-path:url(#SVGID_2_);}
	.st12{opacity:0.1;}
	.st13{fill:#161616;}
	.st14{opacity:0.15;}
	.st15{clip-path:url(#SVGID_4_);}
	.st16{opacity:0.33;}
	.st17{opacity:0.01;}
	.st18{fill:#F2F2F2;}
	.st19{opacity:0.53;}
	.st20{clip-path:url(#SVGID_6_);}
	.st21{fill:#FFFFFF;}
	.st22{fill:none;stroke:#FFFFFF;stroke-miterlimit:10;}
	.st23{fill:none;stroke:#FFFFFF;stroke-width:5;stroke-miterlimit:10;}
	.st24{fill:none;}
	.st25{fill:#DDDDDD;}
	.st26{fill:none;stroke:#E6E6E6;stroke-miterlimit:10;}
	.st27{fill:none;stroke:#FFFFFF;stroke-width:7;stroke-miterlimit:10;}
	.st28{fill:none;stroke:#FFFFFF;stroke-width:12;stroke-miterlimit:10;}
	.st29{opacity:0.89;}
	.st30{opacity:0.78;}
	.st31{fill:none;stroke:#FFFFFF;stroke-width:8;stroke-miterlimit:10;}
	.st32{fill:none;stroke:#FFFFFF;stroke-width:8;stroke-miterlimit:10;stroke-dasharray:11.2161,11.2161;}
	.st33{fill:none;stroke:#FFFFFF;stroke-width:8;stroke-miterlimit:10;stroke-dasharray:11.688,11.688;}
	.st34{fill:none;stroke:#FFFFFF;stroke-width:8;stroke-miterlimit:10;stroke-dasharray:6.4183,6.4183;}
	.st35{fill:#FFFFFF;stroke:#FFFFFF;stroke-width:4;stroke-miterlimit:10;}
	.st36{fill:none;stroke:#FFFFFF;stroke-width:4;stroke-linejoin:round;stroke-miterlimit:10;}
	.st37{opacity:0.75;}
	.st38{fill:none;stroke:#FFFFFF;stroke-width:8;stroke-linecap:round;}
	.st39{opacity:0.7;}
	.st40{opacity:0.87;}
	.st41{opacity:0.86;}
	.st42{fill:url(#SVGID_7_);}
	.st43{opacity:0.39;}
	.st44{opacity:0.51;}
	.st45{opacity:0.6;fill:none;stroke:#FFFFFF;stroke-width:2;stroke-linecap:round;stroke-miterlimit:10;}
	.st46{filter:url(#Adobe_OpacityMaskFilter);}
	.st47{mask:url(#SVGID_8_);}
	.st48{filter:url(#Adobe_OpacityMaskFilter_1_);}
	.st49{mask:url(#SVGID_9_);}
	.st50{filter:url(#Adobe_OpacityMaskFilter_2_);}
	.st51{mask:url(#SVGID_10_);}
	.st52{filter:url(#Adobe_OpacityMaskFilter_3_);}
	.st53{mask:url(#SVGID_11_);}
	.st54{filter:url(#Adobe_OpacityMaskFilter_4_);}
	.st55{mask:url(#SVGID_12_);}
	.st56{filter:url(#Adobe_OpacityMaskFilter_5_);}
	.st57{mask:url(#SVGID_13_);}
	.st58{filter:url(#Adobe_OpacityMaskFilter_6_);}
	.st59{mask:url(#SVGID_14_);}
	.st60{filter:url(#Adobe_OpacityMaskFilter_7_);}
	.st61{mask:url(#SVGID_15_);}
	.st62{filter:url(#Adobe_OpacityMaskFilter_8_);}
	.st63{mask:url(#SVGID_16_);}
	.st64{filter:url(#Adobe_OpacityMaskFilter_9_);}
	.st65{mask:url(#SVGID_17_);}
	.st66{filter:url(#Adobe_OpacityMaskFilter_10_);}
	.st67{mask:url(#SVGID_18_);}
	.st68{filter:url(#Adobe_OpacityMaskFilter_11_);}
	.st69{mask:url(#SVGID_19_);}
	.st70{filter:url(#Adobe_OpacityMaskFilter_12_);}
	.st71{mask:url(#SVGID_20_);}
	.st72{filter:url(#Adobe_OpacityMaskFilter_13_);}
	.st73{mask:url(#SVGID_21_);}
	.st74{filter:url(#Adobe_OpacityMaskFilter_14_);}
	.st75{mask:url(#SVGID_22_);}
	.st76{filter:url(#Adobe_OpacityMaskFilter_15_);}
	.st77{mask:url(#SVGID_23_);}
	.st78{filter:url(#Adobe_OpacityMaskFilter_16_);}
	.st79{mask:url(#SVGID_24_);}
	.st80{filter:url(#Adobe_OpacityMaskFilter_17_);}
	.st81{mask:url(#SVGID_25_);}
	.st82{filter:url(#Adobe_OpacityMaskFilter_18_);}
	.st83{mask:url(#SVGID_26_);}
	.st84{filter:url(#Adobe_OpacityMaskFilter_19_);}
	.st85{mask:url(#SVGID_27_);}
	.st86{clip-path:url(#SVGID_29_);}
	.st87{clip-path:url(#SVGID_31_);}
	.st88{fill:url(#SVGID_32_);}
	.st89{opacity:0.31;}
	.st90{filter:url(#Adobe_OpacityMaskFilter_20_);}
	.st91{mask:url(#SVGID_33_);}
	.st92{opacity:0.5;}
	.st93{filter:url(#Adobe_OpacityMaskFilter_21_);}
	.st94{mask:url(#SVGID_34_);}
	.st95{filter:url(#Adobe_OpacityMaskFilter_22_);}
	.st96{mask:url(#SVGID_35_);}
	.st97{filter:url(#Adobe_OpacityMaskFilter_23_);}
	.st98{mask:url(#SVGID_36_);}
	.st99{filter:url(#Adobe_OpacityMaskFilter_24_);}
	.st100{mask:url(#SVGID_37_);}
	.st101{filter:url(#Adobe_OpacityMaskFilter_25_);}
	.st102{mask:url(#SVGID_38_);}
	.st103{filter:url(#Adobe_OpacityMaskFilter_26_);}
	.st104{mask:url(#SVGID_39_);}
	.st105{filter:url(#Adobe_OpacityMaskFilter_27_);}
	.st106{mask:url(#SVGID_40_);}
	.st107{filter:url(#Adobe_OpacityMaskFilter_28_);}
	.st108{mask:url(#SVGID_41_);}
	.st109{filter:url(#Adobe_OpacityMaskFilter_29_);}
	.st110{mask:url(#SVGID_42_);}
	.st111{filter:url(#Adobe_OpacityMaskFilter_30_);}
	.st112{mask:url(#SVGID_43_);}
	.st113{opacity:0.85;}
	.st114{filter:url(#Adobe_OpacityMaskFilter_31_);}
	.st115{mask:url(#SVGID_44_);}
	.st116{filter:url(#Adobe_OpacityMaskFilter_32_);}
	.st117{mask:url(#SVGID_45_);}
	.st118{filter:url(#Adobe_OpacityMaskFilter_33_);}
	.st119{mask:url(#SVGID_46_);}
	.st120{filter:url(#Adobe_OpacityMaskFilter_34_);}
	.st121{mask:url(#SVGID_47_);}
	.st122{filter:url(#Adobe_OpacityMaskFilter_35_);}
	.st123{mask:url(#SVGID_48_);}
	.st124{filter:url(#Adobe_OpacityMaskFilter_36_);}
	.st125{mask:url(#SVGID_49_);}
	.st126{filter:url(#Adobe_OpacityMaskFilter_37_);}
	.st127{mask:url(#SVGID_50_);}
	.st128{filter:url(#Adobe_OpacityMaskFilter_38_);}
	.st129{mask:url(#SVGID_51_);}
	.st130{filter:url(#Adobe_OpacityMaskFilter_39_);}
	.st131{mask:url(#SVGID_52_);}
	.st132{filter:url(#Adobe_OpacityMaskFilter_40_);}
	.st133{mask:url(#SVGID_53_);}
	.st134{fill:url(#SVGID_54_);}
	.st135{filter:url(#Adobe_OpacityMaskFilter_41_);}
	.st136{mask:url(#SVGID_55_);}
	.st137{clip-path:url(#SVGID_57_);}
	.st138{fill:none;stroke:#000000;stroke-miterlimit:10;}
	.st139{fill:none;stroke:#DBDBDB;stroke-miterlimit:10;}
	.st140{fill:#DBDBDB;}
	.st141{fill:#1A1A1A;}
	.st142{fill:#E6E6E6;}
	.st143{clip-path:url(#SVGID_59_);}
	
		.st144{clip-path:url(#SVGID_61_);fill:none;stroke:#DFEDF5;stroke-width:1.3057;stroke-linecap:round;stroke-linejoin:round;stroke-miterlimit:10;}
	.st145{clip-path:url(#SVGID_61_);}
	.st146{opacity:0.8;}
	.st147{fill:#D9DAD8;}
	.st148{fill:#FFFFFF;stroke:#61A4CF;stroke-width:7.8123;stroke-miterlimit:10;}
	.st149{fill:#F8E2DE;stroke:#61A4CF;stroke-width:7.8123;stroke-miterlimit:10;}
	.st150{fill:#61A4CF;}
	.st151{opacity:0.13;}
	.st152{fill:none;stroke:#F8E2DE;stroke-width:44.3291;stroke-linecap:round;stroke-miterlimit:10;}
</style>
<g id="Layer_4">
</g>
<g id="Layer_1">
</g>
<g id="Layer_2">
	<g id="Layer_3">
	</g>
	<g>
		<g>
			<path class="st141" d="M71.75,91.16c0,3.09,0.36,3.54,3.39,3.9v0.48H63.5v-0.48c2.61-0.36,2.97-0.81,2.97-3.9V78.17
				c0-3.09-0.36-3.54-2.97-3.9v-0.48h4.83c0.3,0,5.04-0.03,5.25-0.03c6.18,0,10.62,1.29,10.62,6.21s-4.44,6.21-10.62,6.21h-1.83
				V91.16z M73.16,85.16c3.06,0,5.19-1.29,5.19-5.19s-2.13-5.19-5.19-5.19h-1.41v10.38H73.16z"/>
			<path class="st141" d="M89.9,95.93c-2.49,0-4.56-1.98-4.56-4.11c0-1.8,1.53-2.91,4.86-4.5c0.81-0.39,2.13-0.99,4.32-1.89v-0.87
				c0-3.18-0.66-4.17-2.34-4.17c-2.1,0-2.61,1.83-2.49,4.35h-4.02c-0.09-2.49,3-5.64,7.35-5.64c3.78,0,6.21,1.41,6.12,5.55
				l-0.15,6.87c-0.03,1.05,0.12,2.16,1.02,2.16c0.48,0,0.84-0.18,1.26-0.51l0.36,0.39c-0.78,1.08-2.13,2.31-3.99,2.31
				c-1.56,0-2.88-0.9-3.15-2.79C93.32,94.73,92.06,95.93,89.9,95.93z M94.46,86.63c-1.74,0.63-2.49,1.05-3.03,1.38
				c-1.17,0.72-1.62,1.56-1.62,2.46c0,1.5,0.93,2.88,2.52,2.88c0.75,0,1.38-0.27,2.04-1.02L94.46,86.63z"/>
			<path class="st141" d="M110.51,79.07c1.89,0,3.63,0.45,4.92,1.32h4.8v1.41h-3.42c0.45,0.72,0.72,1.59,0.72,2.58
				c0,3.6-3.24,5.34-7.02,5.34c-0.78,0-1.53-0.06-2.25-0.21c-0.93,0.99-1.5,1.5-1.5,2.1c0,0.54,0.27,1.05,2.01,1.11l3.3,0.12
				c3.6,0.12,7.05,1.08,7.05,3.87c0,3.18-3.78,5.61-9.66,5.61c-4.11,0-7.05-1.2-7.05-3.18c0-1.11,1.74-2.16,3.51-2.82
				c-1.5-0.51-2.19-1.5-2.19-2.61c0-1.5,1.86-3.12,3.48-4.5c-2.16-0.78-3.69-2.34-3.69-4.83C103.52,80.81,106.76,79.07,110.51,79.07
				z M108.2,96.68c-0.57-0.03-1.08-0.06-1.53-0.15c-0.45,0.45-0.66,1.02-0.66,1.68c0,1.86,2.64,2.64,5.22,2.64
				c2.76,0,5.31-0.75,5.31-2.22c0-1.35-1.56-1.71-4.26-1.8L108.2,96.68z M112.91,85.82c0-2.76-0.84-5.76-2.79-5.76
				c-1.38,0-2.01,0.87-2.01,2.91c0,2.76,0.81,5.76,2.79,5.76C112.28,88.73,112.91,87.86,112.91,85.82z"/>
			<path class="st141" d="M121.31,88.07c0-5.07,3.63-8.94,7.95-8.94c3.96,0,6.66,2.37,6.81,6.42h-10.53c0,0.24-0.03,0.48-0.03,0.72
				c0,3.96,2.49,6.18,5.76,6.18c1.53,0,3.3-0.57,4.26-1.56l0.36,0.3c-1.17,2.07-3.57,4.74-7.14,4.74
				C124.04,95.93,121.31,92.51,121.31,88.07z M125.6,84.35h5.97c-0.06-2.34-1.02-3.96-2.79-3.96
				C126.92,80.39,125.81,81.92,125.6,84.35z"/>
			<path class="st141" d="M144.02,73.46v-0.48l7.02-2.13c-0.03,1.56-0.12,3.72-0.12,6.72v13.89c0,3,0.03,3.33,2.04,3.6v0.48h-8.94
				v-0.48c2.01-0.27,2.04-0.6,2.04-3.6v-15C146.06,73.82,146,73.55,144.02,73.46z"/>
			<path class="st141" d="M159.56,95.93c-2.49,0-4.56-1.98-4.56-4.11c0-1.8,1.53-2.91,4.86-4.5c0.81-0.39,2.13-0.99,4.32-1.89v-0.87
				c0-3.18-0.66-4.17-2.34-4.17c-2.1,0-2.61,1.83-2.49,4.35h-4.02c-0.09-2.49,3-5.64,7.35-5.64c3.78,0,6.21,1.41,6.12,5.55
				l-0.15,6.87c-0.03,1.05,0.12,2.16,1.02,2.16c0.48,0,0.84-0.18,1.26-0.51l0.36,0.39c-0.78,1.08-2.13,2.31-3.99,2.31
				c-1.56,0-2.88-0.9-3.15-2.79C162.98,94.73,161.72,95.93,159.56,95.93z M164.12,86.63c-1.74,0.63-2.49,1.05-3.03,1.38
				c-1.17,0.72-1.62,1.56-1.62,2.46c0,1.5,0.93,2.88,2.52,2.88c0.75,0,1.38-0.27,2.04-1.02L164.12,86.63z"/>
			<path class="st141" d="M179.36,95.93l-6.48-14.07c-0.54-1.14-0.9-1.8-2.01-2.01V79.4h9.18v0.45c-2.07,0.36-2.13,0.93-1.56,2.37
				l3.21,7.98l2.4-6.54c0.99-2.67,1.23-3.3-0.96-3.81V79.4h5.58v0.45c-1.68,0.42-2.04,0.63-2.85,2.79l-5.64,14.82
				c-1.08,2.82-1.98,4.74-4.38,4.74c-1.35,0-2.79-0.72-2.79-2.13c0-0.93,0.66-1.95,1.74-1.95c0.42,0,0.66,0.09,1.11,0.54l1.53,1.53
				c0.45-0.78,1.08-2.07,1.5-3.15L179.36,95.93z"/>
			<path class="st141" d="M205.73,87.53c0,4.53-3.36,8.4-8.4,8.4c-4.89,0-8.34-3.48-8.34-8.61c0-4.23,3.33-8.19,8.34-8.19
				C202.07,79.13,205.73,82.55,205.73,87.53z M194.12,86.45c0,3.12,0.57,8.43,3.6,8.43c2.37,0,2.88-3.27,2.88-6.45
				c0-2.94-0.54-8.25-3.54-8.25C194.72,80.18,194.12,83.09,194.12,86.45z"/>
			<path class="st141" d="M222.83,90.14c0,2.64,0.06,2.91,2.04,3v0.48l-6.33,2.19l-0.51-3.09c-0.81,1.65-2.19,3.21-4.53,3.21
				c-2.58,0-4.74-1.56-4.74-5.64V84.5c0-2.1,0-3.33-2.04-3.45v-0.42l7.02-1.23c-0.03,1.53-0.12,3.39-0.12,6.36v3.66
				c0,2.22,0.69,3.57,2.22,3.57c0.81,0,1.53-0.27,2.13-0.99v-7.5c0-2.1,0-3.33-2.04-3.45v-0.42l7.02-1.23
				c-0.03,1.53-0.12,3.54-0.12,6.51V90.14z"/>
			<path class="st141" d="M228.65,90.8v-9.9h-2.43v-1.5h2.52v-1.59l4.77-3.99v5.58h3.96v1.5h-3.96v9.06c0,2.88,0.48,3.39,1.92,3.39
				c0.6,0,1.35-0.21,2.19-0.87l0.33,0.3c-1.14,1.47-2.46,3.15-5.01,3.15C230.48,95.93,228.65,94.85,228.65,90.8z"/>
			<path class="st141" d="M262.55,79.13c3.69,0,6.09,3.42,6.09,7.77c0,5.52-3.69,9.03-7.74,9.03c-1.11,0-2.43-0.45-3.03-1.08v3.09
				c0,3,0.36,3.33,3.03,3.6v0.48h-9.93v-0.48c2.01-0.27,2.04-0.6,2.04-3.6v-13.2c0-2.64-0.06-2.91-2.04-3v-0.48l6.75-2.1v3.09
				C258.38,80.93,260.12,79.13,262.55,79.13z M263.75,89.24c0-3.51-1.47-6.99-3.99-6.99c-0.84,0-1.5,0.21-1.89,0.72v10.32
				c0.45,0.9,1.5,1.56,2.61,1.56C262.4,94.85,263.75,93.05,263.75,89.24z"/>
			<path class="st141" d="M277.37,91.46c0,3,0.15,3.33,2.46,3.6v0.48h-9.36v-0.48c2.01-0.27,2.04-0.6,2.04-3.6v-6.72
				c0-2.64-0.06-2.91-2.04-3v-0.48l6.72-2.1l0.09,3.42c1.11-1.44,2.49-3.36,4.38-3.36c1.59,0,2.7,0.99,2.7,2.64
				c0,1.8-1.2,2.88-2.4,2.88c-0.72,0-0.9-0.12-1.35-0.72l-0.87-1.17c-0.42-0.57-0.54-0.6-0.78-0.6c-0.39,0-1.05,0.45-1.59,1.2V91.46
				z"/>
			<path class="st141" d="M301.75,87.53c0,4.53-3.36,8.4-8.4,8.4c-4.89,0-8.34-3.48-8.34-8.61c0-4.23,3.33-8.19,8.34-8.19
				C298.1,79.13,301.75,82.55,301.75,87.53z M290.15,86.45c0,3.12,0.57,8.43,3.6,8.43c2.37,0,2.88-3.27,2.88-6.45
				c0-2.94-0.54-8.25-3.54-8.25C290.75,80.18,290.15,83.09,290.15,86.45z"/>
			<path class="st141" d="M313.45,83.51l-1.17-2.49c-0.24-0.48-0.45-0.63-0.87-0.63c-1.05,0-3.33,1.44-3.33,5.49
				c0,3.63,1.71,6.57,5.34,6.57c1.44,0,2.7-0.54,3.66-1.35l0.36,0.3c-1.08,1.8-2.82,4.53-6.3,4.53c-4.47,0-7.35-3.21-7.35-7.95
				c0-5.19,4.23-8.85,8.34-8.85c2.94,0,5.28,1.5,5.28,3.42c0,1.17-1.02,2.04-2.28,2.04C314.48,84.59,313.85,84.35,313.45,83.51z"/>
			<path class="st141" d="M319.55,88.07c0-5.07,3.63-8.94,7.95-8.94c3.96,0,6.66,2.37,6.81,6.42h-10.53c0,0.24-0.03,0.48-0.03,0.72
				c0,3.96,2.49,6.18,5.76,6.18c1.53,0,3.3-0.57,4.26-1.56l0.36,0.3c-1.17,2.07-3.57,4.74-7.14,4.74
				C322.28,95.93,319.55,92.51,319.55,88.07z M323.84,84.35h5.97c-0.06-2.34-1.02-3.96-2.79-3.96
				C325.16,80.39,324.05,81.92,323.84,84.35z"/>
			<path class="st141" d="M348.11,79.76v4.8h-0.54c-0.66-3.33-3.03-4.32-4.77-4.32c-1.41,0-2.16,0.72-2.16,1.62
				c0,1.08,0.66,1.8,2.19,2.55l1.8,0.87c3.36,1.62,4.65,3.24,4.65,5.52c0,3.48-3.57,5.13-6.75,5.13c-1.59,0-3.63-0.3-5.07-0.93v-5.4
				H338c1.05,3.84,2.94,5.07,5.16,5.07c1.2,0,2.49-0.54,2.49-1.83c0-1.08-0.6-1.89-2.79-2.94l-1.62-0.78
				c-2.37-1.14-3.84-3.03-3.84-5.43c0-3,2.79-4.62,6.06-4.62C345.17,79.07,346.97,79.34,348.11,79.76z"/>
			<path class="st141" d="M363.34,79.76v4.8h-0.54c-0.66-3.33-3.03-4.32-4.77-4.32c-1.41,0-2.16,0.72-2.16,1.62
				c0,1.08,0.66,1.8,2.19,2.55l1.8,0.87c3.36,1.62,4.65,3.24,4.65,5.52c0,3.48-3.57,5.13-6.75,5.13c-1.59,0-3.63-0.3-5.07-0.93v-5.4
				h0.54c1.05,3.84,2.94,5.07,5.16,5.07c1.2,0,2.49-0.54,2.49-1.83c0-1.08-0.6-1.89-2.79-2.94l-1.62-0.78
				c-2.37-1.14-3.84-3.03-3.84-5.43c0-3,2.79-4.62,6.06-4.62C360.4,79.07,362.2,79.34,363.34,79.76z"/>
		</g>
	</g>
	<g>
		<g>
			<path class="st141" d="M72.25,283.32c2.64,0,4.18-1.62,5.04-3.62l0.58,0.2c-0.62,1.82-2.32,4.3-6.14,4.3
				c-4.04,0-7.78-2.68-7.78-7.54c0-4.86,3.78-7.62,8.02-7.62c1.86,0,3.66,0.4,4.62,0.84l0.58,4.62h-0.42
				c-0.72-2.02-2.2-4.68-4.8-4.68c-2.48,0-4.1,2.66-4.1,6.84C67.85,280.76,69.29,283.32,72.25,283.32z"/>
			<path class="st141" d="M90.05,278.6c0,3.02-2.24,5.6-5.6,5.6c-3.26,0-5.56-2.32-5.56-5.74c0-2.82,2.22-5.46,5.56-5.46
				C87.61,273,90.05,275.28,90.05,278.6z M82.31,277.88c0,2.08,0.38,5.62,2.4,5.62c1.58,0,1.92-2.18,1.92-4.3
				c0-1.96-0.36-5.5-2.36-5.5C82.71,273.7,82.31,275.64,82.31,277.88z"/>
			<path class="st141" d="M91.31,269.22v-0.32l4.68-1.42c-0.02,1.04-0.08,2.48-0.08,4.48v9.26c0,2,0.02,2.22,1.36,2.4v0.32h-5.96
				v-0.32c1.34-0.18,1.36-0.4,1.36-2.4v-10C92.67,269.46,92.63,269.28,91.31,269.22z"/>
			<path class="st141" d="M98.47,269.22v-0.32l4.68-1.42c-0.02,1.04-0.08,2.48-0.08,4.48v9.26c0,2,0.02,2.22,1.36,2.4v0.32h-5.96
				v-0.32c1.34-0.18,1.36-0.4,1.36-2.4v-10C99.83,269.46,99.79,269.28,98.47,269.22z"/>
			<path class="st141" d="M105.53,278.96c0-3.38,2.42-5.96,5.3-5.96c2.64,0,4.44,1.58,4.54,4.28h-7.02c0,0.16-0.02,0.32-0.02,0.48
				c0,2.64,1.66,4.12,3.84,4.12c1.02,0,2.2-0.38,2.84-1.04l0.24,0.2c-0.78,1.38-2.38,3.16-4.76,3.16
				C107.35,284.2,105.53,281.92,105.53,278.96z M108.39,276.48h3.98c-0.04-1.56-0.68-2.64-1.86-2.64
				C109.27,273.84,108.53,274.86,108.39,276.48z"/>
			<path class="st141" d="M123.51,275.92l-0.78-1.66c-0.16-0.32-0.3-0.42-0.58-0.42c-0.7,0-2.22,0.96-2.22,3.66
				c0,2.42,1.14,4.38,3.56,4.38c0.96,0,1.8-0.36,2.44-0.9l0.24,0.2c-0.72,1.2-1.88,3.02-4.2,3.02c-2.98,0-4.9-2.14-4.9-5.3
				c0-3.46,2.82-5.9,5.56-5.9c1.96,0,3.52,1,3.52,2.28c0,0.78-0.68,1.36-1.52,1.36C124.19,276.64,123.77,276.48,123.51,275.92z"/>
			<path class="st141" d="M128.79,280.78v-6.6h-1.62v-1h1.68v-1.06l3.18-2.66v3.72h2.64v1h-2.64v6.04c0,1.92,0.32,2.26,1.28,2.26
				c0.4,0,0.9-0.14,1.46-0.58l0.22,0.2c-0.76,0.98-1.64,2.1-3.34,2.1C130.01,284.2,128.79,283.48,128.79,280.78z"/>
			<path class="st141" d="M141.29,280.78v-6.6h-1.62v-1h1.68v-1.06l3.18-2.66v3.72h2.64v1h-2.64v6.04c0,1.92,0.32,2.26,1.28,2.26
				c0.4,0,0.9-0.14,1.46-0.58l0.22,0.2c-0.76,0.98-1.64,2.1-3.34,2.1C142.51,284.2,141.29,283.48,141.29,280.78z"/>
			<path class="st141" d="M152.87,271.96v3.12c0.5-0.92,1.44-2.08,3.2-2.08c1.64,0,3.08,1.14,3.08,3.8v4.42c0,2,0.02,2.22,1.36,2.4
				v0.32h-5.72v-0.32c1.1-0.18,1.12-0.4,1.12-2.4v-3.84c0-1.48-0.64-2.28-1.64-2.28c-0.64,0-1.1,0.24-1.4,0.54v5.58
				c0,2,0.02,2.22,1.36,2.4v0.32h-5.96v-0.32c1.34-0.18,1.36-0.4,1.36-2.4v-10c0-1.76-0.04-1.94-1.36-2v-0.32l4.68-1.42
				C152.93,268.52,152.87,269.96,152.87,271.96z"/>
			<path class="st141" d="M161.45,278.96c0-3.38,2.42-5.96,5.3-5.96c2.64,0,4.44,1.58,4.54,4.28h-7.02c0,0.16-0.02,0.32-0.02,0.48
				c0,2.64,1.66,4.12,3.84,4.12c1.02,0,2.2-0.38,2.84-1.04l0.24,0.2c-0.78,1.38-2.38,3.16-4.76,3.16
				C163.27,284.2,161.45,281.92,161.45,278.96z M164.31,276.48h3.98c-0.04-1.56-0.68-2.64-1.86-2.64
				C165.19,273.84,164.45,274.86,164.31,276.48z"/>
			<path class="st141" d="M176.43,274.42l4.48-1.4l0.08,2.08c0.6-1.02,1.48-2.1,3.24-2.1c1.64,0,3.08,1.14,3.08,3.8v4.42
				c0,2,0.02,2.22,1.36,2.4v0.32h-5.72v-0.32c1.1-0.18,1.12-0.4,1.12-2.4v-3.84c0-1.48-0.64-2.28-1.64-2.28
				c-0.64,0-1.1,0.24-1.4,0.54v5.58c0,2,0.02,2.22,1.14,2.4v0.32h-5.74v-0.32c1.34-0.18,1.36-0.4,1.36-2.4v-4.48
				c0-1.76-0.04-1.94-1.36-2V274.42z"/>
			<path class="st141" d="M192.71,284.2c-1.66,0-3.04-1.32-3.04-2.74c0-1.2,1.02-1.94,3.24-3c0.54-0.26,1.42-0.66,2.88-1.26v-0.58
				c0-2.12-0.44-2.78-1.56-2.78c-1.4,0-1.74,1.22-1.66,2.9h-2.68c-0.06-1.66,2-3.76,4.9-3.76c2.52,0,4.14,0.94,4.08,3.7l-0.1,4.58
				c-0.02,0.7,0.08,1.44,0.68,1.44c0.32,0,0.56-0.12,0.84-0.34l0.24,0.26c-0.52,0.72-1.42,1.54-2.66,1.54c-1.04,0-1.92-0.6-2.1-1.86
				C194.99,283.4,194.15,284.2,192.71,284.2z M195.75,278c-1.16,0.42-1.66,0.7-2.02,0.92c-0.78,0.48-1.08,1.04-1.08,1.64
				c0,1,0.62,1.92,1.68,1.92c0.5,0,0.92-0.18,1.36-0.68L195.75,278z"/>
			<path class="st141" d="M213.43,283.62v0.32h-5.72v-0.32c1.1-0.18,1.12-0.4,1.12-2.4v-3.84c0-1.48-0.64-2.28-1.64-2.28
				c-0.64,0-1.1,0.24-1.4,0.54v5.58c0,2,0.02,2.22,1.14,2.4v0.32h-5.74v-0.32c1.34-0.18,1.36-0.4,1.36-2.4v-4.48
				c0-1.76-0.04-1.94-1.36-2v-0.32l4.48-1.4l0.08,2.08c0.6-1.02,1.48-2.1,3.24-2.1c1.26,0,2.4,0.68,2.86,2.22
				c0.62-1.02,1.68-2.22,3.42-2.22c1.64,0,3.08,1.14,3.08,3.8v4.42c0,2,0.02,2.22,1.36,2.4v0.32h-5.72v-0.32
				c1.1-0.18,1.12-0.4,1.12-2.4v-3.84c0-1.48-0.64-2.28-1.64-2.28c-0.58,0-1.18,0.24-1.5,0.58c0.06,0.34,0.1,0.72,0.1,1.12v4.42
				C212.07,283.22,212.09,283.44,213.43,283.62z"/>
			<path class="st141" d="M220.65,278.96c0-3.38,2.42-5.96,5.3-5.96c2.64,0,4.44,1.58,4.54,4.28h-7.02c0,0.16-0.02,0.32-0.02,0.48
				c0,2.64,1.66,4.12,3.84,4.12c1.02,0,2.2-0.38,2.84-1.04l0.24,0.2c-0.78,1.38-2.38,3.16-4.76,3.16
				C222.47,284.2,220.65,281.92,220.65,278.96z M223.51,276.48h3.98c-0.04-1.56-0.68-2.64-1.86-2.64
				C224.39,273.84,223.65,274.86,223.51,276.48z"/>
			<path class="st141" d="M239.69,273.42v3.2h-0.36c-0.44-2.22-2.02-2.88-3.18-2.88c-0.94,0-1.44,0.48-1.44,1.08
				c0,0.72,0.44,1.2,1.46,1.7l1.2,0.58c2.24,1.08,3.1,2.16,3.1,3.68c0,2.32-2.38,3.42-4.5,3.42c-1.06,0-2.42-0.2-3.38-0.62v-3.6
				h0.36c0.7,2.56,1.96,3.38,3.44,3.38c0.8,0,1.66-0.36,1.66-1.22c0-0.72-0.4-1.26-1.86-1.96l-1.08-0.52
				c-1.58-0.76-2.56-2.02-2.56-3.62c0-2,1.86-3.08,4.04-3.08C237.73,272.96,238.93,273.14,239.69,273.42z"/>
			<path class="st141" d="M74.89,302.6c0,3.02-2.24,5.6-5.6,5.6c-3.26,0-5.56-2.32-5.56-5.74c0-2.82,2.22-5.46,5.56-5.46
				C72.45,297,74.89,299.28,74.89,302.6z M67.15,301.88c0,2.08,0.38,5.62,2.4,5.62c1.58,0,1.92-2.18,1.92-4.3
				c0-1.96-0.36-5.5-2.36-5.5C67.55,297.7,67.15,299.64,67.15,301.88z"/>
			<path class="st141" d="M81.83,293.42c-0.28-0.4-0.38-0.54-0.64-0.54c-0.66,0-2.3,1.12-0.56,4.3h3.08v1h-3.02v7.04
				c0,2,0.24,2.22,2.02,2.4v0.32h-6.62v-0.32c1.34-0.18,1.36-0.4,1.36-2.4v-7.04h-1.36v-1h1.36v-0.08c0-3.1,2.66-5.18,5-5.18
				c1.6,0,2.54,0.94,2.54,1.86c0,0.84-0.58,1.32-1.28,1.32c-0.46,0-0.8-0.1-1.08-0.52L81.83,293.42z"/>
			<path class="st141" d="M94.11,293.42c-0.28-0.4-0.38-0.54-0.64-0.54c-0.66,0-2.3,1.12-0.56,4.3h3.08v1h-3.02v7.04
				c0,2,0.24,2.22,2.02,2.4v0.32h-6.62v-0.32c1.34-0.18,1.36-0.4,1.36-2.4v-7.04h-1.36v-1h1.36v-0.08c0-3.1,2.66-5.18,5-5.18
				c1.6,0,2.54,0.94,2.54,1.86c0,0.84-0.58,1.32-1.28,1.32c-0.46,0-0.8-0.1-1.08-0.52L94.11,293.42z"/>
			<path class="st141" d="M101.25,305.22c0,2,0.02,2.22,1.36,2.4v0.32h-5.96v-0.32c1.34-0.18,1.36-0.4,1.36-2.4v-4.48
				c0-1.76-0.04-1.94-1.36-2v-0.32l4.68-1.42c-0.02,1.04-0.08,2.48-0.08,4.48V305.22z M97.73,293.26c0-1.04,0.88-1.9,1.96-1.9
				c1.06,0,1.94,0.86,1.94,1.9c0,1.08-0.88,1.96-1.94,1.96C98.61,295.22,97.73,294.34,97.73,293.26z"/>
			<path class="st141" d="M103.71,293.22v-0.32l4.68-1.42c-0.02,1.04-0.08,2.48-0.08,4.48v9.26c0,2,0.02,2.22,1.36,2.4v0.32h-5.96
				v-0.32c1.34-0.18,1.36-0.4,1.36-2.4v-10C105.07,293.46,105.03,293.28,103.71,293.22z"/>
			<path class="st141" d="M122.95,307.62v0.32h-5.72v-0.32c1.1-0.18,1.12-0.4,1.12-2.4v-3.84c0-1.48-0.64-2.28-1.64-2.28
				c-0.64,0-1.1,0.24-1.4,0.54v5.58c0,2,0.02,2.22,1.14,2.4v0.32h-5.74v-0.32c1.34-0.18,1.36-0.4,1.36-2.4v-4.48
				c0-1.76-0.04-1.94-1.36-2v-0.32l4.48-1.4l0.08,2.08c0.6-1.02,1.48-2.1,3.24-2.1c1.26,0,2.4,0.68,2.86,2.22
				c0.62-1.02,1.68-2.22,3.42-2.22c1.64,0,3.08,1.14,3.08,3.8v4.42c0,2,0.02,2.22,1.36,2.4v0.32h-5.72v-0.32
				c1.1-0.18,1.12-0.4,1.12-2.4v-3.84c0-1.48-0.64-2.28-1.64-2.28c-0.58,0-1.18,0.24-1.5,0.58c0.06,0.34,0.1,0.72,0.1,1.12v4.42
				C121.59,307.22,121.61,307.44,122.95,307.62z"/>
			<path class="st141" d="M137.77,297.42v3.2h-0.36c-0.44-2.22-2.02-2.88-3.18-2.88c-0.94,0-1.44,0.48-1.44,1.08
				c0,0.72,0.44,1.2,1.46,1.7l1.2,0.58c2.24,1.08,3.1,2.16,3.1,3.68c0,2.32-2.38,3.42-4.5,3.42c-1.06,0-2.42-0.2-3.38-0.62v-3.6
				h0.36c0.7,2.56,1.96,3.38,3.44,3.38c0.8,0,1.66-0.36,1.66-1.22c0-0.72-0.4-1.26-1.86-1.96l-1.08-0.52
				c-1.58-0.76-2.56-2.02-2.56-3.62c0-2,1.86-3.08,4.04-3.08C135.81,296.96,137.01,297.14,137.77,297.42z"/>
			<path class="st141" d="M149.91,293.42c-0.28-0.4-0.38-0.54-0.64-0.54c-0.66,0-2.3,1.12-0.56,4.3h3.08v1h-3.02v7.04
				c0,2,0.24,2.22,2.02,2.4v0.32h-6.62v-0.32c1.34-0.18,1.36-0.4,1.36-2.4v-7.04h-1.36v-1h1.36v-0.08c0-3.1,2.66-5.18,5-5.18
				c1.6,0,2.54,0.94,2.54,1.86c0,0.84-0.58,1.32-1.28,1.32c-0.46,0-0.8-0.1-1.08-0.52L149.91,293.42z"/>
			<path class="st141" d="M157.05,305.22c0,2,0.1,2.22,1.64,2.4v0.32h-6.24v-0.32c1.34-0.18,1.36-0.4,1.36-2.4v-4.48
				c0-1.76-0.04-1.94-1.36-2v-0.32l4.48-1.4l0.06,2.28c0.74-0.96,1.66-2.24,2.92-2.24c1.06,0,1.8,0.66,1.8,1.76
				c0,1.2-0.8,1.92-1.6,1.92c-0.48,0-0.6-0.08-0.9-0.48l-0.58-0.78c-0.28-0.38-0.36-0.4-0.52-0.4c-0.26,0-0.7,0.3-1.06,0.8V305.22z"
				/>
			<path class="st141" d="M173.31,302.6c0,3.02-2.24,5.6-5.6,5.6c-3.26,0-5.56-2.32-5.56-5.74c0-2.82,2.22-5.46,5.56-5.46
				C170.87,297,173.31,299.28,173.31,302.6z M165.57,301.88c0,2.08,0.38,5.62,2.4,5.62c1.58,0,1.92-2.18,1.92-4.3
				c0-1.96-0.36-5.5-2.36-5.5C165.97,297.7,165.57,299.64,165.57,301.88z"/>
			<path class="st141" d="M186.65,307.62v0.32h-5.72v-0.32c1.1-0.18,1.12-0.4,1.12-2.4v-3.84c0-1.48-0.64-2.28-1.64-2.28
				c-0.64,0-1.1,0.24-1.4,0.54v5.58c0,2,0.02,2.22,1.14,2.4v0.32h-5.74v-0.32c1.34-0.18,1.36-0.4,1.36-2.4v-4.48
				c0-1.76-0.04-1.94-1.36-2v-0.32l4.48-1.4l0.08,2.08c0.6-1.02,1.48-2.1,3.24-2.1c1.26,0,2.4,0.68,2.86,2.22
				c0.62-1.02,1.68-2.22,3.42-2.22c1.64,0,3.08,1.14,3.08,3.8v4.42c0,2,0.02,2.22,1.36,2.4v0.32h-5.72v-0.32
				c1.1-0.18,1.12-0.4,1.12-2.4v-3.84c0-1.48-0.64-2.28-1.64-2.28c-0.58,0-1.18,0.24-1.5,0.58c0.06,0.34,0.1,0.72,0.1,1.12v4.42
				C185.29,307.22,185.31,307.44,186.65,307.62z"/>
			<path class="st141" d="M205.43,300.96l-1.96,6.98h-2.48l-2.52-9.08c-0.22-0.8-0.38-1.12-1.3-1.38v-0.3h6v0.3
				c-1.38,0.24-1.38,0.6-1.12,1.62l1.44,5.64l2.02-7.56h2.08l2.1,7.68l1.22-4.84c0.54-2.16,0.12-2.26-0.86-2.54v-0.3h3.72v0.3
				c-1.12,0.28-1.34,0.38-1.72,1.86l-2.24,8.6h-2.48L205.43,300.96z"/>
			<path class="st141" d="M218.91,305.22c0,2,0.02,2.22,1.36,2.4v0.32h-5.96v-0.32c1.34-0.18,1.36-0.4,1.36-2.4v-4.48
				c0-1.76-0.04-1.94-1.36-2v-0.32l4.68-1.42c-0.02,1.04-0.08,2.48-0.08,4.48V305.22z M215.39,293.26c0-1.04,0.88-1.9,1.96-1.9
				c1.06,0,1.94,0.86,1.94,1.9c0,1.08-0.88,1.96-1.94,1.96C216.27,295.22,215.39,294.34,215.39,293.26z"/>
			<path class="st141" d="M221.17,293.22v-0.32l4.68-1.42c-0.02,1.04-0.08,2.48-0.08,4.48v9.26c0,2,0.02,2.22,1.28,2.4v0.32h-5.88
				v-0.32c1.34-0.18,1.36-0.4,1.36-2.4v-10C222.53,293.46,222.49,293.28,221.17,293.22z M228.09,307.62
				c1.2-0.14,1.38-0.42,0.66-1.36l-2.96-3.84l3.6-3.2c1.16-1.04,1.54-1.58-0.18-1.72v-0.32h4.32v0.32c-1.36,0.08-1.88,0.6-3.12,1.7
				l-1.98,1.74l4.26,5.56c0.62,0.8,0.98,1,1.86,1.12v0.32h-6.46V307.62z"/>
			<path class="st141" d="M239.69,305.22c0,2,0.02,2.22,1.36,2.4v0.32h-5.96v-0.32c1.34-0.18,1.36-0.4,1.36-2.4v-4.48
				c0-1.76-0.04-1.94-1.36-2v-0.32l4.68-1.42c-0.02,1.04-0.08,2.48-0.08,4.48V305.22z M236.17,293.26c0-1.04,0.88-1.9,1.96-1.9
				c1.06,0,1.94,0.86,1.94,1.9c0,1.08-0.88,1.96-1.94,1.96C237.05,295.22,236.17,294.34,236.17,293.26z"/>
		</g>
	</g>
	<g>
		<g>
			<path class="st141" d="M133.26,174.88c1.22-0.17,1.39-0.21,1.39-1.79v-6.07c0-1.58-0.17-1.62-1.39-1.79v-0.25h5.29
				c0.85,0,2.06,0,3.1-0.04l0.41,3.07h-0.25c-0.8-2.49-1.89-2.52-4.45-2.52h-1.16v4.1h2.02c0.8,0,1.3-0.39,1.44-1.57h0.25v3.75
				h-0.25c-0.14-1.18-0.64-1.57-1.44-1.57h-2.02v2.9c0,1.39,0.03,1.65,1.51,1.77v0.27h-4.44V174.88z"/>
			<path class="st141" d="M145.17,173.12c0,1.44,0.01,1.64,1.12,1.77v0.25h-3.64v-0.25c1.11-0.13,1.12-0.32,1.12-1.77v-3.15
				c0-1.39,0-1.39-1.12-1.39v-0.25l2.55-0.85c-0.01,0.74-0.03,1.62-0.03,3.07V173.12z M143.41,164.78c0-0.53,0.45-0.95,0.99-0.95
				c0.56,0,0.98,0.42,0.98,0.95c0,0.55-0.42,0.95-0.98,0.95C143.86,165.73,143.41,165.33,143.41,164.78z"/>
			<path class="st141" d="M147.38,164.71v-0.25l2.55-0.85c-0.01,0.74-0.03,1.62-0.03,3.07v6.44c0,1.44,0.01,1.64,1.12,1.77v0.25
				h-3.64v-0.25c1.11-0.13,1.12-0.32,1.12-1.77v-7.02C148.5,164.71,148.5,164.71,147.38,164.71z"/>
			<path class="st141" d="M151.75,168.33l2.49-0.85l0.03,1.26c0.5-0.6,1.19-1.26,2.23-1.26c0.91,0,1.67,0.46,1.99,1.48
				c0.57-0.77,1.4-1.48,2.4-1.48c1.22,0,2.16,0.81,2.16,2.66v2.98c0,1.44,0.01,1.64,1.12,1.77v0.25h-3.64v-0.25
				c1.11-0.13,1.12-0.32,1.12-1.77v-2.7c0-1.33-0.48-1.96-1.46-1.96c-0.56,0-1.22,0.28-1.61,0.8c0.06,0.27,0.08,0.56,0.08,0.88v2.98
				c0,1.44,0.01,1.64,1.12,1.77v0.25h-3.64v-0.25c1.11-0.13,1.12-0.32,1.12-1.77v-2.7c0-1.33-0.48-1.96-1.46-1.96
				c-0.57,0-1.22,0.2-1.53,0.66v4.01c0,1.44,0.01,1.64,1.12,1.77v0.25h-3.64v-0.25c1.11-0.13,1.12-0.32,1.12-1.77v-3.15
				c0-1.39,0-1.39-1.12-1.39V168.33z"/>
		</g>
	</g>
	<g>
		<g>
			<path class="st141" d="M79.37,513.76v0.32c-1.52,0.24-1.34,0.52-1.34,2.6v2.44c-1.34,0.94-3.8,1.54-6.18,1.54
				c-4.36,0-7.9-2.68-7.9-7.54c0-4.86,4.06-7.62,8.3-7.62c1.5,0,3.56,0.26,4.76,0.8l0.48,4.66h-0.42c-0.72-2.02-2.24-4.68-4.84-4.68
				c-2.48,0-4.38,2.66-4.38,6.84c0,4.1,1.62,6.76,4.46,6.76c1.2,0,2.26-0.24,2.26-1.66v-1.54c0-2.06-0.24-2.36-1.98-2.6v-0.32H79.37
				z"/>
			<path class="st141" d="M80.97,515.42c0-3.38,2.42-5.96,5.3-5.96c2.64,0,4.44,1.58,4.54,4.28h-7.02c0,0.16-0.02,0.32-0.02,0.48
				c0,2.64,1.66,4.12,3.84,4.12c1.02,0,2.2-0.38,2.84-1.04l0.24,0.2c-0.78,1.38-2.38,3.16-4.76,3.16
				C82.79,520.67,80.97,518.39,80.97,515.42z M83.83,512.94h3.98c-0.04-1.56-0.68-2.64-1.86-2.64
				C84.71,510.3,83.97,511.32,83.83,512.94z"/>
			<path class="st141" d="M93.43,517.24v-6.6h-1.62v-1h1.68v-1.06l3.18-2.66v3.72h2.64v1h-2.64v6.04c0,1.92,0.32,2.26,1.28,2.26
				c0.4,0,0.9-0.14,1.46-0.58l0.22,0.2c-0.76,0.98-1.64,2.1-3.34,2.1C94.65,520.67,93.43,519.95,93.43,517.24z"/>
			<path class="st141" d="M105.93,517.24v-6.6h-1.62v-1h1.68v-1.06l3.18-2.66v3.72h2.64v1h-2.64v6.04c0,1.92,0.32,2.26,1.28,2.26
				c0.4,0,0.9-0.14,1.46-0.58l0.22,0.2c-0.76,0.98-1.64,2.1-3.34,2.1C107.15,520.67,105.93,519.95,105.93,517.24z"/>
			<path class="st141" d="M117.51,508.42v3.12c0.5-0.92,1.44-2.08,3.2-2.08c1.64,0,3.08,1.14,3.08,3.8v4.42c0,2,0.02,2.22,1.36,2.4
				v0.32h-5.72v-0.32c1.1-0.18,1.12-0.4,1.12-2.4v-3.84c0-1.48-0.64-2.28-1.64-2.28c-0.64,0-1.1,0.24-1.4,0.54v5.58
				c0,2,0.02,2.22,1.36,2.4v0.32h-5.96v-0.32c1.34-0.18,1.36-0.4,1.36-2.4v-10c0-1.76-0.04-1.94-1.36-2v-0.32l4.68-1.42
				C117.57,504.98,117.51,506.42,117.51,508.42z"/>
			<path class="st141" d="M126.09,515.42c0-3.38,2.42-5.96,5.3-5.96c2.64,0,4.44,1.58,4.54,4.28h-7.02c0,0.16-0.02,0.32-0.02,0.48
				c0,2.64,1.66,4.12,3.84,4.12c1.02,0,2.2-0.38,2.84-1.04l0.24,0.2c-0.78,1.38-2.38,3.16-4.76,3.16
				C127.91,520.67,126.09,518.39,126.09,515.42z M128.95,512.94h3.98c-0.04-1.56-0.68-2.64-1.86-2.64
				C129.83,510.3,129.09,511.32,128.95,512.94z"/>
			<path class="st141" d="M146.33,509.42c1.26,0,2.42,0.3,3.28,0.88h3.2v0.94h-2.28c0.3,0.48,0.48,1.06,0.48,1.72
				c0,2.4-2.16,3.56-4.68,3.56c-0.52,0-1.02-0.04-1.5-0.14c-0.62,0.66-1,1-1,1.4c0,0.36,0.18,0.7,1.34,0.74l2.2,0.08
				c2.4,0.08,4.7,0.72,4.7,2.58c0,2.12-2.52,3.74-6.44,3.74c-2.74,0-4.7-0.8-4.7-2.12c0-0.74,1.16-1.44,2.34-1.88
				c-1-0.34-1.46-1-1.46-1.74c0-1,1.24-2.08,2.32-3c-1.44-0.52-2.46-1.56-2.46-3.22C141.67,510.58,143.83,509.42,146.33,509.42z
				 M144.79,521.17c-0.38-0.02-0.72-0.04-1.02-0.1c-0.3,0.3-0.44,0.68-0.44,1.12c0,1.24,1.76,1.76,3.48,1.76
				c1.84,0,3.54-0.5,3.54-1.48c0-0.9-1.04-1.14-2.84-1.2L144.79,521.17z M147.93,513.92c0-1.84-0.56-3.84-1.86-3.84
				c-0.92,0-1.34,0.58-1.34,1.94c0,1.84,0.54,3.84,1.86,3.84C147.51,515.86,147.93,515.28,147.93,513.92z"/>
			<path class="st141" d="M153.53,515.42c0-3.38,2.42-5.96,5.3-5.96c2.64,0,4.44,1.58,4.54,4.28h-7.02c0,0.16-0.02,0.32-0.02,0.48
				c0,2.64,1.66,4.12,3.84,4.12c1.02,0,2.2-0.38,2.84-1.04l0.24,0.2c-0.78,1.38-2.38,3.16-4.76,3.16
				C155.35,520.67,153.53,518.39,153.53,515.42z M156.39,512.94h3.98c-0.04-1.56-0.68-2.64-1.86-2.64
				C157.27,510.3,156.53,511.32,156.39,512.94z"/>
			<path class="st141" d="M169.21,517.68c0,2,0.1,2.22,1.64,2.4v0.32h-6.24v-0.32c1.34-0.18,1.36-0.4,1.36-2.4v-4.48
				c0-1.76-0.04-1.94-1.36-2v-0.32l4.48-1.4l0.06,2.28c0.74-0.96,1.66-2.24,2.92-2.24c1.06,0,1.8,0.66,1.8,1.76
				c0,1.2-0.8,1.92-1.6,1.92c-0.48,0-0.6-0.08-0.9-0.48l-0.58-0.78c-0.28-0.38-0.36-0.4-0.52-0.4c-0.26,0-0.7,0.3-1.06,0.8V517.68z"
				/>
			<path class="st141" d="M174.47,510.88l4.48-1.4l0.08,2.08c0.6-1.02,1.48-2.1,3.24-2.1c1.64,0,3.08,1.14,3.08,3.8v4.42
				c0,2,0.02,2.22,1.36,2.4v0.32h-5.72v-0.32c1.1-0.18,1.12-0.4,1.12-2.4v-3.84c0-1.48-0.64-2.28-1.64-2.28
				c-0.64,0-1.1,0.24-1.4,0.54v5.58c0,2,0.02,2.22,1.14,2.4v0.32h-5.74v-0.32c1.34-0.18,1.36-0.4,1.36-2.4v-4.48
				c0-1.76-0.04-1.94-1.36-2V510.88z"/>
			<path class="st141" d="M187.65,515.42c0-3.38,2.42-5.96,5.3-5.96c2.64,0,4.44,1.58,4.54,4.28h-7.02c0,0.16-0.02,0.32-0.02,0.48
				c0,2.64,1.66,4.12,3.84,4.12c1.02,0,2.2-0.38,2.84-1.04l0.24,0.2c-0.78,1.38-2.38,3.16-4.76,3.16
				C189.47,520.67,187.65,518.39,187.65,515.42z M190.51,512.94h3.98c-0.04-1.56-0.68-2.64-1.86-2.64
				C191.39,510.3,190.65,511.32,190.51,512.94z"/>
			<path class="st141" d="M206.69,509.88v3.2h-0.36c-0.44-2.22-2.02-2.88-3.18-2.88c-0.94,0-1.44,0.48-1.44,1.08
				c0,0.72,0.44,1.2,1.46,1.7l1.2,0.58c2.24,1.08,3.1,2.16,3.1,3.68c0,2.32-2.38,3.42-4.5,3.42c-1.06,0-2.42-0.2-3.38-0.62v-3.6
				h0.36c0.7,2.56,1.96,3.38,3.44,3.38c0.8,0,1.66-0.36,1.66-1.22c0-0.72-0.4-1.26-1.86-1.96l-1.08-0.52
				c-1.58-0.76-2.56-2.02-2.56-3.62c0-2,1.86-3.08,4.04-3.08C204.73,509.42,205.93,509.6,206.69,509.88z"/>
			<path class="st141" d="M74.89,539.06c0,3.02-2.24,5.6-5.6,5.6c-3.26,0-5.56-2.32-5.56-5.74c0-2.82,2.22-5.46,5.56-5.46
				C72.45,533.46,74.89,535.74,74.89,539.06z M67.15,538.34c0,2.08,0.38,5.62,2.4,5.62c1.58,0,1.92-2.18,1.92-4.3
				c0-1.96-0.36-5.5-2.36-5.5C67.55,534.16,67.15,536.1,67.15,538.34z"/>
			<path class="st141" d="M81.83,529.88c-0.28-0.4-0.38-0.54-0.64-0.54c-0.66,0-2.3,1.12-0.56,4.3h3.08v1h-3.02v7.04
				c0,2,0.24,2.22,2.02,2.4v0.32h-6.62v-0.32c1.34-0.18,1.36-0.4,1.36-2.4v-7.04h-1.36v-1h1.36v-0.08c0-3.1,2.66-5.18,5-5.18
				c1.6,0,2.54,0.94,2.54,1.86c0,0.84-0.58,1.32-1.28,1.32c-0.46,0-0.8-0.1-1.08-0.52L81.83,529.88z"/>
			<path class="st141" d="M94.11,529.88c-0.28-0.4-0.38-0.54-0.64-0.54c-0.66,0-2.3,1.12-0.56,4.3h3.08v1h-3.02v7.04
				c0,2,0.24,2.22,2.02,2.4v0.32h-6.62v-0.32c1.34-0.18,1.36-0.4,1.36-2.4v-7.04h-1.36v-1h1.36v-0.08c0-3.1,2.66-5.18,5-5.18
				c1.6,0,2.54,0.94,2.54,1.86c0,0.84-0.58,1.32-1.28,1.32c-0.46,0-0.8-0.1-1.08-0.52L94.11,529.88z"/>
			<path class="st141" d="M101.25,541.68c0,2,0.02,2.22,1.36,2.4v0.32h-5.96v-0.32c1.34-0.18,1.36-0.4,1.36-2.4v-4.48
				c0-1.76-0.04-1.94-1.36-2v-0.32l4.68-1.42c-0.02,1.04-0.08,2.48-0.08,4.48V541.68z M97.73,529.72c0-1.04,0.88-1.9,1.96-1.9
				c1.06,0,1.94,0.86,1.94,1.9c0,1.08-0.88,1.96-1.94,1.96C98.61,531.68,97.73,530.8,97.73,529.72z"/>
			<path class="st141" d="M103.71,529.68v-0.32l4.68-1.42c-0.02,1.04-0.08,2.48-0.08,4.48v9.26c0,2,0.02,2.22,1.36,2.4v0.32h-5.96
				v-0.32c1.34-0.18,1.36-0.4,1.36-2.4v-10C105.07,529.92,105.03,529.74,103.71,529.68z"/>
			<path class="st141" d="M122.95,544.09v0.32h-5.72v-0.32c1.1-0.18,1.12-0.4,1.12-2.4v-3.84c0-1.48-0.64-2.28-1.64-2.28
				c-0.64,0-1.1,0.24-1.4,0.54v5.58c0,2,0.02,2.22,1.14,2.4v0.32h-5.74v-0.32c1.34-0.18,1.36-0.4,1.36-2.4v-4.48
				c0-1.76-0.04-1.94-1.36-2v-0.32l4.48-1.4l0.08,2.08c0.6-1.02,1.48-2.1,3.24-2.1c1.26,0,2.4,0.68,2.86,2.22
				c0.62-1.02,1.68-2.22,3.42-2.22c1.64,0,3.08,1.14,3.08,3.8v4.42c0,2,0.02,2.22,1.36,2.4v0.32h-5.72v-0.32
				c1.1-0.18,1.12-0.4,1.12-2.4v-3.84c0-1.48-0.64-2.28-1.64-2.28c-0.58,0-1.18,0.24-1.5,0.58c0.06,0.34,0.1,0.72,0.1,1.12v4.42
				C121.59,543.69,121.61,543.91,122.95,544.09z"/>
			<path class="st141" d="M137.77,533.88v3.2h-0.36c-0.44-2.22-2.02-2.88-3.18-2.88c-0.94,0-1.44,0.48-1.44,1.08
				c0,0.72,0.44,1.2,1.46,1.7l1.2,0.58c2.24,1.08,3.1,2.16,3.1,3.68c0,2.32-2.38,3.42-4.5,3.42c-1.06,0-2.42-0.2-3.38-0.62v-3.6
				h0.36c0.7,2.56,1.96,3.38,3.44,3.38c0.8,0,1.66-0.36,1.66-1.22c0-0.72-0.4-1.26-1.86-1.96l-1.08-0.52
				c-1.58-0.76-2.56-2.02-2.56-3.62c0-2,1.86-3.08,4.04-3.08C135.81,533.42,137.01,533.6,137.77,533.88z"/>
			<path class="st141" d="M145.55,541.24v-6.6h-1.62v-1h1.68v-1.06l3.18-2.66v3.72h2.64v1h-2.64v6.04c0,1.92,0.32,2.26,1.28,2.26
				c0.4,0,0.9-0.14,1.46-0.58l0.22,0.2c-0.76,0.98-1.64,2.1-3.34,2.1C146.77,544.67,145.55,543.95,145.55,541.24z"/>
			<path class="st141" d="M157.13,532.42v3.12c0.5-0.92,1.44-2.08,3.2-2.08c1.64,0,3.08,1.14,3.08,3.8v4.42c0,2,0.02,2.22,1.36,2.4
				v0.32h-5.72v-0.32c1.1-0.18,1.12-0.4,1.12-2.4v-3.84c0-1.48-0.64-2.28-1.64-2.28c-0.64,0-1.1,0.24-1.4,0.54v5.58
				c0,2,0.02,2.22,1.36,2.4v0.32h-5.96v-0.32c1.34-0.18,1.36-0.4,1.36-2.4v-10c0-1.76-0.04-1.94-1.36-2v-0.32l4.68-1.42
				C157.19,528.98,157.13,530.42,157.13,532.42z"/>
			<path class="st141" d="M170.15,541.68c0,2,0.1,2.22,1.64,2.4v0.32h-6.24v-0.32c1.34-0.18,1.36-0.4,1.36-2.4v-4.48
				c0-1.76-0.04-1.94-1.36-2v-0.32l4.48-1.4l0.06,2.28c0.74-0.96,1.66-2.24,2.92-2.24c1.06,0,1.8,0.66,1.8,1.76
				c0,1.2-0.8,1.92-1.6,1.92c-0.48,0-0.6-0.08-0.9-0.48l-0.58-0.78c-0.28-0.38-0.36-0.4-0.52-0.4c-0.26,0-0.7,0.3-1.06,0.8V541.68z"
				/>
			<path class="st141" d="M186.41,539.06c0,3.02-2.24,5.6-5.6,5.6c-3.26,0-5.56-2.32-5.56-5.74c0-2.82,2.22-5.46,5.56-5.46
				C183.97,533.46,186.41,535.74,186.41,539.06z M178.67,538.34c0,2.08,0.38,5.62,2.4,5.62c1.58,0,1.92-2.18,1.92-4.3
				c0-1.96-0.36-5.5-2.36-5.5C179.07,534.16,178.67,536.1,178.67,538.34z"/>
			<path class="st141" d="M197.81,540.8c0,1.76,0.04,1.94,1.36,2v0.32l-4.22,1.46l-0.34-2.06c-0.54,1.1-1.46,2.14-3.02,2.14
				c-1.72,0-3.16-1.04-3.16-3.76v-3.86c0-1.4,0-2.22-1.36-2.3v-0.28l4.68-0.82c-0.02,1.02-0.08,2.26-0.08,4.24v2.44
				c0,1.48,0.46,2.38,1.48,2.38c0.54,0,1.02-0.18,1.42-0.66v-5c0-1.4,0-2.22-1.36-2.3v-0.28l4.68-0.82
				c-0.02,1.02-0.08,2.36-0.08,4.34V540.8z"/>
			<path class="st141" d="M205.47,533.42c1.26,0,2.42,0.3,3.28,0.88h3.2v0.94h-2.28c0.3,0.48,0.48,1.06,0.48,1.72
				c0,2.4-2.16,3.56-4.68,3.56c-0.52,0-1.02-0.04-1.5-0.14c-0.62,0.66-1,1-1,1.4c0,0.36,0.18,0.7,1.34,0.74l2.2,0.08
				c2.4,0.08,4.7,0.72,4.7,2.58c0,2.12-2.52,3.74-6.44,3.74c-2.74,0-4.7-0.8-4.7-2.12c0-0.74,1.16-1.44,2.34-1.88
				c-1-0.34-1.46-1-1.46-1.74c0-1,1.24-2.08,2.32-3c-1.44-0.52-2.46-1.56-2.46-3.22C200.81,534.58,202.97,533.42,205.47,533.42z
				 M203.93,545.17c-0.38-0.02-0.72-0.04-1.02-0.1c-0.3,0.3-0.44,0.68-0.44,1.12c0,1.24,1.76,1.76,3.48,1.76
				c1.84,0,3.54-0.5,3.54-1.48c0-0.9-1.04-1.14-2.84-1.2L203.93,545.17z M207.07,537.92c0-1.84-0.56-3.84-1.86-3.84
				c-0.92,0-1.34,0.58-1.34,1.94c0,1.84,0.54,3.84,1.86,3.84C206.65,539.86,207.07,539.28,207.07,537.92z"/>
			<path class="st141" d="M217.37,532.42v3.12c0.5-0.92,1.44-2.08,3.2-2.08c1.64,0,3.08,1.14,3.08,3.8v4.42c0,2,0.02,2.22,1.36,2.4
				v0.32h-5.72v-0.32c1.1-0.18,1.12-0.4,1.12-2.4v-3.84c0-1.48-0.64-2.28-1.64-2.28c-0.64,0-1.1,0.24-1.4,0.54v5.58
				c0,2,0.02,2.22,1.36,2.4v0.32h-5.96v-0.32c1.34-0.18,1.36-0.4,1.36-2.4v-10c0-1.76-0.04-1.94-1.36-2v-0.32l4.68-1.42
				C217.43,528.98,217.37,530.42,217.37,532.42z"/>
			<path class="st141" d="M69.17,565.49c0,2.06,0.24,2.36,2,2.6v0.32h-7.5v-0.32c1.74-0.24,1.98-0.54,1.98-2.6v-8.66
				c0-2.06-0.24-2.36-1.98-2.6v-0.32h7.5v0.32c-1.76,0.24-2,0.54-2,2.6V565.49z"/>
			<path class="st141" d="M91.21,554.22c-1.74,0.24-1.98,0.54-1.98,2.6v8.66c0,2.06,0.24,2.36,1.98,2.6v0.32h-7.48v-0.32
				c1.74-0.24,1.98-0.54,1.98-2.6v-9.66l-4.5,12h-1l-4.86-12.3v9.96c0,2.06,0.24,2.36,2,2.6v0.32h-4.94v-0.32
				c1.74-0.24,1.98-0.54,1.98-2.6v-8.66c0-2.06-0.24-2.36-1.98-2.6v-0.32h6.18l3.46,9.02l3.36-9.02h5.8V554.22z"/>
			<path class="st141" d="M98.79,553.9c4.86,0,8.94,1.88,8.94,7.2c0,5.32-3.94,7.3-8.96,7.3h-6.32v-0.32
				c1.74-0.24,1.98-0.54,1.98-2.6v-8.66c0-2.06-0.24-2.36-1.98-2.6v-0.32H98.79z M98.73,567.69c3.68,0,5.1-2.12,5.1-6.58
				c0-4.44-1.5-6.48-5.14-6.48h-0.74v13.06H98.73z"/>
			<path class="st141" d="M112.31,553.9c0.98,0,2.54-0.02,4.04-0.04c4.5-0.06,6.1,0.96,6.1,3.08c0,1.76-1.4,3.16-3.14,3.64v0.04
				c2.04,0.32,4.12,1.4,4.12,3.7c0,2.84-2.58,4.12-7.06,4.12c-0.96,0-2.5-0.04-3.6-0.04h-3.52v-0.32c1.74-0.24,1.98-0.54,1.98-2.6
				v-8.66c0-2.06-0.24-2.36-1.98-2.6v-0.32H112.31z M114.75,560.58h1.5c1.8,0,2.66-1.08,2.66-3.16c0-1.86-0.9-2.8-2.82-2.8h-1.34
				V560.58z M114.75,566.79c0,0.8,0.26,0.92,1.02,0.92h0.66c2.3,0,3.14-1.18,3.14-3.34c0-2.06-0.88-3.14-3.36-3.14h-1.46V566.79z"/>
			<path class="st141" d="M128.09,568.09c1.14-0.22,1.4-0.52,2.54-3.44l4.1-10.56c0.72-0.14,1.58-0.5,2.02-1.04h0.1l5.08,12.94
				c0.56,1.42,0.8,1.9,1.92,2.1v0.32h-6.58v-0.32c1.14-0.16,1.34-0.68,0.96-1.66l-1.1-2.82h-5.16l-0.14,0.36
				c-1.46,3.72-0.1,3.96,1.16,4.12v0.32h-4.9V568.09z M132.33,562.68h4.44l-2.2-5.66L132.33,562.68z"/>
			<path class="st141" d="M149.97,565.49c0,2.06,0.24,2.36,2.26,2.6v0.32h-7.76v-0.32c1.74-0.24,1.98-0.54,1.98-2.6v-8.66
				c0-2.06-0.24-2.36-1.98-2.6v-0.32h3.22c0.2,0,3.36-0.02,3.5-0.02c4.12,0,7.08,0.86,7.08,4.14s-2.96,4.14-7.08,4.14h-1.22V565.49z
				 M150.91,561.48c2.04,0,3.46-0.86,3.46-3.46s-1.42-3.46-3.46-3.46h-0.94v6.92H150.91z"/>
			<path class="st141" d="M164.59,565.49c0,2.06,0.24,2.36,2,2.6v0.32h-7.5v-0.32c1.74-0.24,1.98-0.54,1.98-2.6v-8.66
				c0-2.06-0.24-2.36-1.98-2.6v-0.32h7.5v0.32c-1.76,0.24-2,0.54-2,2.6V565.49z"/>
		</g>
	</g>
	<g>
		<g>
			<path class="st141" d="M72.25,787.74c2.64,0,4.18-1.62,5.04-3.62l0.58,0.2c-0.62,1.82-2.32,4.3-6.14,4.3
				c-4.04,0-7.78-2.68-7.78-7.54c0-4.86,3.78-7.62,8.02-7.62c1.86,0,3.66,0.4,4.62,0.84l0.58,4.62h-0.42
				c-0.72-2.02-2.2-4.68-4.8-4.68c-2.48,0-4.1,2.66-4.1,6.84C67.85,785.18,69.29,787.74,72.25,787.74z"/>
			<path class="st141" d="M82.11,788.62c-1.66,0-3.04-1.32-3.04-2.74c0-1.2,1.02-1.94,3.24-3c0.54-0.26,1.42-0.66,2.88-1.26v-0.58
				c0-2.12-0.44-2.78-1.56-2.78c-1.4,0-1.74,1.22-1.66,2.9h-2.68c-0.06-1.66,2-3.76,4.9-3.76c2.52,0,4.14,0.94,4.08,3.7l-0.1,4.58
				c-0.02,0.7,0.08,1.44,0.68,1.44c0.32,0,0.56-0.12,0.84-0.34l0.24,0.26c-0.52,0.72-1.42,1.54-2.66,1.54c-1.04,0-1.92-0.6-2.1-1.86
				C84.39,787.82,83.55,788.62,82.11,788.62z M85.15,782.42c-1.16,0.42-1.66,0.7-2.02,0.92c-0.78,0.48-1.08,1.04-1.08,1.64
				c0,1,0.62,1.92,1.68,1.92c0.5,0,0.92-0.18,1.36-0.68L85.15,782.42z"/>
			<path class="st141" d="M90.75,773.64v-0.32l4.68-1.42c-0.02,1.04-0.08,2.48-0.08,4.48v9.26c0,2,0.02,2.22,1.36,2.4v0.32h-5.96
				v-0.32c1.34-0.18,1.36-0.4,1.36-2.4v-10C92.11,773.88,92.07,773.7,90.75,773.64z"/>
			<path class="st141" d="M104.25,780.34l-0.78-1.66c-0.16-0.32-0.3-0.42-0.58-0.42c-0.7,0-2.22,0.96-2.22,3.66
				c0,2.42,1.14,4.38,3.56,4.38c0.96,0,1.8-0.36,2.44-0.9l0.24,0.2c-0.72,1.2-1.88,3.02-4.2,3.02c-2.98,0-4.9-2.14-4.9-5.3
				c0-3.46,2.82-5.9,5.56-5.9c1.96,0,3.52,1,3.52,2.28c0,0.78-0.68,1.36-1.52,1.36C104.93,781.06,104.51,780.9,104.25,780.34z"/>
			<path class="st141" d="M118.35,784.76c0,1.76,0.04,1.94,1.36,2v0.32l-4.22,1.46l-0.34-2.06c-0.54,1.1-1.46,2.14-3.02,2.14
				c-1.72,0-3.16-1.04-3.16-3.76V781c0-1.4,0-2.22-1.36-2.3v-0.28l4.68-0.82c-0.02,1.02-0.08,2.26-0.08,4.24v2.44
				c0,1.48,0.46,2.38,1.48,2.38c0.54,0,1.02-0.18,1.42-0.66v-5c0-1.4,0-2.22-1.36-2.3v-0.28l4.68-0.82
				c-0.02,1.02-0.08,2.36-0.08,4.34V784.76z"/>
			<path class="st141" d="M120.91,773.64v-0.32l4.68-1.42c-0.02,1.04-0.08,2.48-0.08,4.48v9.26c0,2,0.02,2.22,1.36,2.4v0.32h-5.96
				v-0.32c1.34-0.18,1.36-0.4,1.36-2.4v-10C122.27,773.88,122.23,773.7,120.91,773.64z"/>
			<path class="st141" d="M131.27,788.62c-1.66,0-3.04-1.32-3.04-2.74c0-1.2,1.02-1.94,3.24-3c0.54-0.26,1.42-0.66,2.88-1.26v-0.58
				c0-2.12-0.44-2.78-1.56-2.78c-1.4,0-1.74,1.22-1.66,2.9h-2.68c-0.06-1.66,2-3.76,4.9-3.76c2.52,0,4.14,0.94,4.08,3.7l-0.1,4.58
				c-0.02,0.7,0.08,1.44,0.68,1.44c0.32,0,0.56-0.12,0.84-0.34l0.24,0.26c-0.52,0.72-1.42,1.54-2.66,1.54c-1.04,0-1.92-0.6-2.1-1.86
				C133.55,787.82,132.71,788.62,131.27,788.62z M134.31,782.42c-1.16,0.42-1.66,0.7-2.02,0.92c-0.78,0.48-1.08,1.04-1.08,1.64
				c0,1,0.62,1.92,1.68,1.92c0.5,0,0.92-0.18,1.36-0.68L134.31,782.42z"/>
			<path class="st141" d="M141.23,785.2v-6.6h-1.62v-1h1.68v-1.06l3.18-2.66v3.72h2.64v1h-2.64v6.04c0,1.92,0.32,2.26,1.28,2.26
				c0.4,0,0.9-0.14,1.46-0.58l0.22,0.2c-0.76,0.98-1.64,2.1-3.34,2.1C142.45,788.62,141.23,787.9,141.23,785.2z"/>
			<path class="st141" d="M148.51,783.38c0-3.38,2.42-5.96,5.3-5.96c2.64,0,4.44,1.58,4.54,4.28h-7.02c0,0.16-0.02,0.32-0.02,0.48
				c0,2.64,1.66,4.12,3.84,4.12c1.02,0,2.2-0.38,2.84-1.04l0.24,0.2c-0.78,1.38-2.38,3.16-4.76,3.16
				C150.33,788.62,148.51,786.34,148.51,783.38z M151.37,780.9h3.98c-0.04-1.56-0.68-2.64-1.86-2.64
				C152.25,778.26,151.51,779.28,151.37,780.9z"/>
			<path class="st141" d="M164.97,785.2v-6.6h-1.62v-1h1.68v-1.06l3.18-2.66v3.72h2.64v1h-2.64v6.04c0,1.92,0.32,2.26,1.28,2.26
				c0.4,0,0.9-0.14,1.46-0.58l0.22,0.2c-0.76,0.98-1.64,2.1-3.34,2.1C166.19,788.62,164.97,787.9,164.97,785.2z"/>
			<path class="st141" d="M176.55,776.38v3.12c0.5-0.92,1.44-2.08,3.2-2.08c1.64,0,3.08,1.14,3.08,3.8v4.42c0,2,0.02,2.22,1.36,2.4
				v0.32h-5.72v-0.32c1.1-0.18,1.12-0.4,1.12-2.4v-3.84c0-1.48-0.64-2.28-1.64-2.28c-0.64,0-1.1,0.24-1.4,0.54v5.58
				c0,2,0.02,2.22,1.36,2.4v0.32h-5.96v-0.32c1.34-0.18,1.36-0.4,1.36-2.4v-10c0-1.76-0.04-1.94-1.36-2v-0.32l4.68-1.42
				C176.61,772.94,176.55,774.38,176.55,776.38z"/>
			<path class="st141" d="M185.13,783.38c0-3.38,2.42-5.96,5.3-5.96c2.64,0,4.44,1.58,4.54,4.28h-7.02c0,0.16-0.02,0.32-0.02,0.48
				c0,2.64,1.66,4.12,3.84,4.12c1.02,0,2.2-0.38,2.84-1.04l0.24,0.2c-0.78,1.38-2.38,3.16-4.76,3.16
				C186.95,788.62,185.13,786.34,185.13,783.38z M187.99,780.9h3.98c-0.04-1.56-0.68-2.64-1.86-2.64
				C188.87,778.26,188.13,779.28,187.99,780.9z"/>
			<path class="st141" d="M205.95,773.84c-0.28-0.4-0.38-0.54-0.64-0.54c-0.66,0-2.3,1.12-0.56,4.3h3.08v1h-3.02v7.04
				c0,2,0.24,2.22,2.02,2.4v0.32h-6.62v-0.32c1.34-0.18,1.36-0.4,1.36-2.4v-7.04h-1.36v-1h1.36v-0.08c0-3.1,2.66-5.18,5-5.18
				c1.6,0,2.54,0.94,2.54,1.86c0,0.84-0.58,1.32-1.28,1.32c-0.46,0-0.8-0.1-1.08-0.52L205.95,773.84z"/>
			<path class="st141" d="M213.09,785.64c0,2,0.1,2.22,1.64,2.4v0.32h-6.24v-0.32c1.34-0.18,1.36-0.4,1.36-2.4v-4.48
				c0-1.76-0.04-1.94-1.36-2v-0.32l4.48-1.4l0.06,2.28c0.74-0.96,1.66-2.24,2.92-2.24c1.06,0,1.8,0.66,1.8,1.76
				c0,1.2-0.8,1.92-1.6,1.92c-0.48,0-0.6-0.08-0.9-0.48l-0.58-0.78c-0.28-0.38-0.36-0.4-0.52-0.4c-0.26,0-0.7,0.3-1.06,0.8V785.64z"
				/>
			<path class="st141" d="M218.21,783.38c0-3.38,2.42-5.96,5.3-5.96c2.64,0,4.44,1.58,4.54,4.28h-7.02c0,0.16-0.02,0.32-0.02,0.48
				c0,2.64,1.66,4.12,3.84,4.12c1.02,0,2.2-0.38,2.84-1.04l0.24,0.2c-0.78,1.38-2.38,3.16-4.76,3.16
				C220.03,788.62,218.21,786.34,218.21,783.38z M221.07,780.9h3.98c-0.04-1.56-0.68-2.64-1.86-2.64
				C221.95,778.26,221.21,779.28,221.07,780.9z"/>
			<path class="st141" d="M229.63,782h5.16v1.82h-5.16V782z"/>
			<path class="st141" d="M74.23,801.5c-0.04,1.02-0.06,2.36-0.06,4.46v8c0,2,0.02,2.22,1.36,2.4v0.32h-6.6v-0.32
				c1.76-0.18,2-0.4,2-2.4v-3.32c-0.5,0.86-1.6,1.98-3.12,1.98c-2.46,0-4.06-2.48-4.06-5.18c0-3.68,2.46-6.02,5.16-6.02
				c0.74,0,1.64,0.24,2.28,0.72L74.23,801.5z M67.01,805.88c0,2.34,0.98,4.66,2.66,4.66c0.56,0,1-0.14,1.26-0.48v-6.88
				c-0.3-0.6-1-1.04-1.74-1.04C67.91,802.14,67.01,803.34,67.01,805.88z"/>
			<path class="st141" d="M86.37,808.76c0,1.76,0.04,1.94,1.36,2v0.32l-4.22,1.46l-0.34-2.06c-0.54,1.1-1.46,2.14-3.02,2.14
				c-1.72,0-3.16-1.04-3.16-3.76V805c0-1.4,0-2.22-1.36-2.3v-0.28l4.68-0.82c-0.02,1.02-0.08,2.26-0.08,4.24v2.44
				c0,1.48,0.46,2.38,1.48,2.38c0.54,0,1.02-0.18,1.42-0.66v-5c0-1.4,0-2.22-1.36-2.3v-0.28l4.68-0.82
				c-0.02,1.02-0.08,2.36-0.08,4.34V808.76z"/>
			<path class="st141" d="M89.03,807.38c0-3.38,2.42-5.96,5.3-5.96c2.64,0,4.44,1.58,4.54,4.28h-7.02c0,0.16-0.02,0.32-0.02,0.48
				c0,2.64,1.66,4.12,3.84,4.12c1.02,0,2.2-0.38,2.84-1.04l0.24,0.2c-0.78,1.38-2.38,3.16-4.76,3.16
				C90.85,812.62,89.03,810.34,89.03,807.38z M91.89,804.9h3.98c-0.04-1.56-0.68-2.64-1.86-2.64
				C92.77,802.26,92.03,803.28,91.89,804.9z"/>
			<path class="st141" d="M100.01,802.84l4.48-1.4l0.08,2.08c0.6-1.02,1.48-2.1,3.24-2.1c1.64,0,3.08,1.14,3.08,3.8v4.42
				c0,2,0.02,2.22,1.36,2.4v0.32h-5.72v-0.32c1.1-0.18,1.12-0.4,1.12-2.4v-3.84c0-1.48-0.64-2.28-1.64-2.28
				c-0.64,0-1.1,0.24-1.4,0.54v5.58c0,2,0.02,2.22,1.14,2.4v0.32h-5.74v-0.32c1.34-0.18,1.36-0.4,1.36-2.4v-4.48
				c0-1.76-0.04-1.94-1.36-2V802.84z"/>
			<path class="st141" d="M119.63,804.34l-0.78-1.66c-0.16-0.32-0.3-0.42-0.58-0.42c-0.7,0-2.22,0.96-2.22,3.66
				c0,2.42,1.14,4.38,3.56,4.38c0.96,0,1.8-0.36,2.44-0.9l0.24,0.2c-0.72,1.2-1.88,3.02-4.2,3.02c-2.98,0-4.9-2.14-4.9-5.3
				c0-3.46,2.82-5.9,5.56-5.9c1.96,0,3.52,1,3.52,2.28c0,0.78-0.68,1.36-1.52,1.36C120.31,805.06,119.89,804.9,119.63,804.34z"/>
			<path class="st141" d="M128.35,812.62l-4.32-9.38c-0.36-0.76-0.6-1.2-1.34-1.34v-0.3h6.12v0.3c-1.38,0.24-1.42,0.62-1.04,1.58
				l2.14,5.32l1.6-4.36c0.66-1.78,0.82-2.2-0.64-2.54v-0.3h3.72v0.3c-1.12,0.28-1.36,0.42-1.9,1.86l-3.76,9.88
				c-0.72,1.88-1.32,3.16-2.92,3.16c-0.9,0-1.86-0.48-1.86-1.42c0-0.62,0.44-1.3,1.16-1.3c0.28,0,0.44,0.06,0.74,0.36l1.02,1.02
				c0.3-0.52,0.72-1.38,1-2.1L128.35,812.62z"/>
			<path class="st141" d="M150.43,807.02c0,3.02-2.24,5.6-5.6,5.6c-3.26,0-5.56-2.32-5.56-5.74c0-2.82,2.22-5.46,5.56-5.46
				C147.99,801.42,150.43,803.7,150.43,807.02z M142.69,806.3c0,2.08,0.38,5.62,2.4,5.62c1.58,0,1.92-2.18,1.92-4.3
				c0-1.96-0.36-5.5-2.36-5.5C143.09,802.12,142.69,804.06,142.69,806.3z"/>
			<path class="st141" d="M157.37,797.84c-0.28-0.4-0.38-0.54-0.64-0.54c-0.66,0-2.3,1.12-0.56,4.3h3.08v1h-3.02v7.04
				c0,2,0.24,2.22,2.02,2.4v0.32h-6.62v-0.32c1.34-0.18,1.36-0.4,1.36-2.4v-7.04h-1.36v-1h1.36v-0.08c0-3.1,2.66-5.18,5-5.18
				c1.6,0,2.54,0.94,2.54,1.86c0,0.84-0.58,1.32-1.28,1.32c-0.46,0-0.8-0.1-1.08-0.52L157.37,797.84z"/>
			<path class="st141" d="M169.07,801.38c1.26,0,2.42,0.3,3.28,0.88h3.2v0.94h-2.28c0.3,0.48,0.48,1.06,0.48,1.72
				c0,2.4-2.16,3.56-4.68,3.56c-0.52,0-1.02-0.04-1.5-0.14c-0.62,0.66-1,1-1,1.4c0,0.36,0.18,0.7,1.34,0.74l2.2,0.08
				c2.4,0.08,4.7,0.72,4.7,2.58c0,2.12-2.52,3.74-6.44,3.74c-2.74,0-4.7-0.8-4.7-2.12c0-0.74,1.16-1.44,2.34-1.88
				c-1-0.34-1.46-1-1.46-1.74c0-1,1.24-2.08,2.32-3c-1.44-0.52-2.46-1.56-2.46-3.22C164.41,802.54,166.57,801.38,169.07,801.38z
				 M167.53,813.12c-0.38-0.02-0.72-0.04-1.02-0.1c-0.3,0.3-0.44,0.68-0.44,1.12c0,1.24,1.76,1.76,3.48,1.76
				c1.84,0,3.54-0.5,3.54-1.48c0-0.9-1.04-1.14-2.84-1.2L167.53,813.12z M170.67,805.88c0-1.84-0.56-3.84-1.86-3.84
				c-0.92,0-1.34,0.58-1.34,1.94c0,1.84,0.54,3.84,1.86,3.84C170.25,807.82,170.67,807.24,170.67,805.88z"/>
			<path class="st141" d="M176.27,807.38c0-3.38,2.42-5.96,5.3-5.96c2.64,0,4.44,1.58,4.54,4.28h-7.02c0,0.16-0.02,0.32-0.02,0.48
				c0,2.64,1.66,4.12,3.84,4.12c1.02,0,2.2-0.38,2.84-1.04l0.24,0.2c-0.78,1.38-2.38,3.16-4.76,3.16
				C178.09,812.62,176.27,810.34,176.27,807.38z M179.13,804.9h3.98c-0.04-1.56-0.68-2.64-1.86-2.64
				C180.01,802.26,179.27,803.28,179.13,804.9z"/>
			<path class="st141" d="M191.95,809.64c0,2,0.1,2.22,1.64,2.4v0.32h-6.24v-0.32c1.34-0.18,1.36-0.4,1.36-2.4v-4.48
				c0-1.76-0.04-1.94-1.36-2v-0.32l4.48-1.4l0.06,2.28c0.74-0.96,1.66-2.24,2.92-2.24c1.06,0,1.8,0.66,1.8,1.76
				c0,1.2-0.8,1.92-1.6,1.92c-0.48,0-0.6-0.08-0.9-0.48l-0.58-0.78c-0.28-0.38-0.36-0.4-0.52-0.4c-0.26,0-0.7,0.3-1.06,0.8V809.64z"
				/>
			<path class="st141" d="M197.21,802.84l4.48-1.4l0.08,2.08c0.6-1.02,1.48-2.1,3.24-2.1c1.64,0,3.08,1.14,3.08,3.8v4.42
				c0,2,0.02,2.22,1.36,2.4v0.32h-5.72v-0.32c1.1-0.18,1.12-0.4,1.12-2.4v-3.84c0-1.48-0.64-2.28-1.64-2.28
				c-0.64,0-1.1,0.24-1.4,0.54v5.58c0,2,0.02,2.22,1.14,2.4v0.32h-5.74v-0.32c1.34-0.18,1.36-0.4,1.36-2.4v-4.48
				c0-1.76-0.04-1.94-1.36-2V802.84z"/>
			<path class="st141" d="M210.39,807.38c0-3.38,2.42-5.96,5.3-5.96c2.64,0,4.44,1.58,4.54,4.28h-7.02c0,0.16-0.02,0.32-0.02,0.48
				c0,2.64,1.66,4.12,3.84,4.12c1.02,0,2.2-0.38,2.84-1.04l0.24,0.2c-0.78,1.38-2.38,3.16-4.76,3.16
				C212.21,812.62,210.39,810.34,210.39,807.38z M213.25,804.9h3.98c-0.04-1.56-0.68-2.64-1.86-2.64
				C214.13,802.26,213.39,803.28,213.25,804.9z"/>
			<path class="st141" d="M229.43,801.84v3.2h-0.36c-0.44-2.22-2.02-2.88-3.18-2.88c-0.94,0-1.44,0.48-1.44,1.08
				c0,0.72,0.44,1.2,1.46,1.7l1.2,0.58c2.24,1.08,3.1,2.16,3.1,3.68c0,2.32-2.38,3.42-4.5,3.42c-1.06,0-2.42-0.2-3.38-0.62v-3.6
				h0.36c0.7,2.56,1.96,3.38,3.44,3.38c0.8,0,1.66-0.36,1.66-1.22c0-0.72-0.4-1.26-1.86-1.96l-1.08-0.52
				c-1.58-0.76-2.56-2.02-2.56-3.62c0-2,1.86-3.08,4.04-3.08C227.47,801.38,228.67,801.56,229.43,801.84z"/>
		</g>
	</g>
	<g>
		<g>
			<path class="st141" d="M382.46,803.82c0,2.06,0.24,2.36,2.26,2.6v0.32h-7.76v-0.32c1.74-0.24,1.98-0.54,1.98-2.6v-8.66
				c0-2.06-0.24-2.36-1.98-2.6v-0.32h3.22c0.2,0,3.36-0.02,3.5-0.02c4.12,0,7.08,0.86,7.08,4.14s-2.96,4.14-7.08,4.14h-1.22V803.82z
				 M383.4,799.82c2.04,0,3.46-0.86,3.46-3.46s-1.42-3.46-3.46-3.46h-0.94v6.92H383.4z"/>
			<path class="st141" d="M396.5,804.02c0,2,0.1,2.22,1.64,2.4v0.32h-6.24v-0.32c1.34-0.18,1.36-0.4,1.36-2.4v-4.48
				c0-1.76-0.04-1.94-1.36-2v-0.32l4.48-1.4l0.06,2.28c0.74-0.96,1.66-2.24,2.92-2.24c1.06,0,1.8,0.66,1.8,1.76
				c0,1.2-0.8,1.92-1.6,1.92c-0.48,0-0.6-0.08-0.9-0.48l-0.58-0.78c-0.28-0.38-0.36-0.4-0.52-0.4c-0.26,0-0.7,0.3-1.06,0.8V804.02z"
				/>
			<path class="st141" d="M401.62,801.76c0-3.38,2.42-5.96,5.3-5.96c2.64,0,4.44,1.58,4.54,4.28h-7.02c0,0.16-0.02,0.32-0.02,0.48
				c0,2.64,1.66,4.12,3.84,4.12c1.02,0,2.2-0.38,2.84-1.04l0.24,0.2c-0.78,1.38-2.38,3.16-4.76,3.16
				C403.44,807,401.62,804.72,401.62,801.76z M404.48,799.28h3.98c-0.04-1.56-0.68-2.64-1.86-2.64
				C405.36,796.64,404.62,797.66,404.48,799.28z"/>
			<path class="st141" d="M420.66,796.22v3.2h-0.36c-0.44-2.22-2.02-2.88-3.18-2.88c-0.94,0-1.44,0.48-1.44,1.08
				c0,0.72,0.44,1.2,1.46,1.7l1.2,0.58c2.24,1.08,3.1,2.16,3.1,3.68c0,2.32-2.38,3.42-4.5,3.42c-1.06,0-2.42-0.2-3.38-0.62v-3.6
				h0.36c0.7,2.56,1.96,3.38,3.44,3.38c0.8,0,1.66-0.36,1.66-1.22c0-0.72-0.4-1.26-1.86-1.96l-1.08-0.52
				c-1.58-0.76-2.56-2.02-2.56-3.62c0-2,1.86-3.08,4.04-3.08C418.7,795.76,419.9,795.94,420.66,796.22z"/>
			<path class="st141" d="M423.22,801.76c0-3.38,2.42-5.96,5.3-5.96c2.64,0,4.44,1.58,4.54,4.28h-7.02c0,0.16-0.02,0.32-0.02,0.48
				c0,2.64,1.66,4.12,3.84,4.12c1.02,0,2.2-0.38,2.84-1.04l0.24,0.2c-0.78,1.38-2.38,3.16-4.76,3.16
				C425.04,807,423.22,804.72,423.22,801.76z M426.08,799.28h3.98c-0.04-1.56-0.68-2.64-1.86-2.64
				C426.96,796.64,426.22,797.66,426.08,799.28z"/>
			<path class="st141" d="M434.2,797.22l4.48-1.4l0.08,2.08c0.6-1.02,1.48-2.1,3.24-2.1c1.64,0,3.08,1.14,3.08,3.8v4.42
				c0,2,0.02,2.22,1.36,2.4v0.32h-5.72v-0.32c1.1-0.18,1.12-0.4,1.12-2.4v-3.84c0-1.48-0.64-2.28-1.64-2.28
				c-0.64,0-1.1,0.24-1.4,0.54v5.58c0,2,0.02,2.22,1.14,2.4v0.32h-5.74v-0.32c1.34-0.18,1.36-0.4,1.36-2.4v-4.48
				c0-1.76-0.04-1.94-1.36-2V797.22z"/>
			<path class="st141" d="M448.6,803.58v-6.6h-1.62v-1h1.68v-1.06l3.18-2.66v3.72h2.64v1h-2.64v6.04c0,1.92,0.32,2.26,1.28,2.26
				c0.4,0,0.9-0.14,1.46-0.58l0.22,0.2c-0.76,0.98-1.64,2.1-3.34,2.1C449.82,807,448.6,806.28,448.6,803.58z"/>
			<path class="st141" d="M462.98,807c-1.66,0-3.04-1.32-3.04-2.74c0-1.2,1.02-1.94,3.24-3c0.54-0.26,1.42-0.66,2.88-1.26v-0.58
				c0-2.12-0.44-2.78-1.56-2.78c-1.4,0-1.74,1.22-1.66,2.9h-2.68c-0.06-1.66,2-3.76,4.9-3.76c2.52,0,4.14,0.94,4.08,3.7l-0.1,4.58
				c-0.02,0.7,0.08,1.44,0.68,1.44c0.32,0,0.56-0.12,0.84-0.34l0.24,0.26c-0.52,0.72-1.42,1.54-2.66,1.54c-1.04,0-1.92-0.6-2.1-1.86
				C465.26,806.2,464.42,807,462.98,807z M466.02,800.8c-1.16,0.42-1.66,0.7-2.02,0.92c-0.78,0.48-1.08,1.04-1.08,1.64
				c0,1,0.62,1.92,1.68,1.92c0.5,0,0.92-0.18,1.36-0.68L466.02,800.8z"/>
			<path class="st141" d="M479.32,796.22v3.2h-0.36c-0.44-2.22-2.02-2.88-3.18-2.88c-0.94,0-1.44,0.48-1.44,1.08
				c0,0.72,0.44,1.2,1.46,1.7l1.2,0.58c2.24,1.08,3.1,2.16,3.1,3.68c0,2.32-2.38,3.42-4.5,3.42c-1.06,0-2.42-0.2-3.38-0.62v-3.6
				h0.36c0.7,2.56,1.96,3.38,3.44,3.38c0.8,0,1.66-0.36,1.66-1.22c0-0.72-0.4-1.26-1.86-1.96l-1.08-0.52
				c-1.58-0.76-2.56-2.02-2.56-3.62c0-2,1.86-3.08,4.04-3.08C477.36,795.76,478.56,795.94,479.32,796.22z"/>
			<path class="st141" d="M488.98,807c-1.66,0-3.04-1.32-3.04-2.74c0-1.2,1.02-1.94,3.24-3c0.54-0.26,1.42-0.66,2.88-1.26v-0.58
				c0-2.12-0.44-2.78-1.56-2.78c-1.4,0-1.74,1.22-1.66,2.9h-2.68c-0.06-1.66,2-3.76,4.9-3.76c2.52,0,4.14,0.94,4.08,3.7l-0.1,4.58
				c-0.02,0.7,0.08,1.44,0.68,1.44c0.32,0,0.56-0.12,0.84-0.34l0.24,0.26c-0.52,0.72-1.42,1.54-2.66,1.54c-1.04,0-1.92-0.6-2.1-1.86
				C491.26,806.2,490.42,807,488.98,807z M492.02,800.8c-1.16,0.42-1.66,0.7-2.02,0.92c-0.78,0.48-1.08,1.04-1.08,1.64
				c0,1,0.62,1.92,1.68,1.92c0.5,0,0.92-0.18,1.36-0.68L492.02,800.8z"/>
			<path class="st141" d="M502.94,803.58v-6.6h-1.62v-1H503v-1.06l3.18-2.66v3.72h2.64v1h-2.64v6.04c0,1.92,0.32,2.26,1.28,2.26
				c0.4,0,0.9-0.14,1.46-0.58l0.22,0.2c-0.76,0.98-1.64,2.1-3.34,2.1C504.16,807,502.94,806.28,502.94,803.58z"/>
			<path class="st141" d="M514.66,804.02c0,2,0.1,2.22,1.64,2.4v0.32h-6.24v-0.32c1.34-0.18,1.36-0.4,1.36-2.4v-4.48
				c0-1.76-0.04-1.94-1.36-2v-0.32l4.48-1.4l0.06,2.28c0.74-0.96,1.66-2.24,2.92-2.24c1.06,0,1.8,0.66,1.8,1.76
				c0,1.2-0.8,1.92-1.6,1.92c-0.48,0-0.6-0.08-0.9-0.48l-0.58-0.78c-0.28-0.38-0.36-0.4-0.52-0.4c-0.26,0-0.7,0.3-1.06,0.8V804.02z"
				/>
			<path class="st141" d="M519.78,801.76c0-3.38,2.42-5.96,5.3-5.96c2.64,0,4.44,1.58,4.54,4.28h-7.02c0,0.16-0.02,0.32-0.02,0.48
				c0,2.64,1.66,4.12,3.84,4.12c1.02,0,2.2-0.38,2.84-1.04l0.24,0.2c-0.78,1.38-2.38,3.16-4.76,3.16
				C521.6,807,519.78,804.72,519.78,801.76z M522.64,799.28h3.98c-0.04-1.56-0.68-2.64-1.86-2.64
				C523.52,796.64,522.78,797.66,522.64,799.28z"/>
			<path class="st141" d="M531.32,801.76c0-3.38,2.42-5.96,5.3-5.96c2.64,0,4.44,1.58,4.54,4.28h-7.02c0,0.16-0.02,0.32-0.02,0.48
				c0,2.64,1.66,4.12,3.84,4.12c1.02,0,2.2-0.38,2.84-1.04l0.24,0.2c-0.78,1.38-2.38,3.16-4.76,3.16
				C533.14,807,531.32,804.72,531.32,801.76z M534.18,799.28h3.98c-0.04-1.56-0.68-2.64-1.86-2.64
				C535.06,796.64,534.32,797.66,534.18,799.28z"/>
			<path class="st141" d="M554.54,806.42v0.32h-5.72v-0.32c1.1-0.18,1.12-0.4,1.12-2.4v-3.84c0-1.48-0.64-2.28-1.64-2.28
				c-0.64,0-1.1,0.24-1.4,0.54v5.58c0,2,0.02,2.22,1.14,2.4v0.32h-5.74v-0.32c1.34-0.18,1.36-0.4,1.36-2.4v-4.48
				c0-1.76-0.04-1.94-1.36-2v-0.32l4.48-1.4l0.08,2.08c0.6-1.02,1.48-2.1,3.24-2.1c1.26,0,2.4,0.68,2.86,2.22
				c0.62-1.02,1.68-2.22,3.42-2.22c1.64,0,3.08,1.14,3.08,3.8v4.42c0,2,0.02,2.22,1.36,2.4v0.32h-5.72v-0.32
				c1.1-0.18,1.12-0.4,1.12-2.4v-3.84c0-1.48-0.64-2.28-1.64-2.28c-0.58,0-1.18,0.24-1.5,0.58c0.06,0.34,0.1,0.72,0.1,1.12v4.42
				C553.18,806.02,553.2,806.24,554.54,806.42z"/>
			<path class="st141" d="M564.86,807c-1.66,0-3.04-1.32-3.04-2.74c0-1.2,1.02-1.94,3.24-3c0.54-0.26,1.42-0.66,2.88-1.26v-0.58
				c0-2.12-0.44-2.78-1.56-2.78c-1.4,0-1.74,1.22-1.66,2.9h-2.68c-0.06-1.66,2-3.76,4.9-3.76c2.52,0,4.14,0.94,4.08,3.7l-0.1,4.58
				c-0.02,0.7,0.08,1.44,0.68,1.44c0.32,0,0.56-0.12,0.84-0.34l0.24,0.26c-0.52,0.72-1.42,1.54-2.66,1.54c-1.04,0-1.92-0.6-2.1-1.86
				C567.14,806.2,566.3,807,564.86,807z M567.9,800.8c-1.16,0.42-1.66,0.7-2.02,0.92c-0.78,0.48-1.08,1.04-1.08,1.64
				c0,1,0.62,1.92,1.68,1.92c0.5,0,0.92-0.18,1.36-0.68L567.9,800.8z"/>
			<path class="st141" d="M580.92,795.8c2.46,0,4.06,2.28,4.06,5.18c0,3.68-2.46,6.02-5.16,6.02c-0.74,0-1.62-0.3-2.02-0.72v2.06
				c0,2,0.24,2.22,2.02,2.4v0.32h-6.62v-0.32c1.34-0.18,1.36-0.4,1.36-2.4v-8.8c0-1.76-0.04-1.94-1.36-2v-0.32l4.5-1.4v2.06
				C578.14,797,579.3,795.8,580.92,795.8z M581.72,802.54c0-2.34-0.98-4.66-2.66-4.66c-0.56,0-1,0.14-1.26,0.48v6.88
				c0.3,0.6,1,1.04,1.74,1.04C580.82,806.28,581.72,805.08,581.72,802.54z"/>
			<path class="st141" d="M600.4,803.14c0,1.76,0.04,1.94,1.36,2v0.32l-4.22,1.46l-0.34-2.06c-0.54,1.1-1.46,2.14-3.02,2.14
				c-1.72,0-3.16-1.04-3.16-3.76v-3.86c0-1.4,0-2.22-1.36-2.3v-0.28l4.68-0.82c-0.02,1.02-0.08,2.26-0.08,4.24v2.44
				c0,1.48,0.46,2.38,1.48,2.38c0.54,0,1.02-0.18,1.42-0.66v-5c0-1.4,0-2.22-1.36-2.3v-0.28l4.68-0.82
				c-0.02,1.02-0.08,2.36-0.08,4.34V803.14z"/>
			<path class="st141" d="M610.66,796.22v3.2h-0.36c-0.44-2.22-2.02-2.88-3.18-2.88c-0.94,0-1.44,0.48-1.44,1.08
				c0,0.72,0.44,1.2,1.46,1.7l1.2,0.58c2.24,1.08,3.1,2.16,3.1,3.68c0,2.32-2.38,3.42-4.5,3.42c-1.06,0-2.42-0.2-3.38-0.62v-3.6
				h0.36c0.7,2.56,1.96,3.38,3.44,3.38c0.8,0,1.66-0.36,1.66-1.22c0-0.72-0.4-1.26-1.86-1.96l-1.08-0.52
				c-1.58-0.76-2.56-2.02-2.56-3.62c0-2,1.86-3.08,4.04-3.08C608.7,795.76,609.9,795.94,610.66,796.22z"/>
			<path class="st141" d="M617.66,804.02c0,2,0.02,2.22,1.36,2.4v0.32h-5.96v-0.32c1.34-0.18,1.36-0.4,1.36-2.4v-4.48
				c0-1.76-0.04-1.94-1.36-2v-0.32l4.68-1.42c-0.02,1.04-0.08,2.48-0.08,4.48V804.02z M614.13,792.06c0-1.04,0.88-1.9,1.96-1.9
				c1.06,0,1.94,0.86,1.94,1.9c0,1.08-0.88,1.96-1.94,1.96C615.02,794.02,614.13,793.14,614.13,792.06z"/>
			<path class="st141" d="M619.95,797.22l4.48-1.4l0.08,2.08c0.6-1.02,1.48-2.1,3.24-2.1c1.64,0,3.08,1.14,3.08,3.8v4.42
				c0,2,0.02,2.22,1.36,2.4v0.32h-5.72v-0.32c1.1-0.18,1.12-0.4,1.12-2.4v-3.84c0-1.48-0.64-2.28-1.64-2.28
				c-0.64,0-1.1,0.24-1.4,0.54v5.58c0,2,0.02,2.22,1.14,2.4v0.32h-5.74v-0.32c1.34-0.18,1.36-0.4,1.36-2.4v-4.48
				c0-1.76-0.04-1.94-1.36-2V797.22z"/>
			<path class="st141" d="M638.14,795.76c1.26,0,2.42,0.3,3.28,0.88h3.2v0.94h-2.28c0.3,0.48,0.48,1.06,0.48,1.72
				c0,2.4-2.16,3.56-4.68,3.56c-0.52,0-1.02-0.04-1.5-0.14c-0.62,0.66-1,1-1,1.4c0,0.36,0.18,0.7,1.34,0.74l2.2,0.08
				c2.4,0.08,4.7,0.72,4.7,2.58c0,2.12-2.52,3.74-6.44,3.74c-2.74,0-4.7-0.8-4.7-2.12c0-0.74,1.16-1.44,2.34-1.88
				c-1-0.34-1.46-1-1.46-1.74c0-1,1.24-2.08,2.32-3c-1.44-0.52-2.46-1.56-2.46-3.22C633.47,796.92,635.64,795.76,638.14,795.76z
				 M636.6,807.5c-0.38-0.02-0.72-0.04-1.02-0.1c-0.3,0.3-0.44,0.68-0.44,1.12c0,1.24,1.76,1.76,3.48,1.76
				c1.84,0,3.54-0.5,3.54-1.48c0-0.9-1.04-1.14-2.84-1.2L636.6,807.5z M639.74,800.26c0-1.84-0.56-3.84-1.86-3.84
				c-0.92,0-1.34,0.58-1.34,1.94c0,1.84,0.54,3.84,1.86,3.84C639.32,802.2,639.74,801.62,639.74,800.26z"/>
			<path class="st141" d="M655.16,803.82c0,2.06,0.24,2.36,2.26,2.6v0.32h-7.76v-0.32c1.74-0.24,1.98-0.54,1.98-2.6v-8.66
				c0-2.06-0.24-2.36-1.98-2.6v-0.32h3.22c0.2,0,3.16-0.02,3.3-0.02c4.12,0,7.08,0.86,7.08,3.74c0,2-1.42,3.02-3.64,3.46l3.38,5.18
				c0.92,1.4,1.22,1.62,2.5,1.82v0.32h-5.3c-0.46-0.9-0.96-1.72-1.76-3.04l-0.5-0.8c-0.9-1.44-1.52-2.32-2.14-3.2h-0.64V803.82z
				 M655.9,799.02c2.04,0,3.46-0.86,3.46-3.06c0-2.2-1.42-3.06-3.46-3.06h-0.74v6.12H655.9z"/>
			<path class="st141" d="M665.39,806.42c1.14-0.22,1.4-0.52,2.54-3.44l4.1-10.56c0.72-0.14,1.58-0.5,2.02-1.04h0.1l5.08,12.94
				c0.56,1.42,0.8,1.9,1.92,2.1v0.32h-6.58v-0.32c1.14-0.16,1.34-0.68,0.96-1.66l-1.1-2.82h-5.16l-0.14,0.36
				c-1.46,3.72-0.1,3.96,1.16,4.12v0.32h-4.9V806.42z M669.63,801.02h4.44l-2.2-5.66L669.63,801.02z"/>
			<path class="st141" d="M699.74,792.56c-1.14,0.22-1.8,0.38-2.54,3.44l-2.6,10.74h-2.96l-2.5-8.68l-2.12,8.68h-2.96l-3.52-12.14
				c-0.44-1.48-0.76-1.84-1.88-2.04v-0.32h6.62v0.32c-1.14,0.16-1.26,0.6-1,1.6l2.46,9.46l1.82-7.52l-1.1-3.86h3.88l2.98,11.38
				l1.68-6.94c0.94-3.88,0.08-3.96-1.16-4.12v-0.32h4.9V792.56z"/>
			<path class="st141" d="M715.26,800.1v0.32c-1.52,0.24-1.34,0.52-1.34,2.6v2.44c-1.34,0.94-3.8,1.54-6.18,1.54
				c-4.36,0-7.9-2.68-7.9-7.54c0-4.86,4.06-7.62,8.3-7.62c1.5,0,3.56,0.26,4.76,0.8l0.48,4.66h-0.42c-0.72-2.02-2.24-4.68-4.84-4.68
				c-2.48,0-4.38,2.66-4.38,6.84c0,4.1,1.62,6.76,4.46,6.76c1.2,0,2.26-0.24,2.26-1.66v-1.54c0-2.06-0.24-2.36-1.98-2.6v-0.32
				H715.26z"/>
			<path class="st141" d="M720.89,804.02c0,2,0.1,2.22,1.64,2.4v0.32h-6.24v-0.32c1.34-0.18,1.36-0.4,1.36-2.4v-4.48
				c0-1.76-0.04-1.94-1.36-2v-0.32l4.48-1.4l0.06,2.28c0.74-0.96,1.66-2.24,2.92-2.24c1.06,0,1.8,0.66,1.8,1.76
				c0,1.2-0.8,1.92-1.6,1.92c-0.48,0-0.6-0.08-0.9-0.48l-0.58-0.78c-0.28-0.38-0.36-0.4-0.52-0.4c-0.26,0-0.7,0.3-1.06,0.8V804.02z"
				/>
			<path class="st141" d="M729.11,807c-1.66,0-3.04-1.32-3.04-2.74c0-1.2,1.02-1.94,3.24-3c0.54-0.26,1.42-0.66,2.88-1.26v-0.58
				c0-2.12-0.44-2.78-1.56-2.78c-1.4,0-1.74,1.22-1.66,2.9h-2.68c-0.06-1.66,2-3.76,4.9-3.76c2.52,0,4.14,0.94,4.08,3.7l-0.1,4.58
				c-0.02,0.7,0.08,1.44,0.68,1.44c0.32,0,0.56-0.12,0.84-0.34l0.24,0.26c-0.52,0.72-1.42,1.54-2.66,1.54c-1.04,0-1.92-0.6-2.1-1.86
				C731.39,806.2,730.56,807,729.11,807z M732.16,800.8c-1.16,0.42-1.66,0.7-2.02,0.92c-0.78,0.48-1.08,1.04-1.08,1.64
				c0,1,0.62,1.92,1.68,1.92c0.5,0,0.92-0.18,1.36-0.68L732.16,800.8z"/>
			<path class="st141" d="M745.18,795.8c2.46,0,4.06,2.28,4.06,5.18c0,3.68-2.46,6.02-5.16,6.02c-0.74,0-1.62-0.3-2.02-0.72v2.06
				c0,2,0.24,2.22,2.02,2.4v0.32h-6.62v-0.32c1.34-0.18,1.36-0.4,1.36-2.4v-8.8c0-1.76-0.04-1.94-1.36-2v-0.32l4.5-1.4v2.06
				C742.39,797,743.56,795.8,745.18,795.8z M745.98,802.54c0-2.34-0.98-4.66-2.66-4.66c-0.56,0-1,0.14-1.26,0.48v6.88
				c0.3,0.6,1,1.04,1.74,1.04C745.08,806.28,745.98,805.08,745.98,802.54z"/>
			<path class="st141" d="M754.91,794.76v3.12c0.5-0.92,1.44-2.08,3.2-2.08c1.64,0,3.08,1.14,3.08,3.8v4.42c0,2,0.02,2.22,1.36,2.4
				v0.32h-5.72v-0.32c1.1-0.18,1.12-0.4,1.12-2.4v-3.84c0-1.48-0.64-2.28-1.64-2.28c-0.64,0-1.1,0.24-1.4,0.54v5.58
				c0,2,0.02,2.22,1.36,2.4v0.32h-5.96v-0.32c1.34-0.18,1.36-0.4,1.36-2.4v-10c0-1.76-0.04-1.94-1.36-2v-0.32l4.68-1.42
				C754.98,791.32,754.91,792.76,754.91,794.76z"/>
		</g>
	</g>
	<g>
		<rect x="1052.04" y="149.08" class="st142" width="187.66" height="156.66"/>
		<rect x="372.92" y="149.08" class="st142" width="406.39" height="224.88"/>
		<rect x="372.92" y="409.22" class="st142" width="406.39" height="66.32"/>
		<rect x="372.92" y="510.79" class="st142" width="406.39" height="261.47"/>
		<rect x="812.01" y="149.08" class="st142" width="217.19" height="156.66"/>
		<rect x="1264.21" y="149.08" class="st142" width="40" height="156.66"/>
		<rect x="810.23" y="341" class="st142" width="255.86" height="18.69"/>
		<rect x="810.23" y="394.94" class="st142" width="255.86" height="377.32"/>
		<rect x="1095.52" y="341" class="st142" width="208.05" height="163.73"/>
		<rect x="1096.16" y="539.99" class="st142" width="208.05" height="232.28"/>
		<g>
			<g>
				<path class="st141" d="M396.41,182.6c2.29,0,3.57-1.47,4.03-2.72l0.43,0.16c-0.42,1.65-2.1,3.33-4.74,3.33
					c-3.65,0-5.76-2.77-5.76-6.08c0-3.75,2.87-6.05,6.21-6.05c1.17,0,2.29,0.19,3.41,0.64l0.34,3.51h-0.29
					c-0.61-2.67-1.82-3.57-3.78-3.57c-1.94,0-3.94,1.57-3.94,5.49C392.33,180.63,393.95,182.6,396.41,182.6z"/>
				<path class="st141" d="M410.57,178.87c0,2.51-1.9,4.5-4.26,4.5c-2.26,0-4.37-1.84-4.37-4.48c0-2.53,1.87-4.48,4.26-4.48
					C408.48,174.4,410.57,176.23,410.57,178.87z M403.71,178.31c0,1.58,0.74,4.42,2.8,4.42c1.54,0,2.29-1.2,2.29-3.27
					c0-1.6-0.72-4.42-2.75-4.42C404.48,175.04,403.71,176.24,403.71,178.31z"/>
				<path class="st141" d="M411.61,175.38l2.85-0.98l0.03,1.44c0.58-0.69,1.36-1.44,2.54-1.44c1.04,0,1.9,0.53,2.27,1.7
					c0.66-0.88,1.6-1.7,2.74-1.7c1.39,0,2.46,0.93,2.46,3.04v3.41c0,1.65,0.02,1.87,1.28,2.02v0.29h-4.16v-0.29
					c1.26-0.14,1.28-0.37,1.28-2.02v-3.09c0-1.52-0.54-2.24-1.66-2.24c-0.64,0-1.39,0.32-1.84,0.91c0.06,0.3,0.1,0.64,0.1,1.01v3.41
					c0,1.65,0.02,1.87,1.28,2.02v0.29h-4.16v-0.29c1.26-0.14,1.28-0.37,1.28-2.02v-3.09c0-1.52-0.54-2.24-1.67-2.24
					c-0.66,0-1.39,0.22-1.74,0.75v4.58c0,1.65,0.02,1.87,1.28,2.02v0.29h-4.16v-0.29c1.26-0.14,1.28-0.37,1.28-2.02v-3.6
					c0-1.58,0-1.58-1.28-1.58V175.38z"/>
				<path class="st141" d="M426.59,178.92c0-2.51,1.78-4.51,3.94-4.51c1.6,0,3.06,1.1,3.25,3.47h-5.75v0.06
					c0,2.31,1.07,4.03,3.14,4.03c1.17,0,2.03-0.51,2.58-1.07l0.18,0.16c-0.53,0.98-1.65,2.3-3.51,2.3
					C427.8,183.37,426.59,181.44,426.59,178.92z M428.06,177.25h3.78c-0.02-1.47-0.67-2.27-1.7-2.27
					C429.2,174.98,428.27,175.62,428.06,177.25z"/>
				<path class="st141" d="M439.87,171.25v-0.29l3.07-0.98c-0.02,0.85-0.03,1.86-0.03,3.51v7.06c0,1.5,0,1.55,1.25,1.6v0.27
					l-2.59,0.86l-0.21-1.38c-0.51,0.83-1.41,1.46-2.56,1.46c-2.13,0-3.46-1.82-3.46-4.21c0-2.74,1.97-4.75,4.05-4.75
					c0.56,0,1.33,0.13,1.92,0.72v-2.37C441.31,171.26,441.31,171.25,439.87,171.25z M437.04,178.55c0,2.24,1.1,3.75,2.66,3.75
					c0.62,0,1.25-0.26,1.62-0.78v-5.44c-0.35-0.75-1.12-1.1-1.94-1.1C437.77,174.96,437.04,176.53,437.04,178.55z"/>
				<path class="st141" d="M445.4,185.65c0-0.58,0.42-0.9,0.74-0.9c0.11,0,0.29,0.03,0.5,0.26l0.78,0.82
					c0.26-0.42,0.48-0.88,0.91-1.9l0.3-0.72l-3.07-7.3c-0.32-0.75-0.48-1.02-1.09-1.07v-0.29h3.78v0.29
					c-1.23,0.06-1.17,0.5-0.85,1.26l2.15,5.11l1.78-4.26c0.58-1.39,0.54-1.9-0.61-2.11v-0.29h3.07v0.29
					c-0.83,0.16-0.94,0.45-1.41,1.57l-3.38,7.94c-0.67,1.57-1.07,2.35-2.19,2.35C445.93,186.7,445.4,186.28,445.4,185.65z"/>
			</g>
		</g>
		<g>
			<g>
				<path class="st141" d="M396.41,441.82c2.29,0,3.57-1.47,4.03-2.72l0.43,0.16c-0.42,1.65-2.1,3.33-4.74,3.33
					c-3.65,0-5.76-2.77-5.76-6.08c0-3.75,2.87-6.05,6.21-6.05c1.17,0,2.29,0.19,3.41,0.64l0.34,3.51h-0.29
					c-0.61-2.67-1.82-3.57-3.78-3.57c-1.94,0-3.94,1.57-3.94,5.49C392.33,439.85,393.95,441.82,396.41,441.82z"/>
				<path class="st141" d="M401.68,442.09c1.26-0.14,1.28-0.37,1.28-2.02v-3.6c0-1.58,0-1.58-1.28-1.58v-0.29l2.85-0.98l0.03,1.62
					c0.61-0.77,1.31-1.63,2.32-1.63c0.7,0,1.15,0.42,1.15,1.01c0,0.54-0.35,0.98-0.91,0.98c-0.21,0-0.32-0.05-0.51-0.21l-0.53-0.46
					c-0.11-0.1-0.18-0.14-0.27-0.14c-0.3,0-0.82,0.35-1.25,0.93v4.37c0,1.81,0.08,1.9,1.94,2v0.3h-4.82V442.09z"/>
				<path class="st141" d="M411.76,440.07c0,1.65,0.02,1.87,1.28,2.02v0.29h-4.16v-0.29c1.26-0.14,1.28-0.37,1.28-2.02v-3.6
					c0-1.58,0-1.58-1.28-1.58v-0.29l2.91-0.98c-0.02,0.85-0.03,1.86-0.03,3.51V440.07z M409.74,430.55c0-0.61,0.51-1.09,1.14-1.09
					c0.64,0,1.12,0.48,1.12,1.09c0,0.62-0.48,1.09-1.12,1.09C410.25,431.64,409.74,431.17,409.74,430.55z"/>
				<path class="st141" d="M413.92,434.6l2.85-0.98l0.03,1.44c0.58-0.69,1.36-1.44,2.54-1.44c1.04,0,1.9,0.53,2.27,1.7
					c0.66-0.88,1.6-1.7,2.74-1.7c1.39,0,2.46,0.93,2.46,3.04v3.41c0,1.65,0.02,1.87,1.28,2.02v0.29h-4.16v-0.29
					c1.26-0.14,1.28-0.37,1.28-2.02v-3.09c0-1.52-0.54-2.24-1.66-2.24c-0.64,0-1.39,0.32-1.84,0.91c0.06,0.3,0.1,0.64,0.1,1.01v3.41
					c0,1.65,0.02,1.87,1.28,2.02v0.29h-4.16v-0.29c1.26-0.14,1.28-0.37,1.28-2.02v-3.09c0-1.52-0.54-2.24-1.67-2.24
					c-0.66,0-1.39,0.22-1.74,0.75v4.58c0,1.65,0.02,1.87,1.28,2.02v0.29h-4.16v-0.29c1.26-0.14,1.28-0.37,1.28-2.02v-3.6
					c0-1.58,0-1.58-1.28-1.58V434.6z"/>
				<path class="st141" d="M428.89,438.13c0-2.51,1.78-4.51,3.94-4.51c1.6,0,3.06,1.1,3.25,3.47h-5.75v0.06
					c0,2.31,1.07,4.03,3.14,4.03c1.17,0,2.03-0.51,2.58-1.07l0.18,0.16c-0.53,0.98-1.65,2.3-3.51,2.3
					C430.11,442.58,428.89,440.66,428.89,438.13z M430.36,436.47h3.78c-0.02-1.47-0.67-2.27-1.7-2.27
					C431.5,434.2,430.57,434.84,430.36,436.47z"/>
			</g>
		</g>
		<g>
			<g>
				<path class="st141" d="M395.42,536.15c3.01,0,6.07,1.7,6.07,5.79s-3.06,5.81-6.07,5.81h-5.22v-0.29
					c1.39-0.19,1.58-0.24,1.58-2.05v-6.93c0-1.81-0.19-1.86-1.58-2.05v-0.29H395.42z M395.42,547.18c2.32,0,4.11-1.81,4.11-5.23
					c0-3.43-1.79-5.22-4.11-5.22h-1.87v10.45H395.42z"/>
				<path class="st141" d="M402.57,547.47c1.26-0.14,1.28-0.37,1.28-2.02v-3.6c0-1.58,0-1.58-1.28-1.58v-0.29l2.85-0.98l0.03,1.62
					c0.61-0.77,1.31-1.63,2.32-1.63c0.7,0,1.15,0.42,1.15,1.01c0,0.54-0.35,0.98-0.91,0.98c-0.21,0-0.32-0.05-0.51-0.21l-0.53-0.46
					c-0.11-0.1-0.18-0.14-0.27-0.14c-0.3,0-0.82,0.35-1.25,0.93v4.37c0,1.81,0.08,1.9,1.94,2v0.3h-4.82V547.47z"/>
				<path class="st141" d="M413.28,547.66c-0.35,0.22-0.78,0.3-1.33,0.3c-1.18,0-2.53-0.85-2.53-2.11c0-1.02,0.9-1.65,2.58-2.45
					c0.43-0.21,1.31-0.61,2.5-1.12v-0.37c0-1.7-0.58-2.27-1.65-2.27c-1.49,0-1.68,0.99-1.6,2.23h-1.62c0.02-1.33,1.54-2.85,3.6-2.85
					c1.5,0,2.83,0.58,2.79,2.72l-0.08,4.15c-0.02,0.9,0.14,1.04,0.58,1.04c0.26,0,0.48-0.14,0.7-0.32l0.16,0.16
					c-0.42,0.53-0.85,1.15-1.62,1.15c-0.66,0-1.23-0.38-1.3-1.18C414.11,547.07,413.68,547.42,413.28,547.66z M414.46,542.86
					c-1.33,0.48-2,0.88-2.27,1.04c-0.69,0.42-1.02,0.82-0.99,1.49c0.05,0.8,0.69,1.68,1.68,1.68c0.59,0,1.1-0.34,1.54-0.78
					L414.46,542.86z"/>
				<path class="st141" d="M417.9,539.98l2.85-0.98l0.03,1.44c0.58-0.69,1.36-1.44,2.54-1.44c1.04,0,1.9,0.53,2.27,1.7
					c0.66-0.88,1.6-1.7,2.74-1.7c1.39,0,2.46,0.93,2.46,3.04v3.41c0,1.65,0.02,1.87,1.28,2.02v0.29h-4.16v-0.29
					c1.26-0.14,1.28-0.37,1.28-2.02v-3.09c0-1.52-0.54-2.24-1.66-2.24c-0.64,0-1.39,0.32-1.84,0.91c0.06,0.3,0.1,0.64,0.1,1.01v3.41
					c0,1.65,0.02,1.87,1.28,2.02v0.29h-4.16v-0.29c1.26-0.14,1.28-0.37,1.28-2.02v-3.09c0-1.52-0.54-2.24-1.67-2.24
					c-0.66,0-1.39,0.22-1.74,0.75v4.58c0,1.65,0.02,1.87,1.28,2.02v0.29h-4.16v-0.29c1.26-0.14,1.28-0.37,1.28-2.02v-3.6
					c0-1.58,0-1.58-1.28-1.58V539.98z"/>
				<path class="st141" d="M436.78,547.66c-0.35,0.22-0.78,0.3-1.33,0.3c-1.18,0-2.53-0.85-2.53-2.11c0-1.02,0.9-1.65,2.58-2.45
					c0.43-0.21,1.31-0.61,2.5-1.12v-0.37c0-1.7-0.58-2.27-1.65-2.27c-1.49,0-1.68,0.99-1.6,2.23h-1.62c0.02-1.33,1.54-2.85,3.6-2.85
					c1.5,0,2.83,0.58,2.79,2.72l-0.08,4.15c-0.02,0.9,0.14,1.04,0.58,1.04c0.26,0,0.48-0.14,0.7-0.32l0.16,0.16
					c-0.42,0.53-0.85,1.15-1.62,1.15c-0.66,0-1.23-0.38-1.3-1.18C437.61,547.07,437.18,547.42,436.78,547.66z M437.97,542.86
					c-1.33,0.48-2,0.88-2.27,1.04c-0.69,0.42-1.02,0.82-0.99,1.49c0.05,0.8,0.69,1.68,1.68,1.68c0.59,0,1.1-0.34,1.54-0.78
					L437.97,542.86z"/>
			</g>
		</g>
		<g>
			<g>
				<path class="st141" d="M826.93,182.87c1.39-0.19,1.58-0.24,1.58-2.05v-6.93c0-1.81-0.19-1.86-1.58-2.05v-0.29h6.05
					c0.98,0,2.35,0,3.54-0.05l0.46,3.51h-0.29c-0.91-2.85-2.16-2.88-5.09-2.88h-1.33v4.69h2.3c0.91,0,1.49-0.45,1.65-1.79h0.29v4.29
					h-0.29c-0.16-1.34-0.74-1.79-1.65-1.79h-2.3v3.31c0,1.58,0.03,1.89,1.73,2.02v0.3h-5.07V182.87z"/>
				<path class="st141" d="M841.17,183.06c-0.35,0.22-0.78,0.3-1.33,0.3c-1.18,0-2.53-0.85-2.53-2.11c0-1.02,0.9-1.65,2.58-2.45
					c0.43-0.21,1.31-0.61,2.5-1.12v-0.37c0-1.7-0.58-2.27-1.65-2.27c-1.49,0-1.68,0.99-1.6,2.22h-1.62c0.02-1.33,1.54-2.85,3.6-2.85
					c1.5,0,2.83,0.58,2.79,2.72l-0.08,4.15c-0.02,0.9,0.14,1.04,0.58,1.04c0.26,0,0.48-0.14,0.7-0.32l0.16,0.16
					c-0.42,0.53-0.85,1.15-1.62,1.15c-0.66,0-1.23-0.38-1.3-1.18C842,182.47,841.57,182.82,841.17,183.06z M842.35,178.26
					c-1.33,0.48-2,0.88-2.27,1.04c-0.69,0.42-1.02,0.82-0.99,1.49c0.05,0.8,0.69,1.68,1.68,1.68c0.59,0,1.1-0.34,1.54-0.78
					L842.35,178.26z"/>
				<path class="st141" d="M845.76,175.38l2.85-0.98l0.03,1.44c0.58-0.69,1.36-1.44,2.54-1.44c1.39,0,2.42,0.93,2.42,3.04v3.41
					c0,1.65,0.02,1.87,1.28,2.02v0.29h-4.16v-0.29c1.26-0.14,1.28-0.37,1.28-2.02v-3.09c0-1.52-0.5-2.24-1.62-2.24
					c-0.66,0-1.39,0.22-1.75,0.75v4.58c0,1.65,0.02,1.87,1.28,2.02v0.29h-4.16v-0.29c1.26-0.14,1.28-0.37,1.28-2.02v-3.6
					c0-1.58,0-1.58-1.28-1.58V175.38z"/>
				<path class="st141" d="M856.4,180.92v-5.75h-1.41v-0.62h1.41v-1.5l1.6-1.07v2.58h2.07v0.62H858v5.46c0,1.2,0.27,1.68,1.12,1.68
					c0.4,0,0.86-0.14,1.23-0.5l0.14,0.13c-0.4,0.72-1.02,1.42-2.13,1.42C857.13,183.37,856.4,182.69,856.4,180.92z"/>
				<path class="st141" d="M865.01,183.06c-0.35,0.22-0.78,0.3-1.33,0.3c-1.18,0-2.53-0.85-2.53-2.11c0-1.02,0.9-1.65,2.58-2.45
					c0.43-0.21,1.31-0.61,2.5-1.12v-0.37c0-1.7-0.58-2.27-1.65-2.27c-1.49,0-1.68,0.99-1.6,2.22h-1.62c0.02-1.33,1.54-2.85,3.6-2.85
					c1.5,0,2.83,0.58,2.79,2.72l-0.08,4.15c-0.02,0.9,0.14,1.04,0.58,1.04c0.26,0,0.48-0.14,0.7-0.32l0.16,0.16
					c-0.42,0.53-0.85,1.15-1.62,1.15c-0.66,0-1.23-0.38-1.3-1.18C865.84,182.47,865.41,182.82,865.01,183.06z M866.19,178.26
					c-1.33,0.48-2,0.88-2.27,1.04c-0.69,0.42-1.02,0.82-0.99,1.49c0.05,0.8,0.69,1.68,1.68,1.68c0.59,0,1.1-0.34,1.54-0.78
					L866.19,178.26z"/>
				<path class="st141" d="M875.49,174.79v2.39h-0.34c-0.3-1.54-1.02-2.13-2.08-2.13c-0.82,0-1.55,0.43-1.55,1.15
					c0,0.69,0.61,1.07,1.36,1.46l0.91,0.48c1.34,0.69,2.18,1.25,2.18,2.71c0,1.6-1.54,2.53-3.12,2.53c-0.8,0-1.87-0.24-2.56-0.61
					v-2.99h0.32c0.26,2,1.06,2.87,2.35,2.87c0.83,0,1.71-0.37,1.71-1.41c0-0.7-0.58-1.12-1.47-1.57l-0.91-0.48
					c-1.18-0.61-1.97-1.18-1.97-2.5c0-1.6,1.78-2.27,3.1-2.27C874.02,174.4,874.96,174.55,875.49,174.79z"/>
				<path class="st141" d="M877.84,185.65c0-0.58,0.42-0.9,0.74-0.9c0.11,0,0.29,0.03,0.5,0.26l0.78,0.82
					c0.26-0.42,0.48-0.88,0.91-1.9l0.3-0.72l-3.07-7.3c-0.32-0.75-0.48-1.02-1.09-1.07v-0.29h3.78v0.29
					c-1.23,0.06-1.17,0.5-0.85,1.26l2.15,5.11l1.78-4.26c0.58-1.39,0.54-1.9-0.61-2.11v-0.29h3.07v0.29
					c-0.83,0.16-0.94,0.45-1.41,1.57l-3.38,7.94c-0.67,1.57-1.07,2.35-2.19,2.35C878.37,186.7,877.84,186.28,877.84,185.65z"/>
			</g>
		</g>
		<g>
			<g>
				<path class="st141" d="M1079.29,180.82c0,1.81,0.19,1.86,1.58,2.05v0.29h-4.93v-0.29c1.39-0.19,1.58-0.24,1.58-2.05v-3.3h-5.47
					v3.3c0,1.81,0.19,1.86,1.58,2.05v0.29h-4.93v-0.29c1.39-0.19,1.58-0.24,1.58-2.05v-6.93c0-1.81-0.19-1.86-1.58-2.05v-0.29h4.93
					v0.29c-1.39,0.19-1.58,0.24-1.58,2.05v2.93h5.47v-2.93c0-1.81-0.19-1.86-1.58-2.05v-0.29h4.93v0.29
					c-1.39,0.19-1.58,0.24-1.58,2.05V180.82z"/>
				<path class="st141" d="M1085.07,180.85c0,1.65,0.02,1.87,1.28,2.02v0.29h-4.16v-0.29c1.26-0.14,1.28-0.37,1.28-2.02v-3.6
					c0-1.58,0-1.58-1.28-1.58v-0.29l2.91-0.98c-0.02,0.85-0.03,1.86-0.03,3.51V180.85z M1083.05,171.33c0-0.61,0.51-1.09,1.14-1.09
					c0.64,0,1.12,0.48,1.12,1.09c0,0.62-0.48,1.09-1.12,1.09C1083.56,172.42,1083.05,171.95,1083.05,171.33z"/>
				<path class="st141" d="M1093.09,174.79v2.39h-0.34c-0.3-1.54-1.02-2.13-2.08-2.13c-0.82,0-1.55,0.43-1.55,1.15
					c0,0.69,0.61,1.07,1.36,1.46l0.91,0.48c1.34,0.69,2.18,1.25,2.18,2.71c0,1.6-1.54,2.53-3.12,2.53c-0.8,0-1.87-0.24-2.56-0.61
					v-2.99h0.32c0.26,2,1.06,2.87,2.35,2.87c0.83,0,1.71-0.37,1.71-1.41c0-0.7-0.58-1.12-1.47-1.57l-0.91-0.48
					c-1.18-0.61-1.97-1.18-1.97-2.5c0-1.6,1.78-2.27,3.1-2.27C1091.61,174.4,1092.56,174.55,1093.09,174.79z"/>
				<path class="st141" d="M1095.75,180.92v-5.75h-1.41v-0.62h1.41v-1.5l1.6-1.07v2.58h2.07v0.62h-2.07v5.46
					c0,1.2,0.27,1.68,1.12,1.68c0.4,0,0.86-0.14,1.23-0.5l0.14,0.13c-0.4,0.72-1.02,1.42-2.13,1.42
					C1096.49,183.37,1095.75,182.69,1095.75,180.92z"/>
				<path class="st141" d="M1109.12,178.87c0,2.51-1.9,4.5-4.26,4.5c-2.26,0-4.37-1.84-4.37-4.48c0-2.53,1.87-4.48,4.26-4.48
					C1107.02,174.4,1109.12,176.23,1109.12,178.87z M1102.25,178.31c0,1.58,0.74,4.42,2.8,4.42c1.54,0,2.29-1.2,2.29-3.27
					c0-1.6-0.72-4.42-2.75-4.42C1103.02,175.04,1102.25,176.24,1102.25,178.31z"/>
				<path class="st141" d="M1110.12,182.87c1.26-0.14,1.28-0.37,1.28-2.02v-3.6c0-1.58,0-1.58-1.28-1.58v-0.29l2.85-0.98l0.03,1.62
					c0.61-0.77,1.31-1.63,2.32-1.63c0.7,0,1.15,0.42,1.15,1.01c0,0.54-0.35,0.98-0.91,0.98c-0.21,0-0.32-0.05-0.51-0.21l-0.53-0.46
					c-0.11-0.1-0.18-0.14-0.27-0.14c-0.3,0-0.82,0.35-1.25,0.93v4.37c0,1.81,0.08,1.9,1.94,2v0.3h-4.82V182.87z"/>
				<path class="st141" d="M1117.64,185.65c0-0.58,0.42-0.9,0.74-0.9c0.11,0,0.29,0.03,0.5,0.26l0.78,0.82
					c0.26-0.42,0.48-0.88,0.91-1.9l0.3-0.72l-3.07-7.3c-0.32-0.75-0.48-1.02-1.09-1.07v-0.29h3.78v0.29
					c-1.23,0.06-1.17,0.5-0.85,1.26l2.15,5.11l1.78-4.26c0.58-1.39,0.54-1.9-0.61-2.11v-0.29h3.07v0.29
					c-0.83,0.16-0.94,0.45-1.41,1.57l-3.38,7.94c-0.67,1.57-1.07,2.35-2.19,2.35C1118.17,186.7,1117.64,186.28,1117.64,185.65z"/>
			</g>
		</g>
		<g>
			<g>
				<path class="st141" d="M1284.65,272.75c0.19,1.39,0.24,1.58,2.05,1.58h6.93c1.81,0,1.86-0.19,2.05-1.58h0.29v4.93h-0.29
					c-0.19-1.39-0.24-1.58-2.05-1.58h-7.73l9.64,3.97v0.3l-9.88,4.19h7.97c1.81,0,1.86-0.19,2.05-1.58h0.29v3.91h-0.29
					c-0.19-1.39-0.24-1.58-2.05-1.58h-6.93c-1.81,0-1.86,0.19-2.05,1.58h-0.29v-3.84l8.21-3.36l-8.21-3.35v-3.59H1284.65z"/>
				<path class="st141" d="M1294.96,263.04h0.27l0.86,2.61l-1.54,0.19c0.78,0.45,1.62,1.38,1.62,2.46c0,1.39-0.9,2.53-3.22,2.53
					c-1.04,0-2.48-0.03-3.52-0.03c-1.31,0-1.55,0-1.62,1.25h-0.29l-0.26-2.87c0.83,0.02,1.71,0.03,3.17,0.03h2.21
					c1.62,0,2.42-0.48,2.42-1.57c0-0.74-0.35-1.33-1.04-1.76h-4.59c-1.31,0-1.55,0-1.62,1.25h-0.29l-0.26-2.88
					c0.83,0.02,1.71,0.03,3.17,0.03h2.91C1294.86,264.29,1294.91,264.29,1294.96,263.04z"/>
				<path class="st141" d="M1287.6,256.63h2.38v0.34c-1.54,0.3-2.13,1.02-2.13,2.08c0,0.82,0.43,1.55,1.15,1.55
					c0.69,0,1.07-0.61,1.46-1.36l0.48-0.91c0.69-1.34,1.25-2.18,2.71-2.18c1.6,0,2.53,1.54,2.53,3.12c0,0.8-0.24,1.87-0.61,2.56
					h-2.99v-0.32c2-0.26,2.87-1.06,2.87-2.35c0-0.83-0.37-1.71-1.41-1.71c-0.7,0-1.12,0.58-1.57,1.47l-0.48,0.91
					c-0.61,1.18-1.18,1.97-2.5,1.97c-1.6,0-2.27-1.78-2.27-3.11C1287.21,258.1,1287.36,257.15,1287.6,256.63z"/>
				<path class="st141" d="M1284.14,253.73c-0.61,0-1.09-0.51-1.09-1.14c0-0.64,0.48-1.12,1.09-1.12c0.62,0,1.09,0.48,1.09,1.12
					C1285.23,253.22,1284.76,253.73,1284.14,253.73z M1293.66,251.72c1.65,0,1.87-0.02,2.02-1.28h0.29v4.16h-0.29
					c-0.14-1.26-0.37-1.28-2.02-1.28h-3.6c-1.58,0-1.58,0-1.58,1.28h-0.29l-0.98-2.91c0.85,0.02,1.86,0.03,3.51,0.03H1293.66z"/>
				<path class="st141" d="M1288.83,242.64c0.48,0,0.86,0.35,0.86,0.91c0,0.3-0.1,0.58-0.45,0.75l-1.06,0.51
					c-0.26,0.13-0.32,0.29-0.32,0.59c0,1.15,0.82,2.56,3.2,2.56c1.91,0,3.71-0.96,3.71-3.07c0-0.82-0.35-1.68-0.93-2.32l0.16-0.18
					c0.93,0.56,2.16,1.54,2.16,3.38c0,2.48-2.02,3.65-4.32,3.65c-2.88,0-4.64-2.1-4.64-4.45
					C1287.21,243.63,1288,242.64,1288.83,242.64z"/>
				<path class="st141" d="M1295.87,237.46c0.22,0.35,0.3,0.78,0.3,1.33c0,1.18-0.85,2.53-2.11,2.53c-1.02,0-1.65-0.9-2.45-2.58
					c-0.21-0.43-0.61-1.31-1.12-2.5h-0.37c-1.7,0-2.27,0.58-2.27,1.65c0,1.49,0.99,1.68,2.22,1.6v1.62
					c-1.33-0.02-2.85-1.54-2.85-3.6c0-1.5,0.58-2.83,2.72-2.79l4.15,0.08c0.9,0.02,1.04-0.14,1.04-0.58c0-0.26-0.14-0.48-0.32-0.7
					l0.16-0.16c0.53,0.42,1.15,0.85,1.15,1.62c0,0.66-0.38,1.23-1.18,1.3C1295.28,236.63,1295.63,237.06,1295.87,237.46z
					 M1291.07,236.27c0.48,1.33,0.88,2,1.04,2.27c0.42,0.69,0.82,1.02,1.49,0.99c0.8-0.05,1.68-0.69,1.68-1.68
					c0-0.59-0.34-1.1-0.78-1.54L1291.07,236.27z"/>
				<path class="st141" d="M1284.06,232.47h-0.29l-0.98-2.91c0.85,0.02,1.86,0.03,3.5,0.03h7.36c1.65,0,1.87-0.02,2.02-1.28h0.29
					v4.16h-0.29c-0.14-1.26-0.37-1.28-2.02-1.28h-8.02C1284.06,231.19,1284.06,231.19,1284.06,232.47z"/>
			</g>
		</g>
		<g>
			<g>
				<path class="st141" d="M827.33,359.03v-3.94h0.32c0.4,3.71,1.94,4.23,3.36,4.23c1.36,0,2.74-0.74,2.74-2.29
					c0-1.15-1.02-1.78-2.32-2.34l-1.25-0.54c-1.7-0.74-2.77-1.82-2.77-3.36c0-1.76,1.73-3.07,3.84-3.07c1.17,0,2.45,0.26,3.23,0.74
					l0.06,3.36h-0.32c-0.38-2.85-1.6-3.52-3.02-3.52c-1.28,0-2.4,0.69-2.4,1.92c0,1.23,1.02,1.78,1.82,2.13l1.25,0.54
					c1.87,0.82,3.3,1.68,3.3,3.54c0,2.29-2.1,3.47-4.16,3.47C829.57,359.9,828.17,359.53,827.33,359.03z"/>
				<path class="st141" d="M843.46,352.55c0,0.48-0.35,0.86-0.91,0.86c-0.3,0-0.58-0.1-0.75-0.45l-0.51-1.06
					c-0.13-0.26-0.29-0.32-0.59-0.32c-1.15,0-2.56,0.82-2.56,3.2c0,1.9,0.96,3.71,3.07,3.71c0.82,0,1.68-0.35,2.32-0.93l0.18,0.16
					c-0.56,0.93-1.54,2.16-3.38,2.16c-2.48,0-3.65-2.02-3.65-4.32c0-2.88,2.1-4.64,4.45-4.64
					C842.46,350.93,843.46,351.72,843.46,352.55z"/>
				<path class="st141" d="M847.69,357.38c0,1.65,0.02,1.87,1.28,2.02v0.29h-4.16v-0.29c1.26-0.14,1.28-0.37,1.28-2.02v-3.6
					c0-1.58,0-1.58-1.28-1.58v-0.29l2.91-0.98c-0.02,0.85-0.03,1.86-0.03,3.51V357.38z M845.68,347.86c0-0.61,0.51-1.09,1.14-1.09
					c0.64,0,1.12,0.48,1.12,1.09c0,0.62-0.48,1.09-1.12,1.09C846.19,348.95,845.68,348.48,845.68,347.86z"/>
				<path class="st141" d="M850.41,354.55h4.5v1.41h-4.5V354.55z"/>
				<path class="st141" d="M856.41,359.4c1.39-0.19,1.58-0.24,1.58-2.05v-6.93c0-1.81-0.19-1.86-1.58-2.05v-0.29h6.05
					c0.98,0,2.35,0,3.54-0.05l0.46,3.51h-0.29c-0.91-2.85-2.16-2.88-5.09-2.88h-1.33v4.69h2.3c0.91,0,1.49-0.45,1.65-1.79H864v4.29
					h-0.29c-0.16-1.34-0.74-1.79-1.65-1.79h-2.3v3.31c0,1.58,0.03,1.89,1.73,2.02v0.3h-5.07V359.4z"/>
				<path class="st141" d="M870.03,357.38c0,1.65,0.02,1.87,1.28,2.02v0.29h-4.16v-0.29c1.26-0.14,1.28-0.37,1.28-2.02v-3.6
					c0-1.58,0-1.58-1.28-1.58v-0.29l2.91-0.98c-0.02,0.85-0.03,1.86-0.03,3.51V357.38z M868.01,347.86c0-0.61,0.51-1.09,1.14-1.09
					c0.64,0,1.12,0.48,1.12,1.09c0,0.62-0.48,1.09-1.12,1.09C868.52,348.95,868.01,348.48,868.01,347.86z"/>
			</g>
		</g>
		<g>
			<g>
				<path class="st141" d="M826.38,436.13c1.09-0.1,1.25-0.38,2.18-2.72l3.47-8.71c0.32-0.03,0.62-0.21,0.83-0.5h0.06l4.13,10.32
					c0.48,1.2,0.64,1.55,1.7,1.6v0.29h-4.64v-0.29c1.1-0.13,1.46-0.43,1.14-1.25l-0.9-2.24h-4.74l-0.08,0.22
					c-1.15,2.94-0.94,3.14,0.43,3.27v0.29h-3.58V436.13z M829.93,431.86h4.11l-2.06-5.2L829.93,431.86z"/>
				<path class="st141" d="M846.06,429.28c0,0.48-0.35,0.86-0.91,0.86c-0.3,0-0.58-0.1-0.75-0.45l-0.51-1.06
					c-0.13-0.26-0.29-0.32-0.59-0.32c-1.15,0-2.56,0.82-2.56,3.2c0,1.9,0.96,3.71,3.07,3.71c0.82,0,1.68-0.35,2.32-0.93l0.18,0.16
					c-0.56,0.93-1.54,2.16-3.38,2.16c-2.48,0-3.65-2.02-3.65-4.32c0-2.88,2.1-4.64,4.45-4.64
					C845.07,427.67,846.06,428.45,846.06,429.28z"/>
				<path class="st141" d="M848.06,434.18v-5.75h-1.41v-0.62h1.41v-1.5l1.6-1.07v2.58h2.07v0.62h-2.07v5.46
					c0,1.2,0.27,1.68,1.12,1.68c0.4,0,0.86-0.14,1.23-0.5l0.14,0.13c-0.4,0.72-1.02,1.42-2.13,1.42
					C848.8,436.63,848.06,435.96,848.06,434.18z"/>
				<path class="st141" d="M855.73,434.12c0,1.65,0.02,1.87,1.28,2.02v0.29h-4.16v-0.29c1.26-0.14,1.28-0.37,1.28-2.02v-3.6
					c0-1.58,0-1.58-1.28-1.58v-0.29l2.91-0.98c-0.02,0.85-0.03,1.86-0.03,3.51V434.12z M853.71,424.59c0-0.61,0.51-1.09,1.14-1.09
					c0.64,0,1.12,0.48,1.12,1.09c0,0.62-0.48,1.09-1.12,1.09C854.22,425.68,853.71,425.22,853.71,424.59z"/>
				<path class="st141" d="M866.67,432.13c0,2.51-1.9,4.5-4.26,4.5c-2.26,0-4.37-1.84-4.37-4.48c0-2.53,1.87-4.48,4.26-4.48
					C864.58,427.67,866.67,429.49,866.67,432.13z M859.81,431.57c0,1.58,0.74,4.42,2.8,4.42c1.54,0,2.29-1.2,2.29-3.27
					c0-1.6-0.72-4.42-2.75-4.42C860.57,428.31,859.81,429.51,859.81,431.57z"/>
				<path class="st141" d="M867.68,428.64l2.85-0.98l0.03,1.44c0.58-0.69,1.36-1.44,2.54-1.44c1.39,0,2.42,0.93,2.42,3.04v3.41
					c0,1.65,0.02,1.87,1.28,2.02v0.29h-4.16v-0.29c1.26-0.14,1.28-0.37,1.28-2.02v-3.09c0-1.52-0.5-2.24-1.62-2.24
					c-0.66,0-1.39,0.22-1.75,0.75v4.58c0,1.65,0.02,1.87,1.28,2.02v0.29h-4.16v-0.29c1.26-0.14,1.28-0.37,1.28-2.02v-3.6
					c0-1.58,0-1.58-1.28-1.58V428.64z"/>
			</g>
		</g>
		<g>
			<g>
				<path class="st141" d="M1128.72,372.72c0,1.81,0.19,1.86,1.58,2.05v0.29h-4.93v-0.29c1.39-0.19,1.58-0.24,1.58-2.05v-3.3h-5.47
					v3.3c0,1.81,0.19,1.86,1.58,2.05v0.29h-4.93v-0.29c1.39-0.19,1.58-0.24,1.58-2.05v-6.93c0-1.81-0.19-1.86-1.58-2.05v-0.29h4.93
					v0.29c-1.39,0.19-1.58,0.24-1.58,2.05v2.93h5.47v-2.93c0-1.81-0.19-1.86-1.58-2.05v-0.29h4.93v0.29
					c-1.39,0.19-1.58,0.24-1.58,2.05V372.72z"/>
				<path class="st141" d="M1140.19,370.76c0,2.51-1.9,4.5-4.26,4.5c-2.26,0-4.37-1.84-4.37-4.48c0-2.53,1.87-4.48,4.26-4.48
					C1138.09,366.3,1140.19,368.12,1140.19,370.76z M1133.32,370.2c0,1.58,0.74,4.42,2.8,4.42c1.54,0,2.29-1.2,2.29-3.27
					c0-1.6-0.72-4.42-2.75-4.42C1134.09,366.94,1133.32,368.14,1133.32,370.2z"/>
				<path class="st141" d="M1141.19,374.76c1.26-0.14,1.28-0.37,1.28-2.02v-3.6c0-1.58,0-1.58-1.28-1.58v-0.29l2.85-0.98l0.03,1.62
					c0.61-0.77,1.31-1.63,2.32-1.63c0.7,0,1.15,0.42,1.15,1.01c0,0.54-0.35,0.98-0.91,0.98c-0.21,0-0.32-0.05-0.51-0.21l-0.53-0.46
					c-0.11-0.1-0.18-0.14-0.27-0.14c-0.3,0-0.82,0.35-1.25,0.93v4.37c0,1.81,0.08,1.9,1.94,2v0.3h-4.82V374.76z"/>
				<path class="st141" d="M1147.99,374.76c1.26-0.14,1.28-0.37,1.28-2.02v-3.6c0-1.58,0-1.58-1.28-1.58v-0.29l2.85-0.98l0.03,1.62
					c0.61-0.77,1.31-1.63,2.32-1.63c0.7,0,1.15,0.42,1.15,1.01c0,0.54-0.35,0.98-0.91,0.98c-0.21,0-0.32-0.05-0.51-0.21l-0.53-0.46
					c-0.11-0.1-0.18-0.14-0.27-0.14c-0.3,0-0.82,0.35-1.25,0.93v4.37c0,1.81,0.08,1.9,1.94,2v0.3h-4.82V374.76z"/>
				<path class="st141" d="M1163.45,370.76c0,2.51-1.9,4.5-4.26,4.5c-2.26,0-4.37-1.84-4.37-4.48c0-2.53,1.87-4.48,4.26-4.48
					C1161.36,366.3,1163.45,368.12,1163.45,370.76z M1156.59,370.2c0,1.58,0.74,4.42,2.8,4.42c1.54,0,2.29-1.2,2.29-3.27
					c0-1.6-0.72-4.42-2.75-4.42C1157.35,366.94,1156.59,368.14,1156.59,370.2z"/>
				<path class="st141" d="M1164.46,374.76c1.26-0.14,1.28-0.37,1.28-2.02v-3.6c0-1.58,0-1.58-1.28-1.58v-0.29l2.85-0.98l0.03,1.62
					c0.61-0.77,1.31-1.63,2.32-1.63c0.7,0,1.15,0.42,1.15,1.01c0,0.54-0.35,0.98-0.91,0.98c-0.21,0-0.32-0.05-0.51-0.21l-0.53-0.46
					c-0.11-0.1-0.18-0.14-0.27-0.14c-0.3,0-0.82,0.35-1.25,0.93v4.37c0,1.81,0.08,1.9,1.94,2v0.3h-4.82V374.76z"/>
			</g>
		</g>
		<g>
			<g>
				<path class="st141" d="M1118.14,578.32c1.39-0.19,1.58-0.24,1.58-2.05v-6.93c0-1.81-0.19-1.86-1.58-2.05V567h1.89
					c1.02,0,2.29-0.02,2.96-0.02c2.72,0,4.96,0.61,4.96,3.06c0,1.84-1.26,2.64-3.04,2.93l2.4,3.71c0.75,1.17,1.28,1.54,2.18,1.63
					v0.29h-3.17c-0.24-0.51-0.82-1.52-1.31-2.27l-0.86-1.36c-0.56-0.85-0.88-1.47-1.15-1.87h-1.5v3.19c0,1.81,0.19,1.84,1.58,2.03
					v0.29h-4.93V578.32z M1122.86,567.58h-1.38v4.93h1.38c1.99,0,3.14-0.35,3.14-2.46S1124.84,567.58,1122.86,567.58z"/>
				<path class="st141" d="M1138.3,574.31c0,2.51-1.9,4.5-4.26,4.5c-2.26,0-4.37-1.84-4.37-4.48c0-2.53,1.87-4.48,4.26-4.48
					C1136.2,569.85,1138.3,571.67,1138.3,574.31z M1131.43,573.75c0,1.58,0.74,4.42,2.8,4.42c1.54,0,2.29-1.2,2.29-3.27
					c0-1.6-0.72-4.42-2.75-4.42C1132.2,570.49,1131.43,571.69,1131.43,573.75z"/>
				<path class="st141" d="M1139.34,570.82l2.85-0.98l0.03,1.44c0.58-0.69,1.36-1.44,2.54-1.44c1.04,0,1.91,0.53,2.27,1.7
					c0.66-0.88,1.6-1.7,2.74-1.7c1.39,0,2.47,0.93,2.47,3.04v3.41c0,1.65,0.02,1.87,1.28,2.02v0.29h-4.16v-0.29
					c1.26-0.14,1.28-0.37,1.28-2.02v-3.09c0-1.52-0.54-2.24-1.67-2.24c-0.64,0-1.39,0.32-1.84,0.91c0.06,0.3,0.1,0.64,0.1,1.01v3.41
					c0,1.65,0.02,1.87,1.28,2.02v0.29h-4.16v-0.29c1.26-0.14,1.28-0.37,1.28-2.02v-3.09c0-1.52-0.54-2.24-1.66-2.24
					c-0.66,0-1.39,0.22-1.75,0.75v4.58c0,1.65,0.02,1.87,1.28,2.02v0.29h-4.16v-0.29c1.26-0.14,1.28-0.37,1.28-2.02v-3.6
					c0-1.58,0-1.58-1.28-1.58V570.82z"/>
				<path class="st141" d="M1158.22,578.51c-0.35,0.22-0.78,0.3-1.33,0.3c-1.18,0-2.53-0.85-2.53-2.11c0-1.02,0.9-1.65,2.58-2.45
					c0.43-0.21,1.31-0.61,2.5-1.12v-0.37c0-1.7-0.58-2.27-1.65-2.27c-1.49,0-1.68,0.99-1.6,2.23h-1.62c0.02-1.33,1.54-2.85,3.6-2.85
					c1.5,0,2.83,0.58,2.79,2.72l-0.08,4.15c-0.02,0.9,0.14,1.04,0.58,1.04c0.26,0,0.48-0.14,0.7-0.32l0.16,0.16
					c-0.42,0.53-0.85,1.15-1.62,1.15c-0.66,0-1.23-0.38-1.3-1.18C1159.05,577.92,1158.62,578.27,1158.22,578.51z M1159.4,573.71
					c-1.33,0.48-2,0.88-2.27,1.04c-0.69,0.42-1.02,0.82-0.99,1.49c0.05,0.8,0.69,1.68,1.68,1.68c0.59,0,1.1-0.34,1.54-0.78
					L1159.4,573.71z"/>
				<path class="st141" d="M1162.81,570.82l2.85-0.98l0.03,1.44c0.58-0.69,1.36-1.44,2.54-1.44c1.39,0,2.42,0.93,2.42,3.04v3.41
					c0,1.65,0.02,1.87,1.28,2.02v0.29h-4.16v-0.29c1.26-0.14,1.28-0.37,1.28-2.02v-3.09c0-1.52-0.5-2.24-1.62-2.24
					c-0.66,0-1.39,0.22-1.75,0.75v4.58c0,1.65,0.02,1.87,1.28,2.02v0.29h-4.16v-0.29c1.26-0.14,1.28-0.37,1.28-2.02v-3.6
					c0-1.58,0-1.58-1.28-1.58V570.82z"/>
				<path class="st141" d="M1179.51,571.47c0,0.48-0.35,0.86-0.91,0.86c-0.3,0-0.58-0.1-0.75-0.45l-0.51-1.06
					c-0.13-0.26-0.29-0.32-0.59-0.32c-1.15,0-2.56,0.82-2.56,3.2c0,1.9,0.96,3.71,3.07,3.71c0.82,0,1.68-0.35,2.32-0.93l0.18,0.16
					c-0.56,0.93-1.54,2.16-3.38,2.16c-2.48,0-3.65-2.02-3.65-4.32c0-2.88,2.1-4.64,4.45-4.64
					C1178.52,569.85,1179.51,570.63,1179.51,571.47z"/>
				<path class="st141" d="M1180.79,574.36c0-2.51,1.78-4.51,3.94-4.51c1.6,0,3.06,1.1,3.25,3.47h-5.75v0.06
					c0,2.31,1.07,4.03,3.14,4.03c1.17,0,2.03-0.51,2.58-1.07l0.18,0.16c-0.53,0.98-1.65,2.3-3.51,2.3
					C1182.01,578.81,1180.79,576.89,1180.79,574.36z M1182.27,572.7h3.78c-0.02-1.47-0.67-2.27-1.7-2.27
					C1183.4,570.43,1182.47,571.07,1182.27,572.7z"/>
			</g>
		</g>
	</g>
	<line class="st138" x1="132.71" y1="190.16" x2="173.05" y2="190.16"/>
	<line class="st138" x1="132.71" y1="201.92" x2="173.05" y2="201.92"/>
	<g>
		<g>
			<path class="st141" d="M143.76,415.23v0.31c-0.83,0.11-0.9,0.36-0.9,1.77v1.72c-1.18,0.84-3.07,1.15-4.23,1.15
				c-3.49,0-5.23-2.52-5.23-5.27c0-3.25,2.4-5.35,5.55-5.35c1.33,0,2.51,0.24,3.26,0.53l0.22,3.1h-0.25
				c-0.57-2.37-1.74-3.12-3.45-3.12c-1.69,0-3.63,1.15-3.63,4.87c0,2.84,1.47,4.71,3.67,4.71c0.92,0,2.51-0.08,2.51-1.37v-0.97
				c0-1.4-0.01-1.69-1.22-1.77v-0.31H143.76z"/>
			<path class="st141" d="M144.92,416.28c0-2.2,1.55-3.95,3.45-3.95c1.4,0,2.68,0.97,2.84,3.04h-5.03v0.06
				c0,2.02,0.94,3.53,2.75,3.53c1.02,0,1.78-0.45,2.25-0.94l0.15,0.14c-0.46,0.85-1.44,2.02-3.07,2.02
				C145.98,420.18,144.92,418.5,144.92,416.28z M146.21,414.83h3.31c-0.01-1.29-0.59-1.99-1.48-1.99
				C147.2,412.84,146.39,413.4,146.21,414.83z"/>
			<path class="st141" d="M152.09,413.19l2.49-0.85l0.03,1.26c0.5-0.6,1.19-1.26,2.23-1.26c1.22,0,2.12,0.81,2.12,2.66v2.98
				c0,1.44,0.01,1.64,1.12,1.77V420h-3.64v-0.25c1.11-0.13,1.12-0.32,1.12-1.77v-2.7c0-1.33-0.43-1.96-1.42-1.96
				c-0.57,0-1.22,0.2-1.53,0.66v4.01c0,1.44,0.01,1.64,1.12,1.77V420h-3.64v-0.25c1.11-0.13,1.12-0.32,1.12-1.77v-3.15
				c0-1.39,0-1.39-1.12-1.39V413.19z"/>
			<path class="st141" d="M160.49,419.74c1.11-0.13,1.12-0.32,1.12-1.77v-3.15c0-1.39,0-1.39-1.12-1.39v-0.25l2.49-0.85l0.03,1.41
				c0.53-0.67,1.15-1.43,2.03-1.43c0.62,0,1.01,0.36,1.01,0.88c0,0.48-0.31,0.85-0.8,0.85c-0.18,0-0.28-0.04-0.45-0.18l-0.46-0.41
				c-0.1-0.08-0.15-0.13-0.24-0.13c-0.27,0-0.71,0.31-1.09,0.81v3.82c0,1.58,0.07,1.67,1.69,1.75V420h-4.22V419.74z"/>
			<path class="st141" d="M166.44,416.28c0-2.2,1.55-3.95,3.45-3.95c1.4,0,2.68,0.97,2.84,3.04h-5.03v0.06
				c0,2.02,0.94,3.53,2.75,3.53c1.02,0,1.78-0.45,2.25-0.94l0.15,0.14c-0.46,0.85-1.44,2.02-3.07,2.02
				C167.5,420.18,166.44,418.5,166.44,416.28z M167.73,414.83h3.31c-0.01-1.29-0.59-1.99-1.48-1.99
				C168.72,412.84,167.91,413.4,167.73,414.83z"/>
		</g>
	</g>
	<line class="st138" x1="132.71" y1="435.02" x2="173.05" y2="435.02"/>
	<line class="st138" x1="132.71" y1="446.78" x2="173.05" y2="446.78"/>
	<g>
		<g>
			<path class="st141" d="M84.98,174.87v0.27h-4.62v-0.27c1.37-0.13,1.54-0.34,1.54-1.78v-1.95l-2.63-4.55
				c-0.56-0.98-0.81-1.25-1.48-1.36v-0.25h4.06v0.25c-0.95,0.11-1.32,0.39-0.94,1.05l2.28,4.05l1.86-3.14
				c0.9-1.51,0.66-1.88-0.29-1.96v-0.25h3.07v0.25c-0.78,0.13-1.2,0.5-1.81,1.51l-2.58,4.34v2
				C83.44,174.53,83.61,174.74,84.98,174.87z"/>
			<path class="st141" d="M86.39,171.42c0-2.2,1.55-3.95,3.45-3.95c1.4,0,2.68,0.97,2.84,3.04h-5.03v0.06
				c0,2.02,0.94,3.53,2.75,3.53c1.02,0,1.78-0.45,2.25-0.94l0.15,0.14c-0.46,0.85-1.44,2.02-3.07,2.02
				C87.46,175.32,86.39,173.63,86.39,171.42z M87.68,169.96h3.31c-0.01-1.29-0.59-1.99-1.48-1.99
				C88.67,167.98,87.86,168.54,87.68,169.96z"/>
			<path class="st141" d="M97.4,175.05c-0.31,0.2-0.69,0.27-1.16,0.27c-1.04,0-2.21-0.74-2.21-1.85c0-0.9,0.78-1.44,2.26-2.14
				c0.38-0.18,1.15-0.53,2.19-0.98v-0.32c0-1.48-0.5-1.99-1.44-1.99c-1.3,0-1.47,0.87-1.4,1.95H94.2c0.01-1.16,1.34-2.49,3.15-2.49
				c1.32,0,2.48,0.5,2.44,2.38l-0.07,3.63c-0.01,0.78,0.13,0.91,0.5,0.91c0.22,0,0.42-0.13,0.62-0.28l0.14,0.14
				c-0.36,0.46-0.74,1.01-1.42,1.01c-0.57,0-1.08-0.34-1.13-1.04C98.12,174.53,97.75,174.84,97.4,175.05z M98.43,170.85
				c-1.16,0.42-1.75,0.77-1.99,0.91c-0.6,0.36-0.9,0.71-0.87,1.3c0.04,0.7,0.6,1.47,1.47,1.47c0.52,0,0.97-0.29,1.34-0.69
				L98.43,170.85z"/>
			<path class="st141" d="M101.41,174.88c1.11-0.13,1.12-0.32,1.12-1.77v-3.15c0-1.39,0-1.39-1.12-1.39v-0.25l2.49-0.85l0.03,1.41
				c0.53-0.67,1.15-1.43,2.03-1.43c0.62,0,1.01,0.36,1.01,0.88c0,0.48-0.31,0.85-0.8,0.85c-0.18,0-0.28-0.04-0.45-0.18l-0.46-0.41
				c-0.1-0.08-0.15-0.13-0.24-0.13c-0.27,0-0.71,0.31-1.09,0.81v3.82c0,1.58,0.07,1.67,1.69,1.75v0.27h-4.22V174.88z"/>
		</g>
	</g>
	<line class="st138" x1="77.71" y1="190.16" x2="118.05" y2="190.16"/>
	<line class="st138" x1="77.71" y1="201.92" x2="118.05" y2="201.92"/>
	<g>
		<g>
			<path class="st141" d="M78.26,419.74c1.22-0.17,1.39-0.21,1.39-1.79v-6.07c0-1.58-0.17-1.62-1.39-1.79v-0.25h5.29
				c0.85,0,2.06,0,3.1-0.04l0.41,3.07H86.8c-0.8-2.49-1.89-2.52-4.45-2.52h-1.16v4.1h2.02c0.8,0,1.3-0.39,1.44-1.57h0.25v3.75h-0.25
				c-0.14-1.18-0.64-1.57-1.44-1.57h-2.02v2.9c0,1.39,0.03,1.65,1.51,1.77V420h-4.44V419.74z"/>
			<path class="st141" d="M90.17,417.98c0,1.44,0.01,1.64,1.12,1.77V420h-3.64v-0.25c1.11-0.13,1.12-0.32,1.12-1.77v-3.15
				c0-1.39,0-1.39-1.12-1.39v-0.25l2.55-0.85c-0.01,0.74-0.03,1.62-0.03,3.07V417.98z M88.41,409.64c0-0.53,0.45-0.95,0.99-0.95
				c0.56,0,0.98,0.42,0.98,0.95c0,0.55-0.42,0.95-0.98,0.95C88.86,410.6,88.41,410.19,88.41,409.64z"/>
			<path class="st141" d="M92.38,409.57v-0.25l2.55-0.85c-0.01,0.74-0.03,1.62-0.03,3.07v6.44c0,1.44,0.01,1.64,1.12,1.77V420h-3.64
				v-0.25c1.11-0.13,1.12-0.32,1.12-1.77v-7.02C93.5,409.57,93.5,409.57,92.38,409.57z"/>
			<path class="st141" d="M96.75,413.19l2.49-0.85l0.03,1.26c0.5-0.6,1.19-1.26,2.23-1.26c0.91,0,1.67,0.46,1.99,1.48
				c0.57-0.77,1.4-1.48,2.4-1.48c1.22,0,2.16,0.81,2.16,2.66v2.98c0,1.44,0.01,1.64,1.12,1.77V420h-3.64v-0.25
				c1.11-0.13,1.12-0.32,1.12-1.77v-2.7c0-1.33-0.48-1.96-1.46-1.96c-0.56,0-1.22,0.28-1.61,0.8c0.06,0.27,0.08,0.56,0.08,0.88v2.98
				c0,1.44,0.01,1.64,1.12,1.77V420h-3.64v-0.25c1.11-0.13,1.12-0.32,1.12-1.77v-2.7c0-1.33-0.48-1.96-1.46-1.96
				c-0.57,0-1.22,0.2-1.53,0.66v4.01c0,1.44,0.01,1.64,1.12,1.77V420h-3.64v-0.25c1.11-0.13,1.12-0.32,1.12-1.77v-3.15
				c0-1.39,0-1.39-1.12-1.39V413.19z"/>
		</g>
	</g>
	<line class="st138" x1="77.71" y1="435.02" x2="118.05" y2="435.02"/>
	<line class="st138" x1="77.71" y1="446.78" x2="118.05" y2="446.78"/>
	<g>
		<g>
			<path class="st141" d="M135.44,679.68c1.39,0,2.33,1.42,2.33,2.97c0,1.54-0.94,2.98-2.33,2.98c-1.37,0-2.31-1.44-2.31-2.98
				C133.13,681.09,134.07,679.68,135.44,679.68z M135.44,685.35c0.9,0,1.13-1.41,1.13-2.7c0-1.3-0.24-2.69-1.13-2.69
				s-1.13,1.39-1.13,2.69C134.31,683.93,134.55,685.35,135.44,685.35z M135.97,689.97l7.12-10.16H144l-7.1,10.16H135.97z
				 M144.53,684.12c1.39,0,2.33,1.42,2.33,2.97c0,1.54-0.94,2.98-2.33,2.98c-1.37,0-2.31-1.44-2.31-2.98
				C142.22,685.53,143.16,684.12,144.53,684.12z M144.53,689.79c0.9,0,1.13-1.41,1.13-2.7c0-1.3-0.24-2.69-1.13-2.69
				s-1.13,1.39-1.13,2.69C143.4,688.38,143.64,689.79,144.53,689.79z"/>
		</g>
	</g>
	<g>
		<g>
			<path class="st141" d="M88.76,685.21v0.31c-0.83,0.11-0.9,0.36-0.9,1.77v1.72c-1.18,0.84-3.07,1.15-4.23,1.15
				c-3.49,0-5.23-2.52-5.23-5.27c0-3.25,2.4-5.35,5.55-5.35c1.33,0,2.51,0.24,3.26,0.53l0.22,3.1h-0.25
				c-0.57-2.37-1.74-3.12-3.45-3.12c-1.69,0-3.63,1.15-3.63,4.88c0,2.84,1.47,4.71,3.67,4.71c0.92,0,2.51-0.08,2.51-1.37v-0.97
				c0-1.4-0.01-1.7-1.22-1.77v-0.31H88.76z"/>
			<path class="st141" d="M89.92,686.26c0-2.2,1.55-3.95,3.45-3.95c1.4,0,2.68,0.97,2.84,3.04h-5.03v0.06
				c0,2.02,0.94,3.53,2.75,3.53c1.02,0,1.78-0.45,2.25-0.94l0.15,0.14c-0.46,0.85-1.44,2.02-3.07,2.02
				C90.98,690.15,89.92,688.47,89.92,686.26z M91.21,684.8h3.31c-0.01-1.29-0.59-1.99-1.48-1.99
				C92.2,682.81,91.39,683.37,91.21,684.8z"/>
			<path class="st141" d="M97.09,683.16l2.49-0.85l0.03,1.26c0.5-0.6,1.19-1.26,2.23-1.26c1.22,0,2.12,0.81,2.12,2.66v2.98
				c0,1.44,0.01,1.64,1.12,1.77v0.25h-3.64v-0.25c1.11-0.13,1.12-0.32,1.12-1.77v-2.7c0-1.33-0.43-1.96-1.42-1.96
				c-0.57,0-1.22,0.2-1.53,0.66v4.01c0,1.44,0.01,1.64,1.12,1.77v0.25h-3.64v-0.25c1.11-0.13,1.12-0.32,1.12-1.77v-3.15
				c0-1.39,0-1.39-1.12-1.39V683.16z"/>
			<path class="st141" d="M105.49,689.72c1.11-0.13,1.12-0.32,1.12-1.77v-3.15c0-1.39,0-1.39-1.12-1.39v-0.25l2.49-0.85l0.03,1.41
				c0.53-0.67,1.15-1.43,2.03-1.43c0.62,0,1.01,0.36,1.01,0.88c0,0.48-0.31,0.85-0.8,0.85c-0.18,0-0.28-0.04-0.45-0.18l-0.46-0.41
				c-0.1-0.08-0.15-0.13-0.24-0.13c-0.27,0-0.71,0.31-1.09,0.81v3.82c0,1.58,0.07,1.67,1.69,1.75v0.27h-4.22V689.72z"/>
			<path class="st141" d="M111.44,686.26c0-2.2,1.55-3.95,3.45-3.95c1.4,0,2.68,0.97,2.84,3.04h-5.03v0.06
				c0,2.02,0.94,3.53,2.75,3.53c1.02,0,1.78-0.45,2.25-0.94l0.15,0.14c-0.46,0.85-1.44,2.02-3.07,2.02
				C112.5,690.15,111.44,688.47,111.44,686.26z M112.72,684.8h3.31c-0.01-1.29-0.59-1.99-1.48-1.99
				C113.72,682.81,112.91,683.37,112.72,684.8z"/>
		</g>
	</g>
	<line class="st138" x1="132.71" y1="705" x2="173.05" y2="705"/>
	<line class="st138" x1="132.71" y1="716.75" x2="173.05" y2="716.75"/>
	<line class="st138" x1="77.71" y1="705" x2="118.05" y2="705"/>
	<line class="st138" x1="77.71" y1="716.75" x2="118.05" y2="716.75"/>
	<polygon class="st138" points="244.81,246.11 221.93,231.25 158.83,246.11 102.82,226.3 62.57,237.2 62.57,151.79 244.81,151.79 	
		"/>
	<polygon class="st138" points="244.81,488.58 221.93,473.72 158.83,488.58 102.82,468.77 62.57,479.67 62.57,394.26 244.81,394.26 
			"/>
	<polygon class="st138" points="244.81,755.87 221.93,741.01 158.83,755.87 102.82,736.06 62.57,746.96 62.57,661.56 244.81,661.56 
			"/>
	<g>
		<g>
			<line class="st138" x1="153.69" y1="323.37" x2="153.69" y2="370.14"/>
			<g>
				<polygon points="148.7,368.68 153.69,377.32 158.67,368.68 				"/>
			</g>
		</g>
	</g>
	<g>
		<g>
			<line class="st138" x1="153.69" y1="596.37" x2="153.69" y2="643.14"/>
			<g>
				<polygon points="148.7,641.68 153.69,650.32 158.67,641.68 				"/>
			</g>
		</g>
	</g>
	<g>
		<g>
			<line class="st138" x1="281.05" y1="799.49" x2="327.82" y2="799.49"/>
			<g>
				<polygon points="326.36,804.48 335,799.49 326.36,794.51 				"/>
			</g>
		</g>
	</g>
</g>
</svg>
