<?xml version="1.0" encoding="utf-8"?>
<!-- Generator: Adobe Illustrator 24.1.0, SVG Export Plug-In . SVG Version: 6.00 Build 0)  -->
<svg version="1.1" id="Layer_1" xmlns="http://www.w3.org/2000/svg" xmlns:xlink="http://www.w3.org/1999/xlink" x="0px" y="0px"
	 viewBox="0 0 448 302" style="enable-background:new 0 0 448 302;" xml:space="preserve">
<style type="text/css">
	.st0{fill:#1D1D1B;}
	.st1{fill:none;}
	.st2{enable-background:new    ;}
	.st3{fill:none;stroke:#1D1D1B;stroke-linejoin:round;stroke-miterlimit:10;}
	.st4{fill:none;stroke:#1D1D1B;stroke-linejoin:round;stroke-miterlimit:10;stroke-dasharray:4.127;}
	.st5{fill:#FFFFFF;stroke:#1D1D1B;stroke-linejoin:bevel;stroke-miterlimit:10;}
	.st6{fill:none;stroke:#1D1D1B;stroke-width:0.5;stroke-linejoin:bevel;stroke-miterlimit:10;}
	.st7{fill:none;stroke:#1D1D1B;stroke-miterlimit:10;}
	.st8{fill:none;stroke:#1D1D1B;stroke-linejoin:bevel;stroke-miterlimit:10;stroke-dasharray:1;}
	.st9{fill:none;stroke:#1D1D1B;stroke-width:0.5;stroke-miterlimit:10;}
</style>
<g>
	<path class="st0" d="M30.09,97.16l0.17-3.7h1.1l-0.31,5.08h-1.29l-0.44-2.58l-0.43,2.58h-1.29l-0.31-5.08h1.1l0.17,3.7l0.38-2.35
		h0.78L30.09,97.16z"/>
	<path class="st0" d="M33.22,93.46v1.75c0.22-0.34,0.57-0.53,1.01-0.53c0.87,0,1.22,0.58,1.22,1.48v2.37h-1.01v-2.2
		c0-0.4-0.03-0.88-0.55-0.88c-0.57,0-0.67,0.5-0.67,1.08v2h-1.01v-5.08H33.22z"/>
	<path class="st0" d="M37.86,98.63c-0.64,0-1.27-0.41-1.27-1.1c0-0.96,1.1-1.16,2.37-1.32v-0.08c0-0.58-0.25-0.78-0.67-0.78
		s-0.67,0.2-0.7,0.61h-0.9c0.07-0.74,0.68-1.29,1.64-1.29c0.93,0,1.6,0.38,1.6,1.65c0,0.12-0.01,0.62-0.01,0.97
		c0,1.04,0.04,1.13,0.08,1.25h-0.92l-0.01-0.48C38.79,98.46,38.4,98.63,37.86,98.63z M38.98,96.83c-0.97,0.1-1.4,0.21-1.4,0.66
		c0,0.28,0.19,0.46,0.55,0.46c0.63,0,0.85-0.41,0.85-1.02V96.83z"/>
	<path class="st0" d="M41.99,93.77H43v1.01h1.47v0.76H43v1.82c0,0.36,0.12,0.43,0.41,0.43h1.04v0.76h-1.41
		c-0.82,0-1.05-0.27-1.05-1.02v-1.98H40.9v-0.76h1.09V93.77z"/>
	<path class="st0" d="M50.35,98.54v-0.76h1.09v-2.26h-1.09v-0.76h2.1v3.01h1.1v0.76H50.35z M52.45,93.46v0.93h-1.01v-0.93H52.45z"/>
	<path class="st0" d="M57.13,95.9c-0.07-0.33-0.34-0.47-0.77-0.47c-0.31,0-0.55,0.13-0.55,0.33c0,0.2,0.22,0.34,0.49,0.41l0.41,0.1
		c0.74,0.18,1.33,0.38,1.33,1.13c0,0.8-0.73,1.25-1.57,1.25c-0.9,0-1.53-0.5-1.62-1.36h0.89c0.04,0.39,0.31,0.62,0.78,0.62
		c0.38,0,0.61-0.13,0.61-0.39c0-0.25-0.27-0.36-0.58-0.44l-0.45-0.1c-0.69-0.16-1.16-0.47-1.16-1.13c0-0.73,0.66-1.13,1.48-1.13
		c0.69,0,1.45,0.34,1.58,1.2H57.13z"/>
	<path class="st0" d="M63.92,98.54v-0.76h1.09v-2.26h-1.09v-0.76h2.1v3.01h1.1v0.76H63.92z M66.02,93.46v0.93h-1.01v-0.93H66.02z"/>
	<path class="st0" d="M69.12,93.77h1.01v1.01h1.47v0.76h-1.47v1.82c0,0.36,0.12,0.43,0.41,0.43h1.04v0.76h-1.41
		c-0.82,0-1.05-0.27-1.05-1.02v-1.98h-1.09v-0.76h1.09V93.77z"/>
	<path class="st0" d="M76.37,94.68c0,1.25-1.58,1.11-1.58,2.09v0.16h-1.02c-0.01-0.1-0.01-0.19-0.01-0.28
		c0-1.21,1.53-1.14,1.53-1.93c0-0.32-0.28-0.55-0.74-0.55c-0.57,0-0.92,0.39-0.92,0.96h-1.01c0-1.11,0.83-1.77,1.94-1.77
		C75.49,93.37,76.37,93.79,76.37,94.68z M73.63,98.54V97.3h1.3v1.25H73.63z"/>
</g>
<g>
	<path class="st0" d="M113.37,97.16l0.17-3.7h1.1l-0.32,5.08h-1.29l-0.44-2.58l-0.43,2.58h-1.29l-0.31-5.08h1.1l0.17,3.7l0.38-2.35
		h0.78L113.37,97.16z"/>
	<path class="st0" d="M116.5,93.46v1.75c0.22-0.34,0.57-0.53,1.01-0.53c0.87,0,1.22,0.58,1.22,1.48v2.37h-1.01v-2.2
		c0-0.4-0.04-0.88-0.55-0.88c-0.57,0-0.67,0.5-0.67,1.08v2h-1.01v-5.08H116.5z"/>
	<path class="st0" d="M121.14,98.63c-0.64,0-1.27-0.41-1.27-1.1c0-0.96,1.1-1.16,2.37-1.32v-0.08c0-0.58-0.25-0.78-0.67-0.78
		s-0.67,0.2-0.7,0.61h-0.9c0.07-0.74,0.68-1.29,1.64-1.29c0.93,0,1.6,0.38,1.6,1.65c0,0.12-0.01,0.62-0.01,0.97
		c0,1.04,0.04,1.13,0.08,1.25h-0.92l-0.01-0.48C122.07,98.46,121.69,98.63,121.14,98.63z M122.26,96.83c-0.97,0.1-1.4,0.21-1.4,0.66
		c0,0.28,0.19,0.46,0.55,0.46c0.63,0,0.85-0.41,0.85-1.02V96.83z"/>
	<path class="st0" d="M125.28,93.77h1.01v1.01h1.47v0.76h-1.47v1.82c0,0.36,0.12,0.43,0.41,0.43h1.04v0.76h-1.42
		c-0.82,0-1.05-0.27-1.05-1.02v-1.98h-1.09v-0.76h1.09V93.77z"/>
	<path class="st0" d="M135.92,93.46h1v5.08h-0.99l-0.01-0.47c-0.18,0.35-0.53,0.56-0.97,0.56c-0.86,0-1.53-0.68-1.53-1.97
		s0.67-1.98,1.53-1.98c0.43,0,0.78,0.21,0.97,0.56V93.46z M135.18,95.43c-0.48,0-0.74,0.48-0.74,1.23s0.27,1.23,0.74,1.23
		c0.48,0,0.78-0.43,0.78-1.23S135.66,95.43,135.18,95.43z"/>
	<path class="st0" d="M139.74,98.63c-0.92,0-1.8-0.53-1.8-1.97c0-1.44,0.88-1.97,1.8-1.97c0.92,0,1.8,0.53,1.8,1.97
		C141.54,98.1,140.66,98.63,139.74,98.63z M139.74,95.43c-0.48,0-0.79,0.36-0.79,1.23c0,0.87,0.31,1.23,0.79,1.23
		s0.79-0.36,0.79-1.23C140.53,95.79,140.22,95.43,139.74,95.43z"/>
	<path class="st0" d="M143.45,96.92c0.04,0.69,0.41,1,0.83,1c0.4,0,0.64-0.2,0.71-0.55h0.96c-0.11,0.64-0.67,1.27-1.69,1.27
		c-1.18,0-1.79-0.78-1.79-1.94c0-1.2,0.65-2,1.77-2c1.13,0,1.8,0.84,1.76,2.23H143.45z M143.45,96.28h1.61
		c-0.02-0.69-0.42-0.87-0.82-0.87C143.92,95.41,143.5,95.64,143.45,96.28z"/>
	<path class="st0" d="M149.45,95.9c-0.07-0.33-0.34-0.47-0.77-0.47c-0.31,0-0.55,0.13-0.55,0.33c0,0.2,0.22,0.34,0.49,0.41l0.41,0.1
		c0.74,0.18,1.33,0.38,1.33,1.13c0,0.8-0.73,1.25-1.57,1.25c-0.9,0-1.53-0.5-1.62-1.36h0.89c0.04,0.39,0.32,0.62,0.78,0.62
		c0.38,0,0.61-0.13,0.61-0.39c0-0.25-0.27-0.36-0.58-0.44l-0.45-0.1c-0.69-0.16-1.16-0.47-1.16-1.13c0-0.73,0.66-1.13,1.48-1.13
		c0.69,0,1.45,0.34,1.58,1.2H149.45z"/>
	<path class="st0" d="M156.24,98.54v-0.76h1.09v-2.26h-1.09v-0.76h2.1v3.01h1.1v0.76H156.24z M158.34,93.46v0.93h-1.01v-0.93H158.34
		z"/>
	<path class="st0" d="M161.45,93.77h1.01v1.01h1.47v0.76h-1.47v1.82c0,0.36,0.12,0.43,0.41,0.43h1.04v0.76h-1.42
		c-0.82,0-1.05-0.27-1.05-1.02v-1.98h-1.09v-0.76h1.09V93.77z"/>
	<path class="st0" d="M173.05,96.13h-0.95c-0.06-0.4-0.25-0.7-0.69-0.7c-0.46,0-0.73,0.39-0.73,1.23c0,0.85,0.28,1.23,0.73,1.23
		c0.31,0,0.62-0.15,0.71-0.73h0.97c-0.13,1.02-0.94,1.47-1.7,1.47c-1.1,0-1.72-0.83-1.72-1.97c0-1.18,0.64-1.98,1.74-1.98
		C172.15,94.69,172.94,95.13,173.05,96.13z"/>
	<path class="st0" d="M175.91,98.63c-0.92,0-1.8-0.53-1.8-1.97c0-1.44,0.88-1.97,1.8-1.97c0.92,0,1.8,0.53,1.8,1.97
		C177.71,98.1,176.83,98.63,175.91,98.63z M175.91,95.43c-0.48,0-0.79,0.36-0.79,1.23c0,0.87,0.31,1.23,0.79,1.23
		s0.79-0.36,0.79-1.23C176.71,95.79,176.4,95.43,175.91,95.43z"/>
	<path class="st0" d="M180.46,97.34l0.9-2.57h0.99l-1.42,3.77h-0.97l-1.44-3.77h1.04L180.46,97.34z"/>
	<path class="st0" d="M184.15,96.92c0.04,0.69,0.41,1,0.83,1c0.4,0,0.64-0.2,0.71-0.55h0.96c-0.1,0.64-0.67,1.27-1.69,1.27
		c-1.18,0-1.79-0.78-1.79-1.94c0-1.2,0.65-2,1.77-2c1.13,0,1.8,0.84,1.76,2.23H184.15z M184.15,96.28h1.61
		c-0.02-0.69-0.42-0.87-0.82-0.87C184.61,95.41,184.2,95.64,184.15,96.28z"/>
	<path class="st0" d="M189.68,94.77v0.64c0.15-0.32,0.45-0.64,1.04-0.64h0.57v0.81h-0.72c-0.64,0-0.88,0.3-0.88,1.04v1.17h1.37v0.76
		h-3.31v-0.76h0.94v-2.25h-0.94v-0.76H189.68z"/>
	<path class="st0" d="M195.83,94.68c0,1.25-1.58,1.11-1.58,2.09v0.16h-1.02c-0.01-0.1-0.01-0.19-0.01-0.28
		c0-1.21,1.53-1.14,1.53-1.93c0-0.32-0.28-0.55-0.74-0.55c-0.57,0-0.92,0.39-0.92,0.96h-1.01c0-1.11,0.83-1.77,1.94-1.77
		C194.95,93.37,195.83,93.79,195.83,94.68z M193.09,98.54V97.3h1.3v1.25H193.09z"/>
</g>
<g>
	<path class="st0" d="M223.08,93.46v5.08h-1.05V96.4h-1.47v2.14h-1.05v-5.08h1.05v2.03h1.47v-2.03H223.08z"/>
	<path class="st0" d="M225.82,98.63c-0.92,0-1.8-0.53-1.8-1.97c0-1.44,0.88-1.97,1.8-1.97c0.92,0,1.8,0.53,1.8,1.97
		C227.62,98.1,226.73,98.63,225.82,98.63z M225.82,95.43c-0.48,0-0.79,0.36-0.79,1.23c0,0.87,0.31,1.23,0.79,1.23
		s0.79-0.36,0.79-1.23C226.61,95.79,226.3,95.43,225.82,95.43z"/>
	<path class="st0" d="M230.75,95.5l0.34,1.66l0.27-2.38h0.98l-0.47,3.77h-1.09l-0.43-2.32l-0.44,2.32h-1.09l-0.46-3.77h0.97
		l0.27,2.38l0.35-1.66H230.75z"/>
	<path class="st0" d="M241.04,96.13h-0.95c-0.06-0.4-0.25-0.7-0.69-0.7c-0.46,0-0.73,0.39-0.73,1.23c0,0.85,0.28,1.23,0.73,1.23
		c0.31,0,0.62-0.15,0.71-0.73h0.97c-0.13,1.02-0.94,1.47-1.69,1.47c-1.1,0-1.72-0.83-1.72-1.97c0-1.18,0.64-1.98,1.74-1.98
		C240.14,94.69,240.93,95.13,241.04,96.13z"/>
	<path class="st0" d="M243.39,98.63c-0.64,0-1.27-0.41-1.27-1.1c0-0.96,1.1-1.16,2.37-1.32v-0.08c0-0.58-0.25-0.78-0.67-0.78
		s-0.67,0.2-0.7,0.61h-0.9c0.07-0.74,0.68-1.29,1.64-1.29c0.93,0,1.6,0.38,1.6,1.65c0,0.12-0.01,0.62-0.01,0.97
		c0,1.04,0.04,1.13,0.08,1.25h-0.92l-0.01-0.48C244.33,98.46,243.94,98.63,243.39,98.63z M244.51,96.83c-0.97,0.1-1.4,0.21-1.4,0.66
		c0,0.28,0.19,0.46,0.55,0.46c0.63,0,0.85-0.41,0.85-1.02V96.83z"/>
	<path class="st0" d="M247.8,94.77v0.44c0.22-0.34,0.56-0.53,1-0.53c0.87,0,1.23,0.58,1.23,1.48v2.37h-1.01v-2.2
		c0-0.4-0.04-0.88-0.55-0.88c-0.57,0-0.67,0.5-0.67,1.08v2h-1.01v-3.77H247.8z"/>
	<path class="st0" d="M257.88,95.5l0.34,1.66l0.27-2.38h0.98L259,98.54h-1.09l-0.43-2.32l-0.44,2.32h-1.09l-0.46-3.77h0.97
		l0.27,2.38l0.35-1.66H257.88z"/>
	<path class="st0" d="M261.18,96.92c0.04,0.69,0.41,1,0.83,1c0.4,0,0.64-0.2,0.71-0.55h0.96c-0.1,0.64-0.67,1.27-1.69,1.27
		c-1.18,0-1.79-0.78-1.79-1.94c0-1.2,0.65-2,1.77-2c1.13,0,1.8,0.84,1.76,2.23H261.18z M261.18,96.28h1.61
		c-0.02-0.69-0.42-0.87-0.82-0.87C261.65,95.41,261.24,95.64,261.18,96.28z"/>
	<path class="st0" d="M271.66,98.13c-0.22,0.34-0.56,0.5-0.96,0.5c-0.91,0-1.27-0.58-1.27-1.48v-2.37h1.01v2.21
		c0,0.4,0.04,0.88,0.55,0.88c0.56,0,0.67-0.5,0.67-1.08v-2h1.01v3.77h-1.01V98.13z"/>
	<path class="st0" d="M276.23,95.9c-0.07-0.33-0.34-0.47-0.77-0.47c-0.31,0-0.55,0.13-0.55,0.33c0,0.2,0.22,0.34,0.49,0.41l0.41,0.1
		c0.74,0.18,1.33,0.38,1.33,1.13c0,0.8-0.73,1.25-1.57,1.25c-0.9,0-1.53-0.5-1.62-1.36h0.89c0.04,0.39,0.31,0.62,0.78,0.62
		c0.38,0,0.61-0.13,0.61-0.39c0-0.25-0.27-0.36-0.58-0.44l-0.45-0.1c-0.69-0.16-1.16-0.47-1.16-1.13c0-0.73,0.66-1.13,1.48-1.13
		c0.69,0,1.45,0.34,1.58,1.2H276.23z"/>
	<path class="st0" d="M279.27,96.92c0.04,0.69,0.41,1,0.83,1c0.4,0,0.64-0.2,0.71-0.55h0.96c-0.1,0.64-0.67,1.27-1.69,1.27
		c-1.18,0-1.79-0.78-1.79-1.94c0-1.2,0.65-2,1.77-2c1.13,0,1.8,0.84,1.76,2.23H279.27z M279.27,96.28h1.61
		c-0.02-0.69-0.42-0.87-0.82-0.87C279.74,95.41,279.32,95.64,279.27,96.28z"/>
	<path class="st0" d="M287.54,98.54v-0.76h1.09v-2.26h-1.09v-0.76h2.1v3.01h1.1v0.76H287.54z M289.64,93.46v0.93h-1.01v-0.93H289.64
		z"/>
	<path class="st0" d="M292.75,93.77h1.01v1.01h1.47v0.76h-1.47v1.82c0,0.36,0.12,0.43,0.41,0.43h1.04v0.76h-1.41
		c-0.82,0-1.05-0.27-1.05-1.02v-1.98h-1.09v-0.76h1.09V93.77z"/>
	<path class="st0" d="M300,94.68c0,1.25-1.58,1.11-1.58,2.09v0.16h-1.02c-0.01-0.1-0.01-0.19-0.01-0.28c0-1.21,1.53-1.14,1.53-1.93
		c0-0.32-0.28-0.55-0.74-0.55c-0.57,0-0.92,0.39-0.92,0.96h-1.01c0-1.11,0.83-1.77,1.94-1.77C299.11,93.37,300,93.79,300,94.68z
		 M297.26,98.54V97.3h1.3v1.25H297.26z"/>
</g>
<g>
	<rect x="218.39" y="167.25" class="st1" width="95.93" height="22.61"/>
	<path class="st0" d="M222.43,168.21v5.08h-1.05v-2.14h-1.47v2.14h-1.05v-5.08h1.05v2.03h1.47v-2.03H222.43z"/>
	<path class="st0" d="M225.17,173.38c-0.92,0-1.8-0.53-1.8-1.97c0-1.44,0.88-1.97,1.8-1.97c0.92,0,1.8,0.53,1.8,1.97
		C226.97,172.85,226.09,173.38,225.17,173.38z M225.17,170.18c-0.48,0-0.79,0.36-0.79,1.23c0,0.87,0.31,1.23,0.79,1.23
		s0.79-0.36,0.79-1.23C225.96,170.54,225.65,170.18,225.17,170.18z"/>
	<path class="st0" d="M230.1,170.24l0.34,1.66l0.27-2.38h0.98l-0.47,3.77h-1.09l-0.43-2.32l-0.44,2.32h-1.09l-0.46-3.77h0.97
		l0.27,2.38l0.35-1.66H230.1z"/>
	<path class="st0" d="M237.15,173.29v-0.76h1.09v-2.26h-1.09v-0.76h2.1v3.01h1.1v0.76H237.15z M239.25,168.21v0.93h-1.01v-0.93
		H239.25z"/>
	<path class="st0" d="M243.93,170.64c-0.07-0.33-0.34-0.47-0.77-0.47c-0.31,0-0.55,0.13-0.55,0.33c0,0.2,0.22,0.34,0.49,0.41
		l0.41,0.1c0.74,0.18,1.33,0.38,1.33,1.13c0,0.8-0.73,1.25-1.57,1.25c-0.9,0-1.53-0.5-1.62-1.36h0.89c0.04,0.39,0.31,0.62,0.78,0.62
		c0.38,0,0.61-0.13,0.61-0.39s-0.27-0.36-0.58-0.44l-0.45-0.1c-0.69-0.16-1.16-0.47-1.16-1.13c0-0.73,0.66-1.13,1.48-1.13
		c0.69,0,1.45,0.34,1.58,1.2H243.93z"/>
	<path class="st0" d="M250.72,173.29v-0.76h1.09v-2.26h-1.09v-0.76h2.1v3.01h1.1v0.76H250.72z M252.82,168.21v0.93h-1.01v-0.93
		H252.82z"/>
	<path class="st0" d="M255.93,168.51h1.01v1.01h1.47v0.76h-1.47v1.82c0,0.36,0.12,0.43,0.41,0.43h1.04v0.76h-1.41
		c-0.82,0-1.05-0.27-1.05-1.02v-1.98h-1.09v-0.76h1.09V168.51z"/>
	<path class="st0" d="M266.58,168.21h1v5.08h-0.99l-0.01-0.47c-0.18,0.35-0.53,0.56-0.97,0.56c-0.86,0-1.53-0.68-1.53-1.97
		s0.67-1.98,1.53-1.98c0.43,0,0.78,0.21,0.97,0.56V168.21z M265.83,170.18c-0.48,0-0.74,0.48-0.74,1.23s0.27,1.23,0.74,1.23
		c0.48,0,0.78-0.43,0.78-1.23S266.32,170.18,265.83,170.18z"/>
	<path class="st0" d="M269.58,171.66c0.04,0.69,0.41,1,0.83,1c0.4,0,0.64-0.2,0.71-0.55h0.96c-0.1,0.64-0.67,1.27-1.69,1.27
		c-1.18,0-1.79-0.78-1.79-1.94c0-1.2,0.65-2,1.77-2c1.13,0,1.8,0.84,1.76,2.23H269.58z M269.58,171.03h1.61
		c-0.02-0.69-0.42-0.87-0.82-0.87C270.05,170.16,269.63,170.39,269.58,171.03z"/>
	<path class="st0" d="M275.58,170.64c-0.07-0.33-0.34-0.47-0.77-0.47c-0.31,0-0.55,0.13-0.55,0.33c0,0.2,0.22,0.34,0.49,0.41
		l0.41,0.1c0.74,0.18,1.33,0.38,1.33,1.13c0,0.8-0.73,1.25-1.57,1.25c-0.9,0-1.53-0.5-1.62-1.36h0.89c0.04,0.39,0.31,0.62,0.78,0.62
		c0.38,0,0.61-0.13,0.61-0.39s-0.27-0.36-0.58-0.44l-0.45-0.1c-0.69-0.16-1.16-0.47-1.16-1.13c0-0.73,0.66-1.13,1.48-1.13
		c0.69,0,1.45,0.34,1.58,1.2H275.58z"/>
	<path class="st0" d="M281.09,170.88h-0.95c-0.06-0.4-0.25-0.7-0.69-0.7c-0.46,0-0.73,0.39-0.73,1.23c0,0.85,0.28,1.23,0.73,1.23
		c0.31,0,0.62-0.15,0.71-0.73h0.97c-0.13,1.02-0.94,1.47-1.69,1.47c-1.1,0-1.72-0.83-1.72-1.97c0-1.18,0.64-1.98,1.74-1.98
		C280.19,169.44,280.98,169.88,281.09,170.88z"/>
	<path class="st0" d="M284.15,169.52v0.64c0.15-0.32,0.45-0.64,1.04-0.64h0.57v0.81h-0.72c-0.64,0-0.88,0.3-0.88,1.04v1.17h1.37
		v0.76h-3.31v-0.76h0.94v-2.25h-0.94v-0.76H284.15z"/>
	<path class="st0" d="M286.89,173.29v-0.76h1.09v-2.26h-1.09v-0.76h2.1v3.01h1.1v0.76H286.89z M289,168.21v0.93h-1.01v-0.93H289z"/>
	<path class="st0" d="M292.29,170c0.18-0.35,0.53-0.56,0.96-0.56c0.86,0,1.53,0.69,1.53,1.98s-0.67,1.97-1.53,1.97
		c-0.43,0-0.78-0.21-0.96-0.56l-0.01,0.47h-0.99v-5.08h1V170z M293.03,172.64c0.48,0,0.75-0.47,0.75-1.23s-0.27-1.23-0.75-1.23
		c-0.48,0-0.78,0.44-0.78,1.23S292.54,172.64,293.03,172.64z"/>
	<path class="st0" d="M296.71,171.66c0.04,0.69,0.41,1,0.83,1c0.4,0,0.64-0.2,0.71-0.55h0.96c-0.1,0.64-0.67,1.27-1.69,1.27
		c-1.18,0-1.79-0.78-1.79-1.94c0-1.2,0.65-2,1.77-2c1.13,0,1.8,0.84,1.76,2.23H296.71z M296.71,171.03h1.61
		c-0.02-0.69-0.42-0.87-0.82-0.87C297.18,170.16,296.77,170.39,296.71,171.03z"/>
	<path class="st0" d="M302.75,168.21h1v5.08h-0.99l-0.01-0.47c-0.18,0.35-0.53,0.56-0.97,0.56c-0.86,0-1.53-0.68-1.53-1.97
		s0.67-1.98,1.53-1.98c0.43,0,0.78,0.21,0.97,0.56V168.21z M302.01,170.18c-0.48,0-0.74,0.48-0.74,1.23s0.27,1.23,0.74,1.23
		c0.48,0,0.78-0.43,0.78-1.23S302.49,170.18,302.01,170.18z"/>
	<path class="st0" d="M219.94,178.4c0.18-0.35,0.53-0.56,0.96-0.56c0.86,0,1.53,0.69,1.53,1.98s-0.67,1.97-1.53,1.97
		c-0.43,0-0.78-0.21-0.96-0.56l-0.01,0.47h-0.99v-5.08h1V178.4z M220.68,181.04c0.48,0,0.75-0.47,0.75-1.23s-0.27-1.23-0.75-1.23
		c-0.48,0-0.78,0.44-0.78,1.23S220.19,181.04,220.68,181.04z"/>
	<path class="st0" d="M225.71,181.56c-0.45,1.16-0.6,1.35-1.48,1.35h-0.81v-0.75h0.74c0.29,0,0.36-0.06,0.5-0.39l0.04-0.09
		l-1.45-3.77h1.04l0.92,2.57l0.88-2.57h0.99L225.71,181.56z"/>
	<path class="st0" d="M233.59,176.61v1.75c0.22-0.34,0.57-0.53,1.01-0.53c0.87,0,1.22,0.58,1.22,1.48v2.37h-1.01v-2.2
		c0-0.4-0.03-0.88-0.55-0.88c-0.57,0-0.67,0.5-0.67,1.08v2h-1.01v-5.08H233.59z"/>
	<path class="st0" d="M239.36,181.27c-0.22,0.34-0.56,0.5-0.96,0.5c-0.91,0-1.27-0.58-1.27-1.48v-2.37h1.01v2.21
		c0,0.4,0.04,0.88,0.55,0.88c0.56,0,0.67-0.5,0.67-1.08v-2h1.01v3.77h-1.01V181.27z"/>
	<path class="st0" d="M242.77,181.69v-2.52c0-0.44-0.03-0.57-0.2-0.57c-0.2,0-0.25,0.2-0.25,0.79v2.3h-0.98v-3.77h0.98v0.29
		c0.13-0.22,0.38-0.37,0.65-0.37c0.29,0,0.51,0.15,0.63,0.42c0.16-0.29,0.47-0.42,0.7-0.42c0.5,0,0.85,0.28,0.85,1.18v2.67h-0.98
		v-2.52c0-0.44-0.03-0.57-0.2-0.57c-0.2,0-0.25,0.2-0.25,0.79v2.3H242.77z"/>
	<path class="st0" d="M247.27,181.78c-0.64,0-1.27-0.41-1.27-1.1c0-0.96,1.1-1.16,2.37-1.32v-0.08c0-0.58-0.25-0.78-0.67-0.78
		s-0.67,0.2-0.7,0.61h-0.9c0.07-0.74,0.68-1.29,1.64-1.29c0.93,0,1.6,0.38,1.6,1.65c0,0.12-0.01,0.62-0.01,0.97
		c0,1.04,0.04,1.13,0.08,1.25h-0.92l-0.01-0.48C248.2,181.6,247.81,181.78,247.27,181.78z M248.39,179.98
		c-0.97,0.1-1.4,0.21-1.4,0.66c0,0.28,0.19,0.46,0.55,0.46c0.63,0,0.85-0.41,0.85-1.02V179.98z"/>
	<path class="st0" d="M251.68,177.92v0.44c0.22-0.34,0.56-0.53,1-0.53c0.87,0,1.23,0.58,1.23,1.48v2.37h-1.01v-2.2
		c0-0.4-0.04-0.88-0.55-0.88c-0.57,0-0.67,0.5-0.67,1.08v2h-1.01v-3.77H251.68z"/>
	<path class="st0" d="M257.5,179.04c-0.07-0.33-0.34-0.47-0.77-0.47c-0.31,0-0.55,0.13-0.55,0.33c0,0.2,0.22,0.34,0.49,0.41
		l0.41,0.1c0.74,0.18,1.33,0.38,1.33,1.13c0,0.8-0.73,1.25-1.57,1.25c-0.9,0-1.53-0.5-1.62-1.36h0.89c0.04,0.39,0.31,0.62,0.78,0.62
		c0.38,0,0.61-0.13,0.61-0.39c0-0.25-0.27-0.36-0.58-0.44l-0.45-0.1c-0.69-0.16-1.16-0.47-1.16-1.13c0-0.73,0.66-1.13,1.48-1.13
		c0.69,0,1.45,0.34,1.58,1.2H257.5z"/>
	<path class="st0" d="M263.17,177.82c0,1.25-1.58,1.11-1.58,2.09v0.16h-1.02c-0.01-0.1-0.01-0.19-0.01-0.28
		c0-1.21,1.53-1.14,1.53-1.93c0-0.32-0.28-0.55-0.74-0.55c-0.57,0-0.92,0.39-0.92,0.96h-1.01c0-1.11,0.83-1.77,1.94-1.77
		C262.29,176.52,263.17,176.93,263.17,177.82z M260.44,181.69v-1.25h1.3v1.25H260.44z"/>
</g>
<g>
	<g class="st2">
		<g>
			<polygon class="st3" points="48.45,67.1 48.4,84.32 36.1,77.22 36.15,60 			"/>
		</g>
		<g>
			<polygon class="st3" points="60.67,60 48.45,67.1 36.15,60 48.37,52.9 			"/>
		</g>
		<g>
			<polygon class="st4" points="60.67,77.22 48.45,84.32 36.15,77.22 48.37,70.12 			"/>
		</g>
		<g>
			<polygon class="st3" points="60.67,60 60.62,77.22 48.4,84.32 48.45,67.1 			"/>
		</g>
		<line class="st4" x1="48.37" y1="52.9" x2="48.37" y2="70.12"/>
	</g>
</g>
<g>
	<g class="st2">
		<g>
			<polygon class="st3" points="144.27,67.1 144.23,84.32 131.93,77.22 131.98,60 			"/>
		</g>
		<g>
			<polygon class="st3" points="156.49,60 144.27,67.1 131.98,60 144.19,52.9 			"/>
		</g>
		<g>
			<polygon class="st3" points="156.49,60 156.44,77.22 144.23,84.32 144.27,67.1 			"/>
		</g>
	</g>
	<polyline class="st3" points="138.32,56.32 150.36,63.57 150.36,80.76 	"/>
	<polyline class="st3" points="149.63,56.04 138.1,63.54 138.05,80.76 	"/>
	<polyline class="st3" points="131.98,70.12 144.34,77.22 156.46,70.12 	"/>
</g>
<g>
	<g>
		<g class="st2">
			<g>
				<polygon class="st5" points="257.59,67.78 257.57,74.36 252.87,71.64 252.89,65.07 				"/>
			</g>
			<g>
				<polygon class="st5" points="262.26,65.07 257.59,67.78 252.89,65.07 257.56,62.35 				"/>
			</g>
			<g>
				<polygon class="st5" points="262.26,65.07 262.24,71.64 257.57,74.36 257.59,67.78 				"/>
			</g>
		</g>
	</g>
	<g>
		<g class="st2">
			<g>
				<polygon class="st5" points="265.2,73.78 265.18,80.36 260.48,77.65 260.5,71.07 				"/>
			</g>
			<g>
				<polygon class="st5" points="269.86,71.07 265.2,73.78 260.5,71.07 265.17,68.36 				"/>
			</g>
			<g>
				<polygon class="st5" points="269.86,71.07 269.85,77.65 265.18,80.36 265.2,73.78 				"/>
			</g>
		</g>
	</g>
	<g>
		<g class="st2">
			<g>
				<polygon class="st5" points="249.11,72.14 249.1,78.71 244.4,76 244.42,69.42 				"/>
			</g>
			<g>
				<polygon class="st5" points="253.78,69.42 249.11,72.14 244.42,69.42 249.08,66.71 				"/>
			</g>
			<g>
				<polygon class="st5" points="253.78,69.42 253.76,76 249.1,78.71 249.11,72.14 				"/>
			</g>
		</g>
	</g>
	<g>
		<g class="st2">
			<g>
				<polygon class="st5" points="256.72,78.14 256.7,84.71 252,82 252.02,75.42 				"/>
			</g>
			<g>
				<polygon class="st5" points="261.39,75.42 256.72,78.14 252.02,75.42 256.69,72.71 				"/>
			</g>
			<g>
				<polygon class="st5" points="261.39,75.42 261.37,82 256.7,84.71 256.72,78.14 				"/>
			</g>
		</g>
	</g>
	<g>
		<g class="st2">
			<g>
				<polygon class="st5" points="257.59,57.32 257.57,63.9 252.87,61.18 252.89,54.61 				"/>
			</g>
			<g>
				<polygon class="st5" points="262.26,54.61 257.59,57.32 252.89,54.61 257.56,51.89 				"/>
			</g>
			<g>
				<polygon class="st5" points="262.26,54.61 262.24,61.18 257.57,63.9 257.59,57.32 				"/>
			</g>
		</g>
	</g>
	<g>
		<g class="st2">
			<g>
				<polygon class="st5" points="265.2,63.32 265.18,69.9 260.48,67.19 260.5,60.61 				"/>
			</g>
			<g>
				<polygon class="st5" points="269.86,60.61 265.2,63.32 260.5,60.61 265.17,57.9 				"/>
			</g>
			<g>
				<polygon class="st5" points="269.86,60.61 269.85,67.19 265.18,69.9 265.2,63.32 				"/>
			</g>
		</g>
	</g>
	<g>
		<g class="st2">
			<g>
				<polygon class="st5" points="249.11,61.68 249.1,68.25 244.4,65.54 244.42,58.96 				"/>
			</g>
			<g>
				<polygon class="st5" points="253.78,58.96 249.11,61.68 244.42,58.96 249.08,56.25 				"/>
			</g>
			<g>
				<polygon class="st5" points="253.78,58.96 253.76,65.54 249.1,68.25 249.11,61.68 				"/>
			</g>
		</g>
	</g>
	<g>
		<g class="st2">
			<g>
				<polygon class="st5" points="256.72,67.68 256.7,74.25 252,71.54 252.02,64.96 				"/>
			</g>
			<g>
				<polygon class="st5" points="261.39,64.96 256.72,67.68 252.02,64.96 256.69,62.25 				"/>
			</g>
			<g>
				<polygon class="st5" points="261.39,64.96 261.37,71.54 256.7,74.25 256.72,67.68 				"/>
			</g>
		</g>
	</g>
</g>
<g>
	<g>
		<g class="st2">
			<g>
				<polygon class="st5" points="248.93,140.93 248.9,151.04 241.68,146.87 241.71,136.76 				"/>
			</g>
			<g>
				<polygon class="st5" points="256.1,136.76 248.93,140.93 241.71,136.76 248.88,132.59 				"/>
			</g>
			<g>
				<polygon class="st5" points="256.1,136.76 256.08,146.87 248.9,151.04 248.93,140.93 				"/>
			</g>
		</g>
	</g>
	<polyline class="st6" points="248.93,136.76 258.85,131.22 280.1,131.22 	"/>
	<g>
		<path class="st0" d="M266.58,126.31l1.25,1.67h-0.29l-1.1-1.48l-1.1,1.48h-0.28l1.24-1.66l-1.16-1.57h0.28l1.03,1.38l1.03-1.38
			h0.28L266.58,126.31z"/>
		<path class="st0" d="M270.46,126.31l1.25,1.67h-0.29l-1.1-1.48l-1.1,1.48h-0.28l1.24-1.66l-1.16-1.57h0.28l1.03,1.38l1.03-1.38
			h0.28L270.46,126.31z"/>
	</g>
</g>
<g>
	<g>
		<line class="st7" x1="85.37" y1="71.07" x2="98.78" y2="71.07"/>
		<g>
			<polygon class="st0" points="98.05,73.56 102.37,71.07 98.05,68.58 			"/>
		</g>
	</g>
</g>
<g>
	<g>
		<line class="st7" x1="190.72" y1="71.07" x2="204.13" y2="71.07"/>
		<g>
			<polygon class="st0" points="203.4,73.56 207.72,71.07 203.4,68.58 			"/>
		</g>
	</g>
</g>
<g>
	<g>
		<polyline class="st7" points="300.51,71.07 317.51,71.07 317.51,143.74 304.1,143.74 		"/>
		<g>
			<polygon class="st0" points="304.83,141.25 300.51,143.74 304.83,146.24 			"/>
		</g>
	</g>
</g>
<g>
	<path class="st0" d="M114.39,167.14v5.08h-1.05v-2.14h-1.47v2.14h-1.05v-5.08h1.05v2.03h1.47v-2.03H114.39z"/>
	<path class="st0" d="M117.13,172.31c-0.92,0-1.8-0.53-1.8-1.97c0-1.44,0.88-1.97,1.8-1.97c0.92,0,1.8,0.53,1.8,1.97
		C118.93,171.78,118.05,172.31,117.13,172.31z M117.13,169.11c-0.48,0-0.79,0.36-0.79,1.23c0,0.87,0.31,1.23,0.79,1.23
		s0.79-0.36,0.79-1.23C117.92,169.46,117.61,169.11,117.13,169.11z"/>
	<path class="st0" d="M122.06,169.17l0.34,1.66l0.27-2.38h0.98l-0.47,3.77h-1.09l-0.43-2.32l-0.44,2.32h-1.09l-0.46-3.77h0.97
		l0.27,2.38l0.35-1.66H122.06z"/>
	<path class="st0" d="M129.11,172.22v-0.76h1.09v-2.26h-1.09v-0.76h2.1v3.01h1.1v0.76H129.11z M131.21,167.14v0.93h-1.01v-0.93
		H131.21z"/>
	<path class="st0" d="M135.89,169.57c-0.07-0.33-0.34-0.47-0.77-0.47c-0.31,0-0.55,0.13-0.55,0.33c0,0.2,0.22,0.34,0.49,0.41
		l0.41,0.1c0.74,0.18,1.33,0.38,1.33,1.13c0,0.8-0.73,1.25-1.57,1.25c-0.9,0-1.53-0.5-1.62-1.36h0.89c0.04,0.39,0.31,0.62,0.78,0.62
		c0.38,0,0.61-0.13,0.61-0.39c0-0.25-0.27-0.36-0.58-0.44l-0.45-0.1c-0.69-0.16-1.16-0.47-1.16-1.13c0-0.73,0.66-1.13,1.48-1.13
		c0.69,0,1.45,0.34,1.58,1.2H135.89z"/>
	<path class="st0" d="M142.68,172.22v-0.76h1.09v-2.26h-1.09v-0.76h2.1v3.01h1.1v0.76H142.68z M144.78,167.14v0.93h-1.01v-0.93
		H144.78z"/>
	<path class="st0" d="M147.89,167.44h1.01v1.01h1.47v0.76h-1.47v1.82c0,0.36,0.12,0.43,0.41,0.43h1.04v0.76h-1.41
		c-0.82,0-1.05-0.27-1.05-1.02v-1.98h-1.09v-0.76h1.09V167.44z"/>
	<path class="st0" d="M156.25,172.22v-0.76h1.09v-3.57h-1.09v-0.75h2.1v4.32h1.09v0.76H156.25z"/>
	<path class="st0" d="M160.76,172.22v-0.76h1.09v-2.26h-1.09v-0.76h2.1v3.01h1.1v0.76H160.76z M162.87,167.14v0.93h-1.01v-0.93
		H162.87z"/>
	<path class="st0" d="M166.25,168.45v0.44c0.22-0.34,0.56-0.53,1-0.53c0.87,0,1.23,0.58,1.23,1.48v2.37h-1.01v-2.2
		c0-0.4-0.04-0.88-0.55-0.88c-0.57,0-0.67,0.5-0.67,1.08v2h-1.01v-3.77H166.25z"/>
	<path class="st0" d="M170.78,171.16v1.06h-1.01v-5.08h1.01v2.77l1.24-1.46h1.12l-1.28,1.46l1.36,2.3h-1.11l-0.9-1.55L170.78,171.16
		z"/>
	<path class="st0" d="M175.1,170.59c0.04,0.69,0.41,1,0.83,1c0.4,0,0.64-0.2,0.71-0.55h0.96c-0.1,0.64-0.67,1.27-1.69,1.27
		c-1.18,0-1.79-0.78-1.79-1.94c0-1.2,0.65-2,1.77-2c1.13,0,1.8,0.84,1.76,2.23H175.1z M175.1,169.96h1.61
		c-0.02-0.69-0.42-0.87-0.82-0.87C175.57,169.09,175.16,169.32,175.1,169.96z"/>
	<path class="st0" d="M181.14,167.14h1v5.08h-0.99l-0.01-0.47c-0.18,0.35-0.53,0.56-0.97,0.56c-0.86,0-1.53-0.68-1.53-1.97
		s0.67-1.98,1.53-1.98c0.43,0,0.78,0.21,0.97,0.56V167.14z M180.4,169.11c-0.48,0-0.74,0.48-0.74,1.23s0.27,1.23,0.74,1.23
		c0.48,0,0.78-0.43,0.78-1.23S180.88,169.11,180.4,169.11z"/>
	<path class="st0" d="M186.79,168.35c0,1.25-1.58,1.11-1.58,2.09v0.16h-1.02c-0.01-0.1-0.01-0.19-0.01-0.28
		c0-1.21,1.53-1.14,1.53-1.93c0-0.32-0.28-0.55-0.74-0.55c-0.57,0-0.92,0.39-0.92,0.96h-1.01c0-1.11,0.83-1.77,1.94-1.77
		C185.9,167.05,186.79,167.46,186.79,168.35z M184.05,172.22v-1.25h1.3v1.25H184.05z"/>
</g>
<g>
	<g>
		<g class="st2">
			<g>
				<polygon class="st5" points="143.95,126.23 143.93,132.81 139.23,130.1 139.25,123.52 				"/>
			</g>
			<g>
				<polygon class="st5" points="148.62,123.52 143.95,126.23 139.25,123.52 143.92,120.81 				"/>
			</g>
			<g>
				<polygon class="st5" points="148.62,123.52 148.6,130.1 143.93,132.81 143.95,126.23 				"/>
			</g>
		</g>
	</g>
	<g>
		<g class="st2">
			<g>
				<polygon class="st5" points="158.08,139.22 158.06,145.8 153.37,143.08 153.39,136.51 				"/>
			</g>
			<g>
				<polygon class="st5" points="162.75,136.51 158.08,139.22 153.39,136.51 158.05,133.79 				"/>
			</g>
			<g>
				<polygon class="st5" points="162.75,136.51 162.73,143.08 158.06,145.8 158.08,139.22 				"/>
			</g>
		</g>
	</g>
	<g>
		<g class="st2">
			<g>
				<polygon class="st5" points="129.65,139.46 129.63,146.04 124.93,143.33 124.95,136.75 				"/>
			</g>
			<g>
				<polygon class="st5" points="134.32,136.75 129.65,139.46 124.95,136.75 129.62,134.04 				"/>
			</g>
			<g>
				<polygon class="st5" points="134.32,136.75 134.3,143.33 129.63,146.04 129.65,139.46 				"/>
			</g>
		</g>
	</g>
	<g>
		<g class="st2">
			<g>
				<polygon class="st5" points="143.95,152.87 143.93,159.44 139.23,156.73 139.25,150.15 				"/>
			</g>
			<g>
				<polygon class="st5" points="148.62,150.15 143.95,152.87 139.25,150.15 143.92,147.44 				"/>
			</g>
			<g>
				<polygon class="st5" points="148.62,150.15 148.6,156.73 143.93,159.44 143.95,152.87 				"/>
			</g>
		</g>
	</g>
	<line class="st6" x1="143.95" y1="132.63" x2="143.95" y2="147.44"/>
	<line class="st6" x1="134.51" y1="140.04" x2="153.39" y2="140.04"/>
</g>
<g>
	<g>
		<line class="st7" x1="194.3" y1="143.74" x2="207.72" y2="143.74"/>
		<g>
			<polygon class="st0" points="195.03,146.24 190.72,143.74 195.03,141.25 			"/>
		</g>
	</g>
</g>
<g>
	<g>
		<polyline class="st7" points="102.37,143.94 85.37,143.94 85.37,223.3 98.78,223.3 		"/>
		<g>
			<polygon class="st0" points="98.05,225.79 102.37,223.3 98.05,220.81 			"/>
		</g>
	</g>
</g>
<g>
	<rect x="110.34" y="246.61" class="st1" width="78.37" height="22.61"/>
	<path class="st0" d="M114.39,247.57v5.08h-1.05v-2.14h-1.47v2.14h-1.05v-5.08h1.05v2.03h1.47v-2.03H114.39z"/>
	<path class="st0" d="M117.13,252.74c-0.92,0-1.8-0.53-1.8-1.97c0-1.44,0.88-1.97,1.8-1.97c0.92,0,1.8,0.53,1.8,1.97
		C118.93,252.21,118.05,252.74,117.13,252.74z M117.13,249.54c-0.48,0-0.79,0.36-0.79,1.23c0,0.87,0.31,1.23,0.79,1.23
		s0.79-0.36,0.79-1.23C117.92,249.9,117.61,249.54,117.13,249.54z"/>
	<path class="st0" d="M122.06,249.6l0.34,1.66l0.27-2.38h0.98l-0.47,3.77h-1.09l-0.43-2.32l-0.44,2.32h-1.09l-0.46-3.77h0.97
		l0.27,2.38l0.35-1.66H122.06z"/>
	<path class="st0" d="M129.11,252.65v-0.76h1.09v-2.26h-1.09v-0.76h2.1v3.01h1.1v0.76H129.11z M131.21,247.57v0.93h-1.01v-0.93
		H131.21z"/>
	<path class="st0" d="M135.89,250c-0.07-0.33-0.34-0.47-0.77-0.47c-0.31,0-0.55,0.13-0.55,0.33c0,0.2,0.22,0.34,0.49,0.41l0.41,0.1
		c0.74,0.18,1.33,0.38,1.33,1.13c0,0.8-0.73,1.25-1.57,1.25c-0.9,0-1.53-0.5-1.62-1.36h0.89c0.04,0.39,0.31,0.62,0.78,0.62
		c0.38,0,0.61-0.13,0.61-0.39s-0.27-0.36-0.58-0.44l-0.45-0.1c-0.69-0.16-1.16-0.47-1.16-1.13c0-0.73,0.66-1.13,1.48-1.13
		c0.69,0,1.45,0.34,1.58,1.2H135.89z"/>
	<path class="st0" d="M142.68,252.65v-0.76h1.09v-2.26h-1.09v-0.76h2.1v3.01h1.1v0.76H142.68z M144.78,247.57v0.93h-1.01v-0.93
		H144.78z"/>
	<path class="st0" d="M147.89,247.87h1.01v1.01h1.47v0.76h-1.47v1.82c0,0.36,0.12,0.43,0.41,0.43h1.04v0.76h-1.41
		c-0.82,0-1.05-0.27-1.05-1.02v-1.98h-1.09v-0.76h1.09V247.87z"/>
	<path class="st0" d="M157.85,251.45l0.9-2.57h1l-1.42,3.77h-0.97l-1.44-3.77h1.04L157.85,251.45z"/>
	<path class="st0" d="M160.76,252.65v-0.76h1.09v-2.26h-1.09v-0.76h2.1v3.01h1.1v0.76H160.76z M162.87,247.57v0.93h-1.01v-0.93
		H162.87z"/>
	<path class="st0" d="M167.54,250c-0.07-0.33-0.34-0.47-0.77-0.47c-0.31,0-0.55,0.13-0.55,0.33c0,0.2,0.22,0.34,0.49,0.41l0.41,0.1
		c0.74,0.18,1.33,0.38,1.33,1.13c0,0.8-0.73,1.25-1.57,1.25c-0.9,0-1.53-0.5-1.62-1.36h0.89c0.04,0.39,0.32,0.62,0.78,0.62
		c0.38,0,0.61-0.13,0.61-0.39s-0.27-0.36-0.58-0.44l-0.45-0.1c-0.69-0.16-1.16-0.47-1.16-1.13c0-0.73,0.66-1.13,1.48-1.13
		c0.69,0,1.45,0.34,1.58,1.2H167.54z"/>
	<path class="st0" d="M172.02,252.24c-0.22,0.34-0.56,0.5-0.96,0.5c-0.91,0-1.27-0.58-1.27-1.48v-2.37h1.01v2.21
		c0,0.4,0.04,0.88,0.55,0.88c0.56,0,0.67-0.5,0.67-1.08v-2h1.01v3.77h-1.01V252.24z"/>
	<path class="st0" d="M175.4,252.74c-0.64,0-1.27-0.41-1.27-1.1c0-0.96,1.1-1.16,2.37-1.32v-0.08c0-0.58-0.25-0.78-0.67-0.78
		s-0.67,0.2-0.7,0.61h-0.9c0.07-0.74,0.68-1.29,1.64-1.29c0.93,0,1.6,0.38,1.6,1.65c0,0.12-0.01,0.62-0.01,0.97
		c0,1.04,0.04,1.13,0.08,1.25h-0.92l-0.01-0.48C176.33,252.56,175.95,252.74,175.4,252.74z M176.52,250.94
		c-0.97,0.1-1.4,0.21-1.4,0.66c0,0.28,0.19,0.46,0.55,0.46c0.63,0,0.85-0.41,0.85-1.02V250.94z"/>
	<path class="st0" d="M178.86,252.65v-0.76h1.09v-3.57h-1.09v-0.75h2.1v4.32h1.09v0.76H178.86z"/>
	<path class="st0" d="M183.72,251.28v-0.97h2.48v0.97H183.72z"/>
	<path class="st0" d="M111.02,261.05v-0.76h1.09v-2.26h-1.09v-0.76h2.1v3.01h1.1v0.76H111.02z M113.12,255.97v0.93h-1.01v-0.93
		H113.12z"/>
	<path class="st0" d="M115.54,260.31l1.95-2.27h-1.81v-0.76h2.96v0.74l-1.97,2.28h2.02v0.76h-3.15V260.31z"/>
	<path class="st0" d="M120.84,259.42c0.04,0.69,0.41,1,0.83,1c0.4,0,0.64-0.2,0.71-0.55h0.96c-0.1,0.64-0.67,1.27-1.69,1.27
		c-1.18,0-1.79-0.78-1.79-1.94c0-1.2,0.65-2,1.77-2c1.13,0,1.8,0.84,1.76,2.23H120.84z M120.84,258.79h1.61
		c-0.02-0.69-0.42-0.87-0.82-0.87C121.31,257.92,120.89,258.15,120.84,258.79z"/>
	<path class="st0" d="M126.88,255.97h1v5.08h-0.99l-0.01-0.47c-0.18,0.35-0.53,0.56-0.97,0.56c-0.86,0-1.53-0.68-1.53-1.97
		s0.67-1.98,1.53-1.98c0.43,0,0.78,0.21,0.97,0.56V255.97z M126.14,257.94c-0.48,0-0.74,0.48-0.74,1.23s0.27,1.23,0.74,1.23
		c0.48,0,0.78-0.43,0.78-1.23S126.62,257.94,126.14,257.94z"/>
	<path class="st0" d="M134.51,257.76c0.17-0.35,0.53-0.56,0.96-0.56c0.86,0,1.53,0.69,1.53,1.98s-0.67,1.97-1.53,1.97
		c-0.43,0-0.78-0.21-0.96-0.56l-0.01,0.47h-1v-5.08h1V257.76z M135.24,260.4c0.48,0,0.75-0.47,0.75-1.23s-0.27-1.23-0.75-1.23
		c-0.48,0-0.78,0.44-0.78,1.23S134.76,260.4,135.24,260.4z"/>
	<path class="st0" d="M140.28,260.92c-0.45,1.16-0.6,1.35-1.48,1.35h-0.81v-0.75h0.74c0.29,0,0.36-0.06,0.5-0.39l0.04-0.09
		l-1.45-3.77h1.04l0.92,2.57l0.88-2.57h1L140.28,260.92z"/>
	<path class="st0" d="M148.16,255.97v1.75c0.22-0.34,0.57-0.53,1.01-0.53c0.87,0,1.22,0.58,1.22,1.48v2.37h-1.01v-2.2
		c0-0.4-0.03-0.88-0.55-0.88c-0.57,0-0.67,0.5-0.67,1.08v2h-1.01v-5.08H148.16z"/>
	<path class="st0" d="M153.93,260.64c-0.22,0.34-0.56,0.5-0.96,0.5c-0.91,0-1.27-0.58-1.27-1.48v-2.37h1.01v2.21
		c0,0.4,0.04,0.88,0.55,0.88c0.56,0,0.67-0.5,0.67-1.08v-2h1.01v3.77h-1.01V260.64z"/>
	<path class="st0" d="M157.34,261.05v-2.52c0-0.44-0.03-0.57-0.2-0.57c-0.2,0-0.25,0.2-0.25,0.79v2.3h-0.98v-3.77h0.98v0.29
		c0.13-0.22,0.38-0.37,0.65-0.37c0.29,0,0.51,0.15,0.63,0.42c0.16-0.29,0.47-0.42,0.7-0.42c0.5,0,0.85,0.28,0.85,1.18v2.67h-0.98
		v-2.52c0-0.44-0.03-0.57-0.2-0.57c-0.2,0-0.25,0.2-0.25,0.79v2.3H157.34z"/>
	<path class="st0" d="M161.84,261.14c-0.64,0-1.28-0.41-1.28-1.1c0-0.96,1.1-1.16,2.37-1.32v-0.08c0-0.58-0.25-0.78-0.67-0.78
		s-0.67,0.2-0.7,0.61h-0.9c0.07-0.74,0.68-1.29,1.64-1.29c0.93,0,1.6,0.38,1.6,1.65c0,0.12-0.01,0.62-0.01,0.97
		c0,1.04,0.04,1.13,0.08,1.25h-0.92l-0.01-0.48C162.77,260.96,162.38,261.14,161.84,261.14z M162.96,259.34
		c-0.97,0.1-1.4,0.21-1.4,0.66c0,0.28,0.19,0.46,0.55,0.46c0.63,0,0.85-0.41,0.85-1.02V259.34z"/>
	<path class="st0" d="M166.25,257.28v0.44c0.22-0.34,0.56-0.53,1-0.53c0.87,0,1.23,0.58,1.23,1.48v2.37h-1.01v-2.2
		c0-0.4-0.04-0.88-0.55-0.88c-0.57,0-0.67,0.5-0.67,1.08v2h-1.01v-3.77H166.25z"/>
	<path class="st0" d="M172.06,258.4c-0.07-0.33-0.34-0.47-0.77-0.47c-0.31,0-0.55,0.13-0.55,0.33c0,0.2,0.22,0.34,0.49,0.41
		l0.41,0.1c0.74,0.18,1.33,0.38,1.33,1.13c0,0.8-0.73,1.25-1.57,1.25c-0.9,0-1.53-0.5-1.62-1.36h0.89c0.04,0.39,0.31,0.62,0.78,0.62
		c0.38,0,0.61-0.13,0.61-0.39c0-0.25-0.27-0.36-0.58-0.44l-0.45-0.1c-0.69-0.16-1.16-0.47-1.16-1.13c0-0.73,0.66-1.13,1.48-1.13
		c0.69,0,1.45,0.34,1.58,1.2H172.06z"/>
	<path class="st0" d="M177.74,257.18c0,1.25-1.58,1.11-1.58,2.09v0.16h-1.02c-0.01-0.1-0.01-0.19-0.01-0.28
		c0-1.21,1.53-1.14,1.53-1.93c0-0.32-0.28-0.55-0.74-0.55c-0.57,0-0.92,0.39-0.92,0.96H174c0-1.11,0.83-1.77,1.94-1.77
		C176.86,255.88,177.74,256.29,177.74,257.18z M175,261.05v-1.25h1.3v1.25H175z"/>
</g>
<g>
	<g>
		<g class="st2">
			<g>
				<polygon class="st5" points="152.99,209.43 152.91,238.83 132.69,226.7 132.77,197.31 				"/>
			</g>
			<g>
				<polygon class="st5" points="134.48,220.29 134.45,230.4 127.23,226.23 127.26,216.12 				"/>
			</g>
			<g>
				<polygon class="st8" points="146.1,213.19 146.08,223.3 138.85,219.13 138.88,209.02 				"/>
			</g>
			<g>
				<polygon class="st5" points="141.65,216.12 134.48,220.29 127.26,216.12 134.43,211.95 				"/>
			</g>
			<g>
				<polygon class="st5" points="141.65,216.12 141.63,226.23 134.45,230.4 134.48,220.29 				"/>
			</g>
			<line class="st8" x1="141.65" y1="216.12" x2="146.49" y2="213.14"/>
			<line class="st8" x1="141.65" y1="226.23" x2="146.49" y2="223.26"/>
			<line class="st8" x1="134.48" y1="211.95" x2="139.32" y2="208.97"/>
		</g>
	</g>
</g>
<g>
	<rect x="219.03" y="246.4" class="st1" width="72.09" height="18.32"/>
	<path class="st0" d="M222.06,251.06l0.17-3.7h1.1l-0.31,5.08h-1.29l-0.44-2.58l-0.43,2.58h-1.29l-0.31-5.08h1.1l0.17,3.7l0.38-2.35
		h0.78L222.06,251.06z"/>
	<path class="st0" d="M225.19,247.36v1.75c0.22-0.34,0.57-0.53,1.01-0.53c0.87,0,1.22,0.58,1.22,1.48v2.37h-1.01v-2.2
		c0-0.4-0.03-0.88-0.55-0.88c-0.57,0-0.67,0.5-0.67,1.08v2h-1.01v-5.08H225.19z"/>
	<path class="st0" d="M229.83,252.53c-0.64,0-1.27-0.41-1.27-1.1c0-0.96,1.1-1.16,2.37-1.32v-0.08c0-0.58-0.25-0.78-0.67-0.78
		s-0.67,0.2-0.7,0.61h-0.9c0.07-0.74,0.68-1.29,1.64-1.29c0.93,0,1.6,0.38,1.6,1.65c0,0.12-0.01,0.62-0.01,0.97
		c0,1.04,0.04,1.13,0.08,1.25h-0.92l-0.01-0.48C230.76,252.36,230.37,252.53,229.83,252.53z M230.95,250.73
		c-0.97,0.1-1.4,0.21-1.4,0.66c0,0.28,0.19,0.46,0.55,0.46c0.63,0,0.85-0.41,0.85-1.02V250.73z"/>
	<path class="st0" d="M233.96,247.66h1.01v1.01h1.47v0.76h-1.47v1.82c0,0.36,0.12,0.43,0.41,0.43h1.04v0.76h-1.41
		c-0.82,0-1.05-0.27-1.05-1.02v-1.98h-1.09v-0.76h1.09V247.66z"/>
	<path class="st0" d="M244.61,247.36h1v5.08h-0.99l-0.01-0.47c-0.18,0.35-0.53,0.56-0.97,0.56c-0.86,0-1.53-0.68-1.53-1.97
		s0.67-1.98,1.53-1.98c0.43,0,0.78,0.21,0.97,0.56V247.36z M243.87,249.33c-0.48,0-0.74,0.48-0.74,1.23s0.27,1.23,0.74,1.23
		c0.48,0,0.78-0.43,0.78-1.23S244.35,249.33,243.87,249.33z"/>
	<path class="st0" d="M248.43,252.53c-0.92,0-1.8-0.53-1.8-1.97c0-1.44,0.88-1.97,1.8-1.97c0.92,0,1.8,0.53,1.8,1.97
		C250.23,252,249.34,252.53,248.43,252.53z M248.43,249.33c-0.48,0-0.79,0.36-0.79,1.23c0,0.87,0.31,1.23,0.79,1.23
		s0.79-0.36,0.79-1.23C249.22,249.69,248.91,249.33,248.43,249.33z"/>
	<path class="st0" d="M252.14,250.82c0.04,0.69,0.41,1,0.83,1c0.4,0,0.64-0.2,0.71-0.55h0.96c-0.1,0.64-0.67,1.27-1.69,1.27
		c-1.18,0-1.79-0.78-1.79-1.94c0-1.2,0.65-2,1.77-2c1.13,0,1.8,0.84,1.76,2.23H252.14z M252.14,250.18h1.61
		c-0.02-0.69-0.42-0.87-0.82-0.87C252.61,249.31,252.19,249.54,252.14,250.18z"/>
	<path class="st0" d="M258.14,249.79c-0.07-0.33-0.34-0.47-0.77-0.47c-0.31,0-0.55,0.13-0.55,0.33c0,0.2,0.22,0.34,0.49,0.41
		l0.41,0.1c0.74,0.18,1.33,0.38,1.33,1.13c0,0.8-0.73,1.25-1.57,1.25c-0.9,0-1.53-0.5-1.62-1.36h0.89c0.04,0.39,0.31,0.62,0.78,0.62
		c0.38,0,0.61-0.13,0.61-0.39s-0.27-0.36-0.58-0.44l-0.45-0.1c-0.69-0.16-1.16-0.47-1.16-1.13c0-0.73,0.66-1.13,1.48-1.13
		c0.69,0,1.45,0.34,1.58,1.2H258.14z"/>
	<path class="st0" d="M264.93,252.44v-0.76h1.09v-2.26h-1.09v-0.76h2.1v3.01h1.1v0.76H264.93z M267.03,247.36v0.93h-1.01v-0.93
		H267.03z"/>
	<path class="st0" d="M270.14,247.66h1.01v1.01h1.47v0.76h-1.47v1.82c0,0.36,0.12,0.43,0.41,0.43h1.04v0.76h-1.41
		c-0.82,0-1.05-0.27-1.05-1.02v-1.98h-1.09v-0.76h1.09V247.66z"/>
	<path class="st0" d="M220.81,260.84v-2.52c0-0.44-0.03-0.57-0.2-0.57c-0.2,0-0.25,0.2-0.25,0.79v2.3h-0.98v-3.77h0.98v0.29
		c0.13-0.22,0.38-0.37,0.65-0.37c0.29,0,0.51,0.15,0.63,0.42c0.16-0.29,0.47-0.42,0.7-0.42c0.5,0,0.85,0.28,0.85,1.18v2.67h-0.98
		v-2.52c0-0.44-0.03-0.57-0.2-0.57c-0.2,0-0.25,0.2-0.25,0.79v2.3H220.81z"/>
	<path class="st0" d="M225,259.22c0.04,0.69,0.41,1,0.83,1c0.4,0,0.64-0.2,0.71-0.55h0.96c-0.1,0.64-0.67,1.27-1.69,1.27
		c-1.18,0-1.79-0.78-1.79-1.94c0-1.2,0.65-2,1.77-2c1.13,0,1.8,0.84,1.76,2.23H225z M225,258.58h1.61
		c-0.02-0.69-0.42-0.87-0.82-0.87C225.47,257.71,225.06,257.94,225,258.58z"/>
	<path class="st0" d="M229.83,260.93c-0.64,0-1.27-0.41-1.27-1.1c0-0.96,1.1-1.16,2.37-1.32v-0.08c0-0.58-0.25-0.78-0.67-0.78
		s-0.67,0.2-0.7,0.61h-0.9c0.07-0.74,0.68-1.29,1.64-1.29c0.93,0,1.6,0.38,1.6,1.65c0,0.12-0.01,0.62-0.01,0.97
		c0,1.04,0.04,1.13,0.08,1.25h-0.92l-0.01-0.48C230.76,260.76,230.37,260.93,229.83,260.93z M230.95,259.13
		c-0.97,0.1-1.4,0.21-1.4,0.66c0,0.28,0.19,0.46,0.55,0.46c0.63,0,0.85-0.41,0.85-1.02V259.13z"/>
	<path class="st0" d="M234.24,257.07v0.44c0.22-0.34,0.56-0.53,1-0.53c0.87,0,1.23,0.58,1.23,1.48v2.37h-1.01v-2.2
		c0-0.4-0.04-0.88-0.55-0.88c-0.57,0-0.67,0.5-0.67,1.08v2h-1.01v-3.77H234.24z"/>
	<path class="st0" d="M243.01,256.06h1.01v1.01h1.47v0.76h-1.47v1.82c0,0.36,0.12,0.43,0.41,0.43h1.04v0.76h-1.41
		c-0.82,0-1.05-0.27-1.05-1.02v-1.98h-1.09v-0.76h1.09V256.06z"/>
	<path class="st0" d="M248.43,260.93c-0.92,0-1.8-0.53-1.8-1.97c0-1.44,0.88-1.97,1.8-1.97c0.92,0,1.8,0.53,1.8,1.97
		C250.23,260.4,249.34,260.93,248.43,260.93z M248.43,257.73c-0.48,0-0.79,0.36-0.79,1.23c0,0.87,0.31,1.23,0.79,1.23
		s0.79-0.36,0.79-1.23C249.22,258.09,248.91,257.73,248.43,257.73z"/>
	<path class="st0" d="M256.85,255.76v1.75c0.22-0.34,0.57-0.53,1.01-0.53c0.87,0,1.22,0.58,1.22,1.48v2.37h-1.01v-2.2
		c0-0.4-0.03-0.88-0.55-0.88c-0.57,0-0.67,0.5-0.67,1.08v2h-1.01v-5.08H256.85z"/>
	<path class="st0" d="M262.62,260.43c-0.22,0.34-0.56,0.5-0.96,0.5c-0.91,0-1.27-0.58-1.27-1.48v-2.37h1.01v2.21
		c0,0.4,0.04,0.88,0.55,0.88c0.56,0,0.67-0.5,0.67-1.08v-2h1.01v3.77h-1.01V260.43z"/>
	<path class="st0" d="M266.03,260.84v-2.52c0-0.44-0.03-0.57-0.2-0.57c-0.2,0-0.25,0.2-0.25,0.79v2.3h-0.98v-3.77h0.98v0.29
		c0.13-0.22,0.38-0.37,0.65-0.37c0.29,0,0.51,0.15,0.63,0.42c0.16-0.29,0.47-0.42,0.7-0.42c0.5,0,0.85,0.28,0.85,1.18v2.67h-0.98
		v-2.52c0-0.44-0.03-0.57-0.2-0.57c-0.2,0-0.25,0.2-0.25,0.79v2.3H266.03z"/>
	<path class="st0" d="M270.53,260.93c-0.64,0-1.27-0.41-1.27-1.1c0-0.96,1.1-1.16,2.37-1.32v-0.08c0-0.58-0.25-0.78-0.67-0.78
		s-0.67,0.2-0.7,0.61h-0.9c0.07-0.74,0.68-1.29,1.64-1.29c0.93,0,1.6,0.38,1.6,1.65c0,0.12-0.01,0.62-0.01,0.97
		c0,1.04,0.04,1.13,0.08,1.25h-0.92l-0.01-0.48C271.46,260.76,271.07,260.93,270.53,260.93z M271.65,259.13
		c-0.97,0.1-1.4,0.21-1.4,0.66c0,0.28,0.19,0.46,0.55,0.46c0.63,0,0.85-0.41,0.85-1.02V259.13z"/>
	<path class="st0" d="M274.94,257.07v0.44c0.22-0.34,0.56-0.53,1-0.53c0.87,0,1.23,0.58,1.23,1.48v2.37h-1.01v-2.2
		c0-0.4-0.04-0.88-0.55-0.88c-0.57,0-0.67,0.5-0.67,1.08v2h-1.01v-3.77H274.94z"/>
	<path class="st0" d="M280.75,258.19c-0.07-0.33-0.34-0.47-0.77-0.47c-0.31,0-0.55,0.13-0.55,0.33c0,0.2,0.22,0.34,0.49,0.41
		l0.41,0.1c0.74,0.18,1.33,0.38,1.33,1.13c0,0.8-0.73,1.25-1.57,1.25c-0.9,0-1.53-0.5-1.62-1.36h0.89c0.04,0.39,0.31,0.62,0.78,0.62
		c0.38,0,0.61-0.13,0.61-0.39c0-0.25-0.27-0.36-0.58-0.44l-0.45-0.1c-0.69-0.16-1.16-0.47-1.16-1.13c0-0.73,0.66-1.13,1.48-1.13
		c0.69,0,1.45,0.34,1.58,1.2H280.75z"/>
	<path class="st0" d="M286.43,256.97c0,1.25-1.58,1.11-1.58,2.09v0.16h-1.02c-0.01-0.1-0.01-0.19-0.01-0.28
		c0-1.21,1.53-1.14,1.53-1.93c0-0.32-0.28-0.55-0.74-0.55c-0.57,0-0.92,0.39-0.92,0.96h-1.01c0-1.11,0.83-1.77,1.94-1.77
		C285.55,255.67,286.43,256.08,286.43,256.97z M283.69,260.84v-1.25h1.3v1.25H283.69z"/>
</g>
<g>
	<rect x="328.03" y="246.4" class="st1" width="72.09" height="18.32"/>
	<path class="st0" d="M331.06,251.06l0.17-3.7h1.1l-0.31,5.08h-1.29l-0.44-2.58l-0.43,2.58h-1.29l-0.31-5.08h1.1l0.17,3.7l0.38-2.35
		h0.78L331.06,251.06z"/>
	<path class="st0" d="M334.19,247.36v1.75c0.22-0.34,0.57-0.53,1.01-0.53c0.87,0,1.22,0.58,1.22,1.48v2.37h-1.01v-2.2
		c0-0.4-0.03-0.88-0.55-0.88c-0.57,0-0.67,0.5-0.67,1.08v2h-1.01v-5.08H334.19z"/>
	<path class="st0" d="M338.83,252.53c-0.64,0-1.27-0.41-1.27-1.1c0-0.96,1.1-1.16,2.37-1.32v-0.08c0-0.58-0.25-0.78-0.67-0.78
		s-0.67,0.2-0.7,0.61h-0.9c0.07-0.74,0.68-1.29,1.64-1.29c0.93,0,1.6,0.38,1.6,1.65c0,0.12-0.01,0.62-0.01,0.97
		c0,1.04,0.04,1.13,0.08,1.25h-0.92l-0.01-0.48C339.76,252.36,339.37,252.53,338.83,252.53z M339.95,250.73
		c-0.97,0.1-1.4,0.21-1.4,0.66c0,0.28,0.19,0.46,0.55,0.46c0.63,0,0.85-0.41,0.85-1.02V250.73z"/>
	<path class="st0" d="M342.96,247.66h1.01v1.01h1.47v0.76h-1.47v1.82c0,0.36,0.12,0.43,0.41,0.43h1.04v0.76h-1.41
		c-0.82,0-1.05-0.27-1.05-1.02v-1.98h-1.09v-0.76h1.09V247.66z"/>
	<path class="st0" d="M353.61,247.36h1v5.08h-0.99l-0.01-0.47c-0.18,0.35-0.53,0.56-0.97,0.56c-0.86,0-1.53-0.68-1.53-1.97
		s0.67-1.98,1.53-1.98c0.43,0,0.78,0.21,0.97,0.56V247.36z M352.87,249.33c-0.48,0-0.74,0.48-0.74,1.23s0.27,1.23,0.74,1.23
		c0.48,0,0.78-0.43,0.78-1.23S353.35,249.33,352.87,249.33z"/>
	<path class="st0" d="M357.43,252.53c-0.92,0-1.8-0.53-1.8-1.97c0-1.44,0.88-1.97,1.8-1.97c0.92,0,1.8,0.53,1.8,1.97
		C359.23,252,358.34,252.53,357.43,252.53z M357.43,249.33c-0.48,0-0.79,0.36-0.79,1.23c0,0.87,0.31,1.23,0.79,1.23
		s0.79-0.36,0.79-1.23C358.22,249.69,357.91,249.33,357.43,249.33z"/>
	<path class="st0" d="M361.14,250.82c0.04,0.69,0.41,1,0.83,1c0.4,0,0.64-0.2,0.71-0.55h0.96c-0.1,0.64-0.67,1.27-1.69,1.27
		c-1.18,0-1.79-0.78-1.79-1.94c0-1.2,0.65-2,1.77-2c1.13,0,1.8,0.84,1.76,2.23H361.14z M361.14,250.18h1.61
		c-0.02-0.69-0.42-0.87-0.82-0.87C361.61,249.31,361.19,249.54,361.14,250.18z"/>
	<path class="st0" d="M367.14,249.79c-0.07-0.33-0.34-0.47-0.77-0.47c-0.31,0-0.55,0.13-0.55,0.33c0,0.2,0.22,0.34,0.49,0.41
		l0.41,0.1c0.74,0.18,1.33,0.38,1.33,1.13c0,0.8-0.73,1.25-1.57,1.25c-0.9,0-1.53-0.5-1.62-1.36h0.89c0.04,0.39,0.31,0.62,0.78,0.62
		c0.38,0,0.61-0.13,0.61-0.39s-0.27-0.36-0.58-0.44l-0.45-0.1c-0.69-0.16-1.16-0.47-1.16-1.13c0-0.73,0.66-1.13,1.48-1.13
		c0.69,0,1.45,0.34,1.58,1.2H367.14z"/>
	<path class="st0" d="M373.93,252.44v-0.76h1.09v-2.26h-1.09v-0.76h2.1v3.01h1.1v0.76H373.93z M376.03,247.36v0.93h-1.01v-0.93
		H376.03z"/>
	<path class="st0" d="M379.14,247.66h1.01v1.01h1.47v0.76h-1.47v1.82c0,0.36,0.12,0.43,0.41,0.43h1.04v0.76h-1.41
		c-0.82,0-1.05-0.27-1.05-1.02v-1.98h-1.09v-0.76h1.09V247.66z"/>
	<path class="st0" d="M329.81,260.84v-2.52c0-0.44-0.03-0.57-0.2-0.57c-0.2,0-0.25,0.2-0.25,0.79v2.3h-0.98v-3.77h0.98v0.29
		c0.13-0.22,0.38-0.37,0.65-0.37c0.29,0,0.51,0.15,0.63,0.42c0.16-0.29,0.47-0.42,0.7-0.42c0.5,0,0.85,0.28,0.85,1.18v2.67h-0.98
		v-2.52c0-0.44-0.03-0.57-0.2-0.57c-0.2,0-0.25,0.2-0.25,0.79v2.3H329.81z"/>
	<path class="st0" d="M334,259.22c0.04,0.69,0.41,1,0.83,1c0.4,0,0.64-0.2,0.71-0.55h0.96c-0.1,0.64-0.67,1.27-1.69,1.27
		c-1.18,0-1.79-0.78-1.79-1.94c0-1.2,0.65-2,1.77-2c1.13,0,1.8,0.84,1.76,2.23H334z M334,258.58h1.61
		c-0.02-0.69-0.42-0.87-0.82-0.87C334.47,257.71,334.06,257.94,334,258.58z"/>
	<path class="st0" d="M338.83,260.93c-0.64,0-1.27-0.41-1.27-1.1c0-0.96,1.1-1.16,2.37-1.32v-0.08c0-0.58-0.25-0.78-0.67-0.78
		s-0.67,0.2-0.7,0.61h-0.9c0.07-0.74,0.68-1.29,1.64-1.29c0.93,0,1.6,0.38,1.6,1.65c0,0.12-0.01,0.62-0.01,0.97
		c0,1.04,0.04,1.13,0.08,1.25h-0.92l-0.01-0.48C339.76,260.76,339.37,260.93,338.83,260.93z M339.95,259.13
		c-0.97,0.1-1.4,0.21-1.4,0.66c0,0.28,0.19,0.46,0.55,0.46c0.63,0,0.85-0.41,0.85-1.02V259.13z"/>
	<path class="st0" d="M343.24,257.07v0.44c0.22-0.34,0.56-0.53,1-0.53c0.87,0,1.23,0.58,1.23,1.48v2.37h-1.01v-2.2
		c0-0.4-0.04-0.88-0.55-0.88c-0.57,0-0.67,0.5-0.67,1.08v2h-1.01v-3.77H343.24z"/>
	<path class="st0" d="M352.01,256.06h1.01v1.01h1.47v0.76h-1.47v1.82c0,0.36,0.12,0.43,0.41,0.43h1.04v0.76h-1.41
		c-0.82,0-1.05-0.27-1.05-1.02v-1.98h-1.09v-0.76h1.09V256.06z"/>
	<path class="st0" d="M357.43,260.93c-0.92,0-1.8-0.53-1.8-1.97c0-1.44,0.88-1.97,1.8-1.97c0.92,0,1.8,0.53,1.8,1.97
		C359.23,260.4,358.34,260.93,357.43,260.93z M357.43,257.73c-0.48,0-0.79,0.36-0.79,1.23c0,0.87,0.31,1.23,0.79,1.23
		s0.79-0.36,0.79-1.23C358.22,258.09,357.91,257.73,357.43,257.73z"/>
	<path class="st0" d="M367.09,260.43c-0.22,0.34-0.56,0.5-0.96,0.5c-0.91,0-1.27-0.58-1.27-1.48v-2.37h1.01v2.21
		c0,0.4,0.04,0.88,0.55,0.88c0.56,0,0.67-0.5,0.67-1.08v-2h1.01v3.77h-1.01V260.43z"/>
	<path class="st0" d="M371.67,258.19c-0.07-0.33-0.34-0.47-0.77-0.47c-0.31,0-0.55,0.13-0.55,0.33c0,0.2,0.22,0.34,0.49,0.41
		l0.41,0.1c0.74,0.18,1.33,0.38,1.33,1.13c0,0.8-0.73,1.25-1.57,1.25c-0.9,0-1.53-0.5-1.62-1.36h0.89c0.04,0.39,0.31,0.62,0.78,0.62
		c0.38,0,0.61-0.13,0.61-0.39c0-0.25-0.27-0.36-0.58-0.44l-0.45-0.1c-0.69-0.16-1.16-0.47-1.16-1.13c0-0.73,0.66-1.13,1.48-1.13
		c0.69,0,1.45,0.34,1.58,1.2H371.67z"/>
	<path class="st0" d="M377.34,256.97c0,1.25-1.58,1.11-1.58,2.09v0.16h-1.02c-0.01-0.1-0.01-0.19-0.01-0.28
		c0-1.21,1.53-1.14,1.53-1.93c0-0.32-0.28-0.55-0.74-0.55c-0.57,0-0.92,0.39-0.92,0.96h-1.01c0-1.11,0.83-1.77,1.94-1.77
		C376.46,255.67,377.34,256.08,377.34,256.97z M374.6,260.84v-1.25h1.3v1.25H374.6z"/>
</g>
<g>
	<g>
		<line class="st7" x1="190.72" y1="223.1" x2="204.13" y2="223.1"/>
		<g>
			<polygon class="st0" points="203.4,225.6 207.72,223.1 203.4,220.61 			"/>
		</g>
	</g>
</g>
<g>
	<g>
		<line class="st7" x1="300.51" y1="223.1" x2="313.92" y2="223.1"/>
		<g>
			<polygon class="st0" points="313.19,225.6 317.51,223.1 313.19,220.61 			"/>
		</g>
	</g>
</g>
<g>
	<g>
		<g>
			<g class="st2">
				<g>
					<polygon class="st5" points="228.86,223.18 228.83,233.29 221.61,229.12 221.64,219.01 					"/>
				</g>
				<g>
					<polygon class="st5" points="236.04,219.01 228.86,223.18 221.64,219.01 228.81,214.84 					"/>
				</g>
				<g>
					<polygon class="st5" points="236.04,219.01 236.01,229.12 228.83,233.29 228.86,223.18 					"/>
				</g>
			</g>
		</g>
	</g>
	<g>
		<rect x="277.79" y="219.87" class="st1" width="9.65" height="14.85"/>
		<path class="st0" d="M281.88,222.04c0,1.25-1.58,1.11-1.58,2.09v0.16h-1.02c-0.01-0.1-0.01-0.19-0.01-0.28
			c0-1.21,1.53-1.14,1.53-1.93c0-0.32-0.28-0.55-0.74-0.55c-0.57,0-0.92,0.39-0.92,0.96h-1.01c0-1.11,0.83-1.77,1.94-1.77
			C281,220.74,281.88,221.16,281.88,222.04z M279.14,225.91v-1.25h1.3v1.25H279.14z"/>
	</g>
	<rect x="250.53" y="217.49" class="st8" width="13.16" height="13.16"/>
	<line class="st9" x1="239.95" y1="224.06" x2="246.62" y2="224.06"/>
	<line class="st9" x1="267.51" y1="224.06" x2="274.18" y2="224.06"/>
</g>
<g>
	<g>
		<g>
			<g class="st2">
				<g>
					<polygon class="st5" points="341.67,222.4 341.65,232.51 334.42,228.34 334.45,218.23 					"/>
				</g>
				<g>
					<polygon class="st5" points="348.85,218.23 341.67,222.4 334.45,218.23 341.63,214.06 					"/>
				</g>
				<g>
					<polygon class="st5" points="348.85,218.23 348.82,228.34 341.65,232.51 341.67,222.4 					"/>
				</g>
			</g>
		</g>
	</g>
	<g>
		<rect x="362.66" y="218.87" class="st1" width="9.65" height="14.85"/>
		<path class="st0" d="M366.75,221.04c0,1.25-1.58,1.11-1.58,2.09v0.16h-1.02c-0.01-0.1-0.01-0.19-0.01-0.28
			c0-1.21,1.53-1.14,1.53-1.93c0-0.32-0.28-0.55-0.74-0.55c-0.57,0-0.92,0.39-0.92,0.96H363c0-1.11,0.83-1.77,1.94-1.77
			C365.87,219.74,366.75,220.16,366.75,221.04z M364.01,224.91v-1.25h1.3v1.25H364.01z"/>
	</g>
	<line class="st9" x1="352.38" y1="223.06" x2="359.05" y2="223.06"/>
</g>
<g>
	<g>
		<g class="st2">
			<g>
				<polygon class="st5" points="245.82,33.15 245.8,39.13 241.53,36.67 241.55,30.68 				"/>
			</g>
			<g>
				<polygon class="st5" points="250.07,30.68 245.82,33.15 241.55,30.68 245.79,28.22 				"/>
			</g>
			<g>
				<polygon class="st5" points="250.07,30.68 250.05,36.67 245.8,39.13 245.82,33.15 				"/>
			</g>
		</g>
	</g>
</g>
<g>
	<path class="st0" d="M29.26,35.09h-0.11H28.8v2.35h-1.2v-5.8h1.54c1.32,0,2.32,0.28,2.32,1.72c0,0.83-0.43,1.25-1.04,1.47l1.3,2.61
		H30.4L29.26,35.09z M28.8,32.62v1.53h0.38c0.57,0,1.01-0.14,1.01-0.76s-0.44-0.77-1.01-0.77H28.8z"/>
	<path class="st0" d="M33.68,35.59c0.04,0.79,0.47,1.14,0.95,1.14c0.46,0,0.73-0.23,0.82-0.63h1.1c-0.12,0.73-0.77,1.45-1.93,1.45
		c-1.34,0-2.04-0.9-2.04-2.21c0-1.38,0.74-2.29,2.02-2.29c1.29,0,2.05,0.96,2.01,2.54H33.68z M33.68,34.86h1.84
		c-0.02-0.78-0.48-0.99-0.94-0.99C34.22,33.87,33.75,34.13,33.68,34.86z"/>
	<path class="st0" d="M40.55,34.42c-0.08-0.38-0.38-0.54-0.88-0.54c-0.35,0-0.63,0.14-0.63,0.38c0,0.22,0.25,0.38,0.56,0.46
		l0.47,0.11c0.85,0.2,1.52,0.43,1.52,1.29c0,0.91-0.83,1.42-1.79,1.42c-1.02,0-1.75-0.57-1.85-1.55h1.02
		c0.05,0.44,0.36,0.7,0.89,0.7c0.43,0,0.7-0.15,0.7-0.44c0-0.29-0.3-0.42-0.66-0.5l-0.51-0.12c-0.78-0.18-1.32-0.54-1.32-1.3
		c0-0.83,0.75-1.29,1.69-1.29c0.79,0,1.66,0.39,1.81,1.38H40.55z"/>
	<path class="st0" d="M44.04,35.59c0.04,0.79,0.47,1.14,0.95,1.14c0.46,0,0.73-0.23,0.82-0.63h1.1c-0.12,0.73-0.77,1.45-1.93,1.45
		c-1.34,0-2.04-0.9-2.04-2.21c0-1.38,0.74-2.29,2.02-2.29c1.29,0,2.05,0.96,2.01,2.54H44.04z M44.04,34.86h1.84
		c-0.02-0.78-0.48-0.99-0.94-0.99C44.58,33.87,44.11,34.13,44.04,34.86z"/>
	<path class="st0" d="M49.65,37.55c-0.74,0-1.46-0.47-1.46-1.26c0-1.1,1.25-1.32,2.7-1.5v-0.1c0-0.66-0.29-0.89-0.76-0.89
		c-0.47,0-0.77,0.22-0.8,0.7h-1.03c0.08-0.85,0.78-1.47,1.87-1.47c1.06,0,1.82,0.43,1.82,1.89c0,0.14-0.02,0.71-0.02,1.1
		c0,1.18,0.05,1.3,0.09,1.42h-1.05l-0.01-0.55C50.72,37.35,50.28,37.55,49.65,37.55z M50.93,35.49c-1.11,0.11-1.6,0.24-1.6,0.75
		c0,0.32,0.22,0.52,0.63,0.52c0.72,0,0.97-0.46,0.97-1.16V35.49z"/>
	<path class="st0" d="M55.65,33.14v0.73c0.18-0.37,0.51-0.73,1.19-0.73h0.66v0.92h-0.82c-0.73,0-1.01,0.34-1.01,1.18v1.34h1.56v0.86
		h-3.78v-0.86h1.07v-2.57h-1.07v-0.87H55.65z"/>
	<path class="st0" d="M62.53,34.69h-1.09c-0.06-0.46-0.28-0.8-0.79-0.8c-0.53,0-0.83,0.44-0.83,1.41c0,0.97,0.32,1.4,0.83,1.4
		c0.35,0,0.71-0.18,0.82-0.83h1.1c-0.15,1.17-1.07,1.68-1.94,1.68c-1.26,0-1.97-0.94-1.97-2.25c0-1.34,0.73-2.25,1.99-2.25
		C61.5,33.05,62.4,33.55,62.53,34.69z"/>
	<path class="st0" d="M65.17,31.65v2c0.25-0.38,0.65-0.6,1.15-0.6c0.99,0,1.39,0.66,1.39,1.69v2.7h-1.15v-2.51c0-0.46-0.04-1-0.62-1
		c-0.65,0-0.77,0.58-0.77,1.23v2.28h-1.15v-5.8H65.17z"/>
	<path class="st0" d="M75.46,31.65h1.5l1.5,5.8h-1.31l-0.26-1.21h-1.36l-0.26,1.21h-1.28L75.46,31.65z M75.73,35.3h0.94l-0.46-2.13
		L75.73,35.3z"/>
	<path class="st0" d="M80.67,33.69c0.21-0.4,0.6-0.64,1.1-0.64c0.98,0,1.74,0.78,1.74,2.25c0,1.47-0.76,2.25-1.74,2.25
		c-0.5,0-0.9-0.24-1.1-0.64v1.94h-1.15v-5.7h1.15V33.69z M81.51,36.7c0.54,0,0.85-0.54,0.85-1.4c0-0.86-0.31-1.41-0.85-1.41
		c-0.55,0-0.89,0.5-0.89,1.41C80.63,36.2,80.96,36.7,81.51,36.7z"/>
	<path class="st0" d="M86.04,33.69c0.21-0.4,0.6-0.64,1.1-0.64c0.98,0,1.74,0.78,1.74,2.25c0,1.47-0.76,2.25-1.74,2.25
		c-0.5,0-0.9-0.24-1.1-0.64v1.94h-1.15v-5.7h1.15V33.69z M86.89,36.7c0.54,0,0.85-0.54,0.85-1.4c0-0.86-0.31-1.41-0.85-1.41
		c-0.55,0-0.89,0.5-0.89,1.41C86,36.2,86.34,36.7,86.89,36.7z"/>
	<path class="st0" d="M92.26,33.14v0.73c0.18-0.37,0.51-0.73,1.19-0.73h0.66v0.92h-0.82c-0.73,0-1.01,0.34-1.01,1.18v1.34h1.56v0.86
		h-3.78v-0.86h1.07v-2.57h-1.07v-0.87H92.26z"/>
	<path class="st0" d="M97.28,37.55c-1.06,0-2.05-0.61-2.05-2.25s1-2.25,2.05-2.25c1.05,0,2.05,0.6,2.05,2.25
		S98.33,37.55,97.28,37.55z M97.28,33.89c-0.55,0-0.9,0.41-0.9,1.4c0,0.99,0.35,1.41,0.9,1.41s0.9-0.42,0.9-1.41
		C98.19,34.3,97.83,33.89,97.28,33.89z"/>
	<path class="st0" d="M101.98,37.55c-0.74,0-1.46-0.47-1.46-1.26c0-1.1,1.26-1.32,2.7-1.5v-0.1c0-0.66-0.29-0.89-0.76-0.89
		s-0.77,0.22-0.8,0.7h-1.03c0.08-0.85,0.78-1.47,1.87-1.47c1.06,0,1.82,0.43,1.82,1.89c0,0.14-0.02,0.71-0.02,1.1
		c0,1.18,0.05,1.3,0.09,1.42h-1.05l-0.01-0.55C103.05,37.35,102.61,37.55,101.98,37.55z M103.26,35.49c-1.11,0.11-1.6,0.24-1.6,0.75
		c0,0.32,0.22,0.52,0.63,0.52c0.72,0,0.97-0.46,0.97-1.16V35.49z"/>
	<path class="st0" d="M109.66,34.69h-1.09c-0.06-0.46-0.28-0.8-0.79-0.8c-0.53,0-0.83,0.44-0.83,1.41c0,0.97,0.32,1.4,0.83,1.4
		c0.35,0,0.71-0.18,0.82-0.83h1.1c-0.15,1.17-1.07,1.68-1.94,1.68c-1.26,0-1.97-0.94-1.97-2.25c0-1.34,0.73-2.25,1.99-2.25
		C108.63,33.05,109.54,33.55,109.66,34.69z"/>
	<path class="st0" d="M112.3,31.65v2c0.25-0.38,0.65-0.6,1.15-0.6c0.99,0,1.39,0.66,1.39,1.69v2.7h-1.15v-2.51c0-0.46-0.04-1-0.62-1
		c-0.65,0-0.77,0.58-0.77,1.23v2.28h-1.15v-5.8H112.3z"/>
	<path class="st0" d="M117.37,35.59c0.04,0.79,0.47,1.14,0.95,1.14c0.46,0,0.73-0.23,0.82-0.63h1.1c-0.12,0.73-0.77,1.45-1.93,1.45
		c-1.34,0-2.04-0.9-2.04-2.21c0-1.38,0.74-2.29,2.02-2.29c1.3,0,2.05,0.96,2.01,2.54H117.37z M117.37,34.86h1.84
		c-0.02-0.78-0.48-0.99-0.94-0.99C117.91,33.87,117.44,34.13,117.37,34.86z"/>
	<path class="st0" d="M124.24,34.42c-0.08-0.38-0.38-0.54-0.88-0.54c-0.35,0-0.63,0.14-0.63,0.38c0,0.22,0.25,0.38,0.56,0.46
		l0.47,0.11c0.85,0.2,1.52,0.43,1.52,1.29c0,0.91-0.83,1.42-1.79,1.42c-1.02,0-1.75-0.57-1.85-1.55h1.02
		c0.05,0.44,0.36,0.7,0.89,0.7c0.43,0,0.7-0.15,0.7-0.44c0-0.29-0.3-0.42-0.66-0.5l-0.51-0.12c-0.78-0.18-1.32-0.54-1.32-1.3
		c0-0.83,0.75-1.29,1.69-1.29c0.79,0,1.66,0.39,1.81,1.38H124.24z"/>
	<path class="st0" d="M132.78,32.91c0-1.1,0.56-1.26,1.58-1.26h1.38v0.86h-1.24c-0.48,0-0.58,0.06-0.58,0.4v0.24h1.81v0.86h-1.81
		v3.44h-1.15v-3.44h-1.25v-0.86h1.25V32.91z"/>
	<path class="st0" d="M138.98,37.55c-1.06,0-2.05-0.61-2.05-2.25s1-2.25,2.05-2.25c1.05,0,2.05,0.6,2.05,2.25
		S140.03,37.55,138.98,37.55z M138.98,33.89c-0.55,0-0.9,0.41-0.9,1.4c0,0.99,0.35,1.41,0.9,1.41s0.9-0.42,0.9-1.41
		C139.88,34.3,139.53,33.89,138.98,33.89z"/>
	<path class="st0" d="M144.39,33.14v0.73c0.18-0.37,0.51-0.73,1.19-0.73h0.66v0.92h-0.82c-0.73,0-1.01,0.34-1.01,1.18v1.34h1.56
		v0.86h-3.78v-0.86h1.07v-2.57h-1.07v-0.87H144.39z"/>
	<path class="st0" d="M153.7,33.69c0.21-0.4,0.6-0.64,1.1-0.64c0.98,0,1.74,0.78,1.74,2.25c0,1.47-0.76,2.25-1.74,2.25
		c-0.5,0-0.9-0.24-1.1-0.64v1.94h-1.15v-5.7h1.15V33.69z M154.55,36.7c0.54,0,0.85-0.54,0.85-1.4c0-0.86-0.31-1.41-0.85-1.41
		c-0.55,0-0.89,0.5-0.89,1.41C153.66,36.2,154,36.7,154.55,36.7z"/>
	<path class="st0" d="M159.67,37.55c-1.06,0-2.05-0.61-2.05-2.25s1-2.25,2.05-2.25c1.05,0,2.05,0.6,2.05,2.25
		S160.72,37.55,159.67,37.55z M159.67,33.89c-0.55,0-0.9,0.41-0.9,1.4c0,0.99,0.35,1.41,0.9,1.41s0.9-0.42,0.9-1.41
		C160.57,34.3,160.22,33.89,159.67,33.89z"/>
	<path class="st0" d="M165.6,34.42c-0.08-0.38-0.38-0.54-0.88-0.54c-0.35,0-0.63,0.14-0.63,0.38c0,0.22,0.25,0.38,0.56,0.46
		l0.47,0.11c0.85,0.2,1.52,0.43,1.52,1.29c0,0.91-0.83,1.42-1.79,1.42c-1.02,0-1.75-0.57-1.85-1.55h1.02
		c0.05,0.44,0.36,0.7,0.89,0.7c0.43,0,0.7-0.15,0.7-0.44c0-0.29-0.3-0.42-0.66-0.5l-0.51-0.12c-0.78-0.18-1.32-0.54-1.32-1.3
		c0-0.83,0.75-1.29,1.69-1.29c0.79,0,1.66,0.39,1.81,1.38H165.6z"/>
	<path class="st0" d="M170.77,34.42c-0.08-0.38-0.38-0.54-0.88-0.54c-0.35,0-0.63,0.14-0.63,0.38c0,0.22,0.25,0.38,0.56,0.46
		l0.47,0.11c0.85,0.2,1.52,0.43,1.52,1.29c0,0.91-0.83,1.42-1.79,1.42c-1.02,0-1.75-0.57-1.85-1.55h1.02
		c0.05,0.44,0.36,0.7,0.89,0.7c0.43,0,0.7-0.15,0.7-0.44c0-0.29-0.3-0.42-0.66-0.5l-0.51-0.12c-0.78-0.18-1.32-0.54-1.32-1.3
		c0-0.83,0.75-1.29,1.69-1.29c0.79,0,1.66,0.39,1.81,1.38H170.77z"/>
	<path class="st0" d="M173.37,37.44v-0.86h1.25v-2.57h-1.25v-0.86h2.4v3.44h1.26v0.86H173.37z M175.76,31.65v1.06h-1.15v-1.06
		H175.76z"/>
	<path class="st0" d="M179.53,33.69c0.2-0.4,0.6-0.64,1.1-0.64c0.98,0,1.75,0.78,1.75,2.25c0,1.47-0.77,2.25-1.75,2.25
		c-0.5,0-0.9-0.24-1.1-0.64l-0.01,0.54h-1.14v-5.8h1.14V33.69z M180.37,36.7c0.54,0,0.86-0.54,0.86-1.4c0-0.86-0.31-1.41-0.86-1.41
		c-0.55,0-0.89,0.5-0.89,1.41C179.48,36.2,179.82,36.7,180.37,36.7z"/>
	<path class="st0" d="M183.71,37.44v-0.86h1.25V32.5h-1.25v-0.86h2.4v4.93h1.25v0.86H183.71z"/>
	<path class="st0" d="M189.75,35.59c0.04,0.79,0.47,1.14,0.95,1.14c0.46,0,0.73-0.23,0.82-0.63h1.1c-0.12,0.73-0.77,1.45-1.93,1.45
		c-1.34,0-2.04-0.9-2.04-2.21c0-1.38,0.74-2.29,2.02-2.29c1.29,0,2.05,0.96,2.01,2.54H189.75z M189.75,34.86h1.84
		c-0.02-0.78-0.48-0.99-0.94-0.99C190.28,33.87,189.81,34.13,189.75,34.86z"/>
	<path class="st0" d="M201.24,33.14v0.73c0.18-0.37,0.51-0.73,1.19-0.73h0.66v0.92h-0.82c-0.73,0-1.01,0.34-1.01,1.18v1.34h1.56
		v0.86h-3.78v-0.86h1.07v-2.57h-1.07v-0.87H201.24z"/>
	<path class="st0" d="M205.25,35.59c0.04,0.79,0.47,1.14,0.95,1.14c0.46,0,0.73-0.23,0.82-0.63h1.1c-0.12,0.73-0.77,1.45-1.93,1.45
		c-1.34,0-2.04-0.9-2.04-2.21c0-1.38,0.74-2.29,2.02-2.29c1.29,0,2.05,0.96,2.01,2.54H205.25z M205.25,34.86h1.84
		c-0.02-0.78-0.48-0.99-0.94-0.99C205.79,33.87,205.32,34.13,205.25,34.86z"/>
	<path class="st0" d="M210.8,37.44v-2.88c0-0.5-0.03-0.65-0.23-0.65c-0.23,0-0.29,0.22-0.29,0.9v2.62h-1.12v-4.3h1.12v0.33
		c0.14-0.25,0.43-0.42,0.74-0.42c0.34,0,0.58,0.17,0.72,0.48c0.18-0.34,0.54-0.48,0.8-0.48c0.57,0,0.97,0.32,0.97,1.35v3.05h-1.12
		v-2.88c0-0.5-0.03-0.65-0.23-0.65c-0.23,0-0.29,0.22-0.29,0.9v2.62H210.8z"/>
	<path class="st0" d="M215.93,37.55c-0.74,0-1.46-0.47-1.46-1.26c0-1.1,1.25-1.32,2.7-1.5v-0.1c0-0.66-0.29-0.89-0.76-0.89
		s-0.77,0.22-0.8,0.7h-1.03c0.08-0.85,0.78-1.47,1.87-1.47c1.06,0,1.82,0.43,1.82,1.89c0,0.14-0.02,0.71-0.02,1.1
		c0,1.18,0.05,1.3,0.09,1.42h-1.05l-0.01-0.55C217,37.35,216.56,37.55,215.93,37.55z M217.21,35.49c-1.11,0.11-1.6,0.24-1.6,0.75
		c0,0.32,0.22,0.52,0.63,0.52c0.72,0,0.97-0.46,0.97-1.16V35.49z"/>
	<path class="st0" d="M219.88,37.44v-0.86h1.25v-2.57h-1.25v-0.86h2.4v3.44h1.26v0.86H219.88z M222.28,31.65v1.06h-1.15v-1.06
		H222.28z"/>
	<path class="st0" d="M226.14,33.14v0.5c0.25-0.38,0.64-0.6,1.14-0.6c0.99,0,1.4,0.66,1.4,1.69v2.7h-1.15v-2.51
		c0-0.46-0.05-1-0.63-1c-0.65,0-0.76,0.58-0.76,1.23v2.28h-1.15v-4.3H226.14z"/>
	<path class="st0" d="M232.79,34.42c-0.08-0.38-0.38-0.54-0.88-0.54c-0.35,0-0.63,0.14-0.63,0.38c0,0.22,0.25,0.38,0.56,0.46
		l0.47,0.11c0.85,0.2,1.52,0.43,1.52,1.29c0,0.91-0.83,1.42-1.79,1.42c-1.02,0-1.75-0.57-1.86-1.55h1.02
		c0.05,0.44,0.36,0.7,0.89,0.7c0.43,0,0.7-0.15,0.7-0.44c0-0.29-0.3-0.42-0.66-0.5l-0.51-0.12c-0.78-0.18-1.32-0.54-1.32-1.3
		c0-0.83,0.75-1.29,1.69-1.29c0.79,0,1.66,0.39,1.81,1.38H232.79z"/>
	<path class="st0" d="M257.12,34.57v-1.42h1.49v1.42H257.12z M257.12,37.44v-1.42h1.49v1.42H257.12z"/>
</g>
</svg>
