<?xml version="1.0" encoding="utf-8"?>
<!-- Generator: Adobe Illustrator 24.0.1, SVG Export Plug-In . SVG Version: 6.00 Build 0)  -->
<svg version="1.1" id="Layer_1" xmlns="http://www.w3.org/2000/svg" xmlns:xlink="http://www.w3.org/1999/xlink" x="0px" y="0px"
	 viewBox="0 0 40 40" style="enable-background:new 0 0 40 40;" xml:space="preserve">
<style type="text/css">
	.st0{clip-path:url(#SVGID_2_);fill:none;stroke:#231916;stroke-linejoin:round;stroke-miterlimit:10;}
	.st1{fill:none;stroke:#231916;stroke-linejoin:round;stroke-miterlimit:10;stroke-dasharray:2.158,2.158;}
	.st2{fill:none;stroke:#231916;stroke-linejoin:round;stroke-miterlimit:10;stroke-dasharray:2.169,2.169;}
	.st3{clip-path:url(#SVGID_4_);fill:none;stroke:#231916;stroke-linejoin:round;stroke-miterlimit:10;}
	.st4{clip-path:url(#SVGID_6_);fill:none;stroke:#231916;stroke-linejoin:round;stroke-miterlimit:10;}
	
		.st5{clip-path:url(#SVGID_8_);fill:none;stroke:#231916;stroke-linejoin:round;stroke-miterlimit:10;stroke-dasharray:2.135,2.135;}
</style>
<g>
	<g>
		<g>
			<defs>
				<rect id="SVGID_1_" x="9.2" y="5.8" width="21.8" height="27.8"/>
			</defs>
			<clipPath id="SVGID_2_">
				<use xlink:href="#SVGID_1_"  style="overflow:visible;"/>
			</clipPath>
			<path class="st0" d="M30.5,12.2L20,18.4L9.5,12.2l10.5-6L30.5,12.2z M20.1,18.4v14.9L9.4,27.1V12.2L20.1,18.4z"/>
		</g>
	</g>
</g>
<line class="st1" x1="26.6" y1="29.5" x2="22.7" y2="31.8"/>
<line class="st2" x1="16" y1="31.1" x2="12.1" y2="28.7"/>
<line class="st1" x1="13.4" y1="25" x2="17.3" y2="22.7"/>
<line class="st2" x1="23.9" y1="23.5" x2="28" y2="25.7"/>
<g>
	<g>
		<g>
			<defs>
				<rect id="SVGID_3_" x="9.2" y="5.8" width="21.8" height="27.8"/>
			</defs>
			<clipPath id="SVGID_4_">
				<use xlink:href="#SVGID_3_"  style="overflow:visible;"/>
			</clipPath>
			<path class="st3" d="M29.3,26.4l1.3,0.7l-1.3,0.7 M18.7,21.9l1.3-0.7l1.3,0.7 M10.8,28l-1.3-0.7l1.3-0.7 M21.4,32.5l-1.3,0.7
				l-1.3-0.7"/>
		</g>
	</g>
	<g>
		<g>
			<defs>
				<rect id="SVGID_5_" x="9.2" y="5.8" width="21.8" height="27.8"/>
			</defs>
			<clipPath id="SVGID_6_">
				<use xlink:href="#SVGID_5_"  style="overflow:visible;"/>
			</clipPath>
			<polygon class="st4" points="30.5,12.4 30.5,27.2 20.1,33.3 20.3,18.4 			"/>
		</g>
	</g>
	<g>
		<g>
			<defs>
				<rect id="SVGID_7_" x="9.2" y="5.8" width="21.8" height="27.8"/>
			</defs>
			<clipPath id="SVGID_8_">
				<use xlink:href="#SVGID_7_"  style="overflow:visible;"/>
			</clipPath>
			<line class="st5" x1="20" y1="6.1" x2="20" y2="21.1"/>
		</g>
	</g>
</g>
</svg>
