<?xml version="1.0" encoding="utf-8"?>
<!-- Generator: Adobe Illustrator 24.0.1, SVG Export Plug-In . SVG Version: 6.00 Build 0)  -->
<svg version="1.1" id="Layer_1" xmlns="http://www.w3.org/2000/svg" xmlns:xlink="http://www.w3.org/1999/xlink" x="0px" y="0px"
	 viewBox="0 0 40 40" style="enable-background:new 0 0 40 40;" xml:space="preserve">
<style type="text/css">
	.st0{enable-background:new    ;}
	.st1{fill:#FFFFFF;stroke:#1D1D1B;stroke-linejoin:bevel;stroke-miterlimit:10;}
</style>
<g class="st0">
	<g>
		<polygon class="st1" points="28.4,25.9 28.4,32.5 23.7,29.7 23.7,23.2 		"/>
	</g>
	<g>
		<polygon class="st1" points="33.1,23.2 28.4,25.9 23.7,23.2 28.4,20.5 		"/>
	</g>
	<g>
		<polygon class="st1" points="33.1,23.2 33.1,29.7 28.4,32.5 28.4,25.9 		"/>
	</g>
</g>
<g class="st0">
	<g>
		<polygon class="st1" points="12.3,24.2 12.3,30.8 7.6,28.1 7.6,21.5 		"/>
	</g>
	<g>
		<polygon class="st1" points="17,21.5 12.3,24.2 7.6,21.5 12.3,18.8 		"/>
	</g>
	<g>
		<polygon class="st1" points="17,21.5 17,28.1 12.3,30.8 12.3,24.2 		"/>
	</g>
</g>
<g class="st0">
	<g>
		<polygon class="st1" points="19.9,30.2 19.9,36.8 15.2,34.1 15.2,27.5 		"/>
	</g>
	<g>
		<polygon class="st1" points="24.6,27.5 19.9,30.2 15.2,27.5 19.9,24.8 		"/>
	</g>
	<g>
		<polygon class="st1" points="24.6,27.5 24.6,34.1 19.9,36.8 19.9,30.2 		"/>
	</g>
</g>
<g class="st0">
	<g>
		<polygon class="st1" points="20.8,9.4 20.8,16 16.1,13.3 16.1,6.7 		"/>
	</g>
	<g>
		<polygon class="st1" points="25.5,6.7 20.8,9.4 16.1,6.7 20.8,4 		"/>
	</g>
	<g>
		<polygon class="st1" points="25.5,6.7 25.5,13.3 20.8,16 20.8,9.4 		"/>
	</g>
</g>
<g class="st0">
	<g>
		<polygon class="st1" points="28.4,15.4 28.4,22 23.7,19.3 23.7,12.7 		"/>
	</g>
	<g>
		<polygon class="st1" points="33.1,12.7 28.4,15.4 23.7,12.7 28.4,10 		"/>
	</g>
	<g>
		<polygon class="st1" points="33.1,12.7 33.1,19.3 28.4,22 28.4,15.4 		"/>
	</g>
</g>
<g class="st0">
	<g>
		<polygon class="st1" points="12.3,13.8 12.3,20.4 7.6,17.6 7.6,11.1 		"/>
	</g>
	<g>
		<polygon class="st1" points="17,11.1 12.3,13.8 7.6,11.1 12.3,8.3 		"/>
	</g>
	<g>
		<polygon class="st1" points="17,11.1 17,17.6 12.3,20.4 12.3,13.8 		"/>
	</g>
</g>
<g class="st0">
	<g>
		<polygon class="st1" points="19.9,19.8 19.9,26.4 15.2,23.6 15.2,17.1 		"/>
	</g>
	<g>
		<polygon class="st1" points="24.6,17.1 19.9,19.8 15.2,17.1 19.9,14.3 		"/>
	</g>
	<g>
		<polygon class="st1" points="24.6,17.1 24.6,23.6 19.9,26.4 19.9,19.8 		"/>
	</g>
</g>
</svg>
