<?xml version="1.0" encoding="utf-8"?>
<!-- Generator: Adobe Illustrator 24.0.1, SVG Export Plug-In . SVG Version: 6.00 Build 0)  -->
<svg version="1.1" id="Layer_1" xmlns="http://www.w3.org/2000/svg" xmlns:xlink="http://www.w3.org/1999/xlink" x="0px" y="0px"
	 viewBox="0 0 40 40" style="enable-background:new 0 0 40 40;" xml:space="preserve">
<style type="text/css">
	.st0{fill:none;stroke:#1C1C1C;stroke-linejoin:round;stroke-miterlimit:10;stroke-dasharray:1.909,1.909;}
	.st1{fill:none;stroke:#1C1C1C;stroke-linejoin:round;stroke-miterlimit:10;stroke-dasharray:1.918,1.918;}
	.st2{fill:none;stroke:#1C1C1C;stroke-linejoin:round;stroke-miterlimit:10;}
	.st3{clip-path:url(#SVGID_2_);fill:none;stroke:#1C1C1C;stroke-linejoin:round;stroke-miterlimit:10;}
	.st4{fill:#FFFFFF;}
	.st5{clip-path:url(#SVGID_4_);fill:none;stroke:#1C1C1C;stroke-linejoin:round;stroke-miterlimit:10;}
	.st6{fill:none;stroke:#1C1C1C;stroke-linejoin:round;stroke-miterlimit:10;stroke-dasharray:1.113,1.113;}
	.st7{fill:none;stroke:#1C1C1C;stroke-linejoin:round;stroke-miterlimit:10;stroke-dasharray:1.114,1.114;}
	.st8{fill:none;stroke:#1C1C1C;stroke-linejoin:round;stroke-miterlimit:10;stroke-dasharray:1.164,1.164;}
	.st9{clip-path:url(#SVGID_6_);fill:none;stroke:#1C1C1C;stroke-linejoin:round;stroke-miterlimit:10;}
	.st10{clip-path:url(#SVGID_8_);fill:none;stroke:#1C1C1C;stroke-linejoin:round;stroke-miterlimit:10;}
</style>
<line class="st0" x1="24.9" y1="1919.7" x2="22.5" y2="1921.1"/>
<line class="st1" x1="18.3" y1="1920.7" x2="15.8" y2="1919.2"/>
<line class="st0" x1="16.6" y1="1916.9" x2="19.1" y2="1915.5"/>
<line class="st1" x1="23.3" y1="1915.9" x2="25.8" y2="1917.3"/>
<path class="st2" d="M26.6,1917.8l0.8,0.5l-0.8,0.5 M19.9,1915l0.8-0.5l0.8,0.5 M15,1918.8l-0.8-0.5l0.8-0.5 M21.6,1921.6l-0.8,0.5
	l-0.8-0.5"/>
<g>
	<g>
		<g>
			<defs>
				<rect id="SVGID_1_" x="8" y="1907.5" width="25.5" height="18.5"/>
			</defs>
			<clipPath id="SVGID_2_">
				<use xlink:href="#SVGID_1_"  style="overflow:visible;"/>
			</clipPath>
			<polygon class="st3" points="33.3,1918.6 20.8,1925.8 8.2,1918.6 20.7,1911.4 			"/>
		</g>
	</g>
</g>
<path class="st4" d="M16.6,1916l4.2,2.4v-5.9l-4.2-2.4C16.6,1910.1,16.6,1916,16.6,1916z M16.6,1910.2l4.2,2.4l4.1-2.4l-4.2-2.4
	L16.6,1910.2z"/>
<g>
	<g>
		<g>
			<defs>
				<rect id="SVGID_3_" x="8" y="1907.5" width="25.5" height="18.5"/>
			</defs>
			<clipPath id="SVGID_4_">
				<use xlink:href="#SVGID_3_"  style="overflow:visible;"/>
			</clipPath>
			<path class="st5" d="M24.9,1910.2l-4.1,2.4l-4.2-2.4l4.1-2.4L24.9,1910.2z M20.8,1912.6v5.9l-4.2-2.4v-5.9L20.8,1912.6z"/>
		</g>
	</g>
</g>
<polygon class="st4" points="24.9,1910.3 24.9,1916.1 20.9,1918.5 20.9,1912.7 "/>
<polygon class="st2" points="24.9,1910.3 24.9,1916.1 20.9,1918.5 20.9,1912.7 "/>
<line class="st6" x1="16.5" y1="1916.3" x2="14.1" y2="1918.6"/>
<line class="st7" x1="25" y1="1916.1" x2="27.5" y2="1918.4"/>
<line class="st8" x1="20.8" y1="1918.7" x2="20.8" y2="1922.2"/>
<line class="st0" x1="25.2" y1="24.3" x2="22.1" y2="26.1"/>
<line class="st1" x1="16.7" y1="25.5" x2="13.4" y2="23.6"/>
<line class="st0" x1="14.5" y1="20.5" x2="17.7" y2="18.7"/>
<line class="st1" x1="23.1" y1="19.4" x2="26.4" y2="21.2"/>
<path class="st2" d="M27.4,21.8l1,0.6l-1,0.6 M18.8,18.1l1-0.6l1,0.6 M12.4,23l-1-0.6l0.9-0.5 M20.9,26.6l-1,0.6l-1-0.6"/>
<g>
	<g>
		<g>
			<defs>
				<rect id="SVGID_5_" x="3.4" y="8.4" width="33" height="23.9"/>
			</defs>
			<clipPath id="SVGID_6_">
				<use xlink:href="#SVGID_5_"  style="overflow:visible;"/>
			</clipPath>
			<polygon class="st9" points="36.1,22.7 19.9,32.1 3.7,22.7 19.8,13.4 			"/>
		</g>
	</g>
</g>
<path class="st4" d="M14.5,19.5l5.4,3.1V15l-5.4-3.1V19.5z M14.5,11.9l5.4,3.1l5.3-3.1l-5.4-3.1L14.5,11.9z"/>
<g>
	<g>
		<g>
			<defs>
				<rect id="SVGID_7_" x="3.4" y="8.4" width="33" height="23.9"/>
			</defs>
			<clipPath id="SVGID_8_">
				<use xlink:href="#SVGID_7_"  style="overflow:visible;"/>
			</clipPath>
			<path class="st10" d="M25.2,11.9L19.9,15l-5.4-3.1l5.3-3.1L25.2,11.9z M19.9,15v7.6l-5.4-3.1v-7.6L19.9,15z"/>
		</g>
	</g>
</g>
<polygon class="st4" points="25.2,12 25.2,19.6 20,22.7 20,15.1 "/>
<polygon class="st2" points="25.2,12 25.2,19.6 20,22.7 20,15.1 "/>
<line class="st6" x1="14.4" y1="19.8" x2="11.2" y2="22.7"/>
<line class="st7" x1="25.3" y1="19.6" x2="28.6" y2="22.5"/>
<line class="st8" x1="19.9" y1="23" x2="19.9" y2="27.5"/>
</svg>
